<svg width="217" height="156" viewBox="0 0 217 156" fill="none" xmlns="http://www.w3.org/2000/svg">
<g clip-path="url(#clip0)">
<path d="M212.75 136.972L144.16 140.682L34.84 146.612L9.75 147.972L13.5 151.722L8.26 38.922L7.5 22.722L3.75 26.472L68.83 24.472L172.7 21.212L196.75 20.472L193 16.722L207 125.262L209 140.722C209.61 145.442 217.12 145.502 216.5 140.722L202.5 32.212L200.5 16.752C200.25 14.752 198.99 12.932 196.75 13.002L131.68 15.002L27.8 18.212L3.8 18.962C2.79907 18.9619 1.83854 19.3568 1.12704 20.0608C0.415539 20.7648 0.0105361 21.7211 0 22.722L5.25 135.512L6 151.722C6.01295 152.712 6.4122 153.659 7.11267 154.359C7.81314 155.06 8.75947 155.459 9.75 155.472L78.35 151.752L187.67 145.832L212.75 144.472C217.55 144.212 217.58 136.702 212.75 136.972Z" fill="#A2A489"/>
<path d="M136.25 94.51C136.25 102.63 132.62 110.38 128.01 116.91C122.919 124.159 116.226 130.137 108.45 134.38C101.33 138.2 93.2 140.14 85.21 138.21C76.95 136.21 69.67 131.09 63.85 125.02C57.7371 118.792 53.213 111.185 50.66 102.84C49.48 99.0512 49.0694 95.0646 49.4524 91.1148C49.8353 87.165 51.0041 83.3316 52.89 79.84C61.29 64.64 80.56 56.28 97.47 58.35C106.309 59.5085 114.678 63.0094 121.71 68.49C128.23 73.56 133.71 80.49 135.58 88.64C136.023 90.5721 136.247 92.5478 136.25 94.53C136.25 94.9278 136.408 95.3094 136.689 95.5907C136.971 95.872 137.352 96.03 137.75 96.03C138.148 96.03 138.529 95.872 138.811 95.5907C139.092 95.3094 139.25 94.9278 139.25 94.53C139.14 75.66 121.71 61.4 104.8 56.77C86.8 51.84 65.89 58.16 54.07 72.77C48.5 79.66 45.43 88.26 46.47 97.16C47.51 106.06 51.59 114.46 56.97 121.54C62.59 128.94 69.87 135.41 78.47 139.09C86.394 142.55 95.3457 142.83 103.47 139.87C112.247 136.555 120.056 131.1 126.19 124C132.07 117.37 136.98 109.28 138.65 100.47C139.035 98.5097 139.236 96.5177 139.25 94.52C139.251 94.1222 139.095 93.7401 138.814 93.4579C138.534 93.1756 138.153 93.0163 137.755 93.015C137.357 93.0137 136.975 93.1704 136.693 93.4508C136.411 93.7312 136.251 94.1122 136.25 94.51Z" fill="#A2A489"/>
<path d="M6.75 64H67.25C67.6478 64 68.0294 63.842 68.3107 63.5607C68.592 63.2794 68.75 62.8978 68.75 62.5C68.75 62.1022 68.592 61.7206 68.3107 61.4393C68.0294 61.158 67.6478 61 67.25 61H6.75C6.35218 61 5.97064 61.158 5.68934 61.4393C5.40804 61.7206 5.25 62.1022 5.25 62.5C5.25 62.8978 5.40804 63.2794 5.68934 63.5607C5.97064 63.842 6.35218 64 6.75 64Z" fill="#A2A489"/>
<path d="M123.15 127L151.33 122.25L195.92 114.73L206.15 113C208.05 112.68 207.25 109.79 205.35 110.11L177.17 114.86L132.58 122.38L122.35 124.11C120.46 124.43 121.26 127.32 123.15 127Z" fill="#A2A489"/>
<path d="M118.75 65L154.67 61.63C156.03 61.5 157.41 61.41 158.77 61.24C160.205 61.0073 161.627 60.7002 163.03 60.32L183.88 55.61L200.15 52C202.03 51.58 201.24 48.69 199.35 49.11L164.19 57C162.34 57.42 160.46 57.76 158.63 58.26C157.99 58.43 159.19 58.26 158.43 58.26C157.67 58.26 156.97 58.39 156.25 58.46L135.55 60.4L118.75 62C116.85 62.18 116.83 65.18 118.75 65Z" fill="#A2A489"/>
<path d="M11.75 133L29.3 132L57.3 130.39L63.76 130.02C65.68 129.91 65.7 126.9 63.76 127.02L46.22 128.02L18.22 129.63L11.75 130.01C9.83 130.12 9.82 133.12 11.75 133.01V133Z" fill="#A2A489"/>
<path d="M119.25 94.51C119.25 105.1 116.25 118.77 105.48 123.51C100.18 125.82 93.97 125.2 88.48 123.79C82.5475 122.308 77.0222 119.517 72.31 115.62C68.06 112.02 64.59 107.36 63.52 101.81C63.07 98.9509 63.07 96.0391 63.52 93.18C63.8983 90.2134 64.6301 87.3027 65.7 84.51C67.5527 79.3274 71.0689 74.904 75.7 71.93C80.8 68.93 86.81 68.54 92.56 69.49C103.73 71.36 116.02 78.42 118.69 90.24C118.998 91.6457 119.153 93.0809 119.15 94.52C119.15 94.9178 119.308 95.2994 119.589 95.5807C119.871 95.862 120.252 96.02 120.65 96.02C121.048 96.02 121.429 95.862 121.711 95.5807C121.992 95.2994 122.15 94.9178 122.15 94.52C122.05 80.89 110.27 71.24 98.08 67.68C91.83 65.86 84.7 65.16 78.45 67.36C72.7478 69.466 67.9922 73.5508 65.05 78.87C61.8785 84.6239 60.1975 91.08 60.16 97.65C60.1288 103.823 62.4369 109.78 66.62 114.32C71.1199 119.211 76.7413 122.934 83 125.17C89 127.44 95.83 128.76 102.19 127.6C115.36 125.21 120.94 111.47 122.03 99.54C122.18 97.86 122.25 96.19 122.25 94.54C122.252 94.343 122.215 94.1476 122.142 93.9648C122.068 93.7821 121.959 93.6156 121.821 93.4749C121.683 93.3343 121.519 93.2221 121.338 93.1449C121.157 93.0677 120.962 93.027 120.765 93.025C120.568 93.023 120.373 93.0599 120.19 93.1334C120.007 93.207 119.841 93.3158 119.7 93.4537C119.559 93.5916 119.447 93.7559 119.37 93.9371C119.293 94.1184 119.252 94.313 119.25 94.51Z" fill="#A2A489"/>
<path d="M168.75 48L140.75 51.49L136.75 52L138.2 53.1L132.07 32.1L131.2 29.1L129.75 31L160.4 28.37L164.75 28L163.31 26.9L166.81 47.05L167.31 49.9C167.64 51.79 170.53 50.99 170.2 49.1L166.7 29L166.2 26.16C166.115 25.8413 165.927 25.56 165.664 25.3608C165.401 25.1615 165.08 25.0556 164.75 25.06L134.1 27.63L129.75 28.01C129.52 28.0129 129.294 28.0682 129.088 28.1718C128.883 28.2754 128.704 28.4245 128.565 28.6078C128.426 28.7911 128.331 29.0037 128.287 29.2294C128.243 29.455 128.251 29.6878 128.31 29.91L134.44 50.91L135.31 53.91C135.4 54.2236 135.589 54.5 135.848 54.698C136.107 54.8961 136.424 55.0055 136.75 55.01L164.75 51.51L168.75 51.01C170.64 50.77 170.67 47.77 168.75 48Z" fill="#A2A489"/>
<path d="M21.2 17.11L18.2 5.11001L16.75 7.00001L46.6 3.50001L50.75 3.00001L49.31 1.90001L54.31 19.9C54.4252 20.2727 54.681 20.5859 55.0233 20.7732C55.3656 20.9604 55.7673 21.0069 56.1433 20.9028C56.5193 20.7987 56.84 20.5523 57.0372 20.2157C57.2345 19.8791 57.2929 19.4789 57.2 19.1L52.2 1.10001C52.1123 0.783061 51.9229 0.503717 51.6609 0.304963C51.3989 0.106209 51.0788 -0.0009398 50.75 6.21077e-06L20.91 3.52001L16.75 4.00001C16.5207 4.00478 16.2955 4.06138 16.0912 4.16556C15.8869 4.26973 15.7088 4.41879 15.5703 4.60157C15.4317 4.78434 15.3364 4.99609 15.2913 5.22095C15.2462 5.44582 15.2526 5.67797 15.31 5.90001L18.31 17.9C18.78 19.77 21.67 18.97 21.2 17.1V17.11Z" fill="#A2A489"/>
<path d="M78.05 102.26C79.27 99.83 80.61 97.45 82.05 95.12C84.3666 90.9229 87.2132 87.041 90.52 83.57C91.2057 82.8612 91.9708 82.2338 92.8 81.7C93.1183 81.5048 93.4529 81.3375 93.8 81.2C93.9937 81.1361 94.1906 81.0827 94.39 81.04C94.45 81.04 94.68 80.98 94.39 81.04C94.5165 81.0303 94.6435 81.0303 94.77 81.04C96.7 81.04 96.71 78.04 94.77 78.04C90.47 78.12 87.06 82.66 84.71 85.74C81.8359 89.5853 79.2584 93.6437 77 97.88C76.48 98.88 76 99.78 75.49 100.75C74.63 102.47 77.21 103.99 78.08 102.26H78.05Z" fill="#A2A489"/>
<path d="M88.05 104.26C89.26 102.26 90.53 100.34 91.84 98.42C93.9808 95.0717 96.4136 91.9195 99.11 89C99.43 88.68 99.75 88.36 100.11 88L100.55 87.62C100.77 87.44 100.55 87.62 100.55 87.62C100.639 87.5477 100.733 87.4809 100.83 87.42C101.085 87.2502 101.349 87.0933 101.62 86.95C101.84 86.83 101.53 86.95 101.51 86.95C101.584 86.9173 101.661 86.8906 101.74 86.87C102.13 86.87 101.4 86.87 101.74 86.87C103.67 86.82 103.68 83.82 101.74 83.87C100.27 84.0641 98.9168 84.7727 97.92 85.87C96.5171 87.1874 95.226 88.619 94.06 90.15C91.51 93.38 89.17 96.78 86.94 100.24C86.44 101.03 85.94 101.81 85.45 102.61C84.45 104.26 87.03 105.77 88.04 104.12L88.05 104.26Z" fill="#A2A489"/>
<path d="M91.25 107.51C91.2365 107.759 91.2832 108.008 91.386 108.236C91.4888 108.464 91.6447 108.663 91.8407 108.818C92.0367 108.973 92.267 109.078 92.5122 109.126C92.7575 109.173 93.0105 109.161 93.25 109.09C93.7618 108.906 94.1957 108.554 94.48 108.09C95.16 107.18 95.76 106.19 96.37 105.23C98.29 102.23 100.18 99.12 102.37 96.23L102.56 95.99L102.64 95.89L103.08 95.35C103.34 95.03 103.6 94.72 103.88 94.42C104.16 94.12 104.36 93.92 104.62 93.68C104.72 93.6 105.13 93.29 104.75 93.56C104.87 93.48 104.97 93.4 105.09 93.33C106.74 92.33 105.23 89.73 103.58 90.74C102.594 91.4052 101.723 92.2259 101 93.17C100 94.43 99 95.77 98.06 97.17C96.31 99.73 94.7 102.37 93.06 104.97C92.76 105.42 92.47 105.88 92.16 106.32L91.98 106.56C91.88 106.73 92.26 106.26 92.06 106.47C92.06 106.47 92 106.56 91.95 106.58C92.25 106.39 92.52 106.13 92.95 106.18L93.7 106.39C95.03 107.09 94.36 108.12 94.42 107.55C94.42 107.152 94.262 106.771 93.9807 106.489C93.6994 106.208 93.3178 106.05 92.92 106.05C92.5254 106.06 92.1497 106.221 91.8705 106.501C91.5914 106.78 91.4301 107.155 91.42 107.55L91.25 107.51Z" fill="#A2A489"/>
<path d="M30.75 33L46.28 32L71 30.38L76.75 30C78.67 29.87 78.68 26.87 76.75 27L61.23 28L36.46 29.63L30.75 30C28.84 30.12 28.82 33.12 30.75 33Z" fill="#A2A489"/>
<path d="M134.75 36.51C134.75 36.51 139.75 47.51 166.75 48.51L136.75 51.51L131.75 32.51L134.75 36.51Z" fill="#A2A489" stroke="#A2A489" stroke-miterlimit="10"/>
<path d="M159.75 30.51C159.75 30.51 163.75 39.51 162.75 42.51L159.75 30.51Z" fill="#A2A489"/>
<path d="M159.75 30.51C159.75 30.51 163.75 39.51 162.75 42.51" stroke="#A2A489" stroke-miterlimit="10"/>
<path d="M17.75 6.51001L22.75 5.51001L26.75 18.51H20.75L17.09 6.51001" fill="#A2A489"/>
<path d="M17.75 6.51001L22.75 5.51001L26.75 18.51H20.75L17.09 6.51001" stroke="#A2A489" stroke-miterlimit="10"/>
<path d="M6.75 25.51L16.75 151.51" stroke="#A2A489" stroke-width="13" stroke-miterlimit="10"/>
<path d="M51.75 110.51C54.4599 115.165 57.5789 119.569 61.07 123.67C64.4374 127.66 68.421 131.087 72.87 133.82C77.2848 136.475 82.2477 138.086 87.38 138.53C92.7167 138.812 98.0656 138.297 103.25 137C98.384 139.85 92.8856 141.444 87.25 141.64C81.4575 141.772 75.7475 140.249 70.79 137.25C65.9189 134.291 61.752 130.305 58.58 125.57C55.391 121.016 53.0751 115.909 51.75 110.51Z" fill="#A2A489"/>
<path d="M67.48 63.45C67.48 63.45 26.75 85.51 62.75 126.51L21.75 130.51L14.59 62.78L67.48 63.45Z" fill="#A2A489" stroke="#A2A489" stroke-miterlimit="10"/>
<path d="M121.75 64.51L159.75 60.51L197.75 51.51L205.75 109.51L126.75 123.51C126.75 123.51 154.75 93.51 121.75 64.51Z" fill="#A2A489" stroke="#A2A489" stroke-miterlimit="10"/>
</g>
<defs>
<clipPath id="clip0">
<rect width="216.54" height="155.26" fill="white"/>
</clipPath>
</defs>
</svg>
