<svg width="183" height="250" viewBox="0 0 183 250" fill="none" xmlns="http://www.w3.org/2000/svg">
<path d="M139.346 58.3592C139.21 58.1553 139.023 57.9893 138.802 57.8774C138.581 57.7656 138.335 57.7116 138.086 57.7208C137.838 57.73 137.597 57.8021 137.385 57.93C137.174 58.0579 137 58.2373 136.88 58.4507C132.687 65.9002 130.151 68.0047 128.72 68.3631C128.535 68.4091 128.341 68.4178 128.152 68.3886C127.963 68.3594 127.782 68.2929 127.62 68.1931C127.458 68.0933 127.318 67.9623 127.209 67.8081C127.1 67.6538 127.024 67.4795 126.985 67.2956C118.585 30.0097 97.2944 8.03461 89.9591 1.37804C89.7628 1.19815 89.5188 1.07607 89.2549 1.02579C88.9911 0.975511 88.7182 0.999054 88.4674 1.09373C88.2166 1.18841 87.9981 1.3504 87.8368 1.56115C87.6755 1.77189 87.5781 2.02289 87.5555 2.28541C85.7587 20.509 46.3287 67.2879 44.3374 69.6441C44.2837 69.7078 44.2368 69.7768 44.1974 69.8499C11.636 125.443 45.0375 157.43 46.5932 161.235C48.0556 164.818 89.2513 177.125 94.3152 178.627C94.645 178.719 94.9974 178.695 95.3109 178.559L135.262 161.021C135.524 160.909 135.746 160.723 135.9 160.488C169.099 109.675 145.499 67.7073 139.346 58.3592ZM121.385 162.714C121.333 162.761 121.276 162.802 121.214 162.836C92.5261 178.787 91.3593 174.601 91.3593 174.601C10.2281 142.363 81.8771 67.4938 90.8537 58.443C90.9428 58.3544 91.054 58.29 91.1762 58.2562C91.2984 58.2225 91.4275 58.2205 91.5508 58.2505C91.674 58.2805 91.7872 58.3415 91.8791 58.4274C91.971 58.5133 92.0385 58.6212 92.0749 58.7404C94.7897 67.8446 102.638 80.4333 102.638 80.4333C110.417 92.6332 116.64 112.458 118.973 114.746C120.833 116.568 125.632 107.792 127.53 104.071C127.606 103.958 127.712 103.867 127.836 103.807C127.96 103.747 128.098 103.721 128.236 103.731C128.374 103.742 128.507 103.787 128.621 103.865C128.734 103.942 128.825 104.047 128.883 104.17L129.093 104.795C143.336 139.488 122.723 161.303 121.385 162.714Z" fill="#B59C8B" stroke="#B59C8B" stroke-miterlimit="10"/>
<path d="M178.745 210.782C177.72 208.995 176.091 207.614 174.14 206.878C168.835 204.887 161.079 202.043 151.83 198.688C166.182 193.008 176.131 188.883 177.274 187.945C181.405 184.575 180.059 163.339 168.951 155.295C167.867 154.498 166.616 153.948 165.288 153.685C163.96 153.421 162.589 153.45 161.274 153.77L94.1285 177.407C63.2317 166.961 34.3574 156.706 23.7007 152.931C22.1314 152.373 20.4346 152.256 18.8008 152.591C17.167 152.926 15.661 153.702 14.4519 154.83C10.8504 158.192 6.36987 164.399 5.00083 175.12C4.76903 177.025 5.18155 178.952 6.17504 180.605C7.16854 182.258 8.68808 183.545 10.5003 184.27L41.6849 196.843L8.33008 209.15C6.84683 209.699 5.53819 210.624 4.53685 211.829C3.53551 213.034 2.87709 214.477 2.62834 216.012C1.2593 224.552 1.16595 241.175 19.2669 247.274C21.2311 247.92 23.3637 247.871 25.2953 247.137C34.6686 243.607 66.1098 231.75 97.9945 219.558L158.24 243.874C159.799 244.507 161.508 244.695 163.171 244.415C164.834 244.136 166.382 243.401 167.637 242.295C184.625 227.206 181.677 215.906 178.745 210.782Z" stroke="#B59C8B" stroke-width="3" stroke-miterlimit="10"/>
<path d="M178.402 213.618C182.611 214.381 179.958 225.452 173.44 233.511C166.921 241.571 164.105 245.993 160.924 243.493C157.742 240.992 154.95 238.01 160.146 228.586C163.864 221.906 173.618 212.779 178.402 213.618Z" stroke="#B59C8B" stroke-width="3" stroke-miterlimit="10"/>
<path d="M26.3843 246.154C24.4474 249.882 13.7129 245.963 7.71556 237.507C1.71823 229.051 0.473648 219.207 3.82624 216.92C7.17884 214.632 9.27129 217.164 16.9722 224.743C22.4561 230.134 28.6012 241.899 26.3843 246.154Z" stroke="#B59C8B" stroke-width="3" stroke-miterlimit="10"/>
<path d="M6.69657 182.15L10.6948 183.782L21.5849 188.227L37.6167 194.777L57.2577 202.798L78.6723 211.544L100.383 220.412L120.607 228.685L137.642 235.639L149.948 240.671C151.885 241.434 153.798 242.326 155.766 243.043L156.023 243.149C157.182 243.622 158.582 242.631 158.893 241.548C159.039 240.963 158.952 240.346 158.648 239.823C158.344 239.3 157.847 238.91 157.26 238.735L153.277 237.103L142.387 232.68L126.355 226.131L106.722 218.117L85.2998 209.363L63.5896 200.465L43.3651 192.2L26.3221 185.238L14.0396 180.213C12.1105 179.451 10.1892 178.551 8.22896 177.842L7.97226 177.735C6.80547 177.262 5.40531 178.246 5.10194 179.336C4.95401 179.921 5.04107 180.539 5.34512 181.063C5.64916 181.587 6.14694 181.976 6.73546 182.15H6.69657Z" fill="#B59C8B"/>
<path d="M28.9357 245.437L35.7187 242.867L52.1549 236.653L71.8971 229.181L89.0102 222.707C91.7871 221.662 94.5797 220.633 97.3411 219.558L97.4655 219.512C98.0519 219.335 98.5473 218.945 98.8508 218.422C99.1543 217.9 99.2431 217.283 99.0991 216.699C99.018 216.409 98.8795 216.137 98.6914 215.9C98.5032 215.662 98.2691 215.463 98.0026 215.315C97.736 215.166 97.4421 215.07 97.1377 215.033C96.8334 214.996 96.5245 215.017 96.2287 215.097L89.438 217.667L73.0484 223.874L53.2984 231.354L36.1854 237.82C33.4084 238.872 30.6237 239.901 27.8545 240.976L27.7378 241.022C27.1493 241.196 26.6515 241.585 26.3474 242.109C26.0434 242.633 25.9563 243.251 26.1043 243.836C26.1853 244.126 26.3238 244.397 26.512 244.635C26.7001 244.872 26.9342 245.071 27.2008 245.22C27.4674 245.368 27.7612 245.464 28.0656 245.501C28.37 245.539 28.6789 245.517 28.9746 245.437H28.9357Z" fill="#B59C8B"/>
<path d="M175.33 185.108C175.372 185.24 175.432 185.366 175.509 185.482C175.635 185.675 175.802 185.839 175.999 185.962C176.172 186.064 176.357 186.144 176.551 186.199C176.679 186.236 176.809 186.267 176.94 186.29C177.171 186.33 177.405 186.35 177.64 186.351C177.818 186.353 177.995 186.313 178.154 186.235C178.314 186.156 178.452 186.042 178.558 185.901C178.661 185.792 178.733 185.658 178.768 185.513C178.822 185.315 178.822 185.107 178.768 184.91V184.857C178.738 184.754 178.694 184.657 178.636 184.567C178.453 184.286 178.179 184.073 177.858 183.965H177.741C177.435 183.901 177.12 183.883 176.808 183.911L177.811 185.635C177.843 185.576 177.879 185.52 177.92 185.467L177.733 185.703C177.776 185.654 177.823 185.608 177.873 185.566L177.64 185.741H177.694C177.955 185.587 178.146 185.342 178.231 185.055C178.298 184.801 178.276 184.533 178.169 184.293C178.078 184.063 177.911 183.869 177.694 183.744C177.559 183.667 177.41 183.618 177.255 183.598C177.1 183.578 176.943 183.589 176.792 183.629L176.559 183.683L176.87 183.644C176.769 183.656 176.667 183.656 176.567 183.644L176.878 183.69L177.158 183.805L177.391 183.98L177.694 184.483L177.733 184.781L177.687 185.086C177.687 185.086 177.687 185.047 177.687 185.032L177.562 185.307C177.578 185.273 177.599 185.243 177.624 185.215L177.438 185.444L177.554 185.33L177.321 185.513C177.446 185.421 177.593 185.352 177.726 185.269C178.037 185.09 178.27 184.805 178.379 184.468C178.437 184.251 178.437 184.022 178.379 183.805C178.29 183.505 178.087 183.251 177.811 183.095C177.253 182.849 176.638 182.754 176.03 182.821L176.333 185.07C176.731 184.967 177.109 184.802 177.453 184.582C177.624 184.479 177.768 184.338 177.873 184.171C178.009 183.94 178.059 183.67 178.013 183.408C177.988 183.21 177.908 183.022 177.78 182.867C177.633 182.664 177.419 182.518 177.173 182.455C176.752 182.384 176.324 182.358 175.898 182.379C175.59 182.387 175.297 182.507 175.073 182.714C174.856 182.929 174.733 183.22 174.731 183.522C174.731 183.826 174.854 184.116 175.073 184.331C175.294 184.541 175.589 184.661 175.898 184.666C176.726 184.693 177.554 184.587 178.348 184.354C178.638 184.265 178.886 184.079 179.048 183.827C179.126 183.695 179.177 183.548 179.197 183.397C179.217 183.245 179.206 183.091 179.165 182.943C179.124 182.798 179.055 182.661 178.96 182.542C178.866 182.423 178.749 182.324 178.615 182.249C178.481 182.175 178.334 182.127 178.181 182.109C178.029 182.09 177.874 182.102 177.726 182.142C177.381 182.249 177.027 182.326 176.668 182.371L176.979 182.325C176.621 182.373 176.259 182.391 175.898 182.379V184.666C176.18 184.643 176.463 184.643 176.745 184.666L176.434 184.628H176.559L176.279 182.539C176.133 182.632 175.979 182.714 175.82 182.783L176.1 182.668L175.719 182.798C175.424 182.876 175.172 183.065 175.019 183.324C174.895 183.545 174.846 183.799 174.879 184.049C174.904 184.301 175.02 184.535 175.205 184.712C175.313 184.819 175.441 184.903 175.583 184.959C175.725 185.015 175.877 185.043 176.03 185.04C176.289 185.017 176.549 185.017 176.808 185.04H176.497C176.623 185.057 176.748 185.085 176.87 185.124L176.59 185.009H176.644L176.411 184.826L176.108 184.323L176.061 184.026L176.217 183.446C176.221 183.464 176.221 183.482 176.217 183.5L176.395 183.271L176.349 183.317L176.582 183.134C176.465 183.217 176.333 183.278 176.209 183.355C175.934 183.513 175.706 183.739 175.548 184.01C175.379 184.313 175.335 184.668 175.423 185.002C175.505 185.298 175.704 185.55 175.975 185.703C176.167 185.812 176.384 185.87 176.605 185.871C176.892 185.896 177.181 185.862 177.453 185.772L176.551 183.683C176.252 183.875 176.006 184.137 175.835 184.445C175.733 184.622 175.679 184.821 175.679 185.025C175.679 185.228 175.733 185.427 175.835 185.604C175.938 185.777 176.086 185.92 176.264 186.02C176.441 186.119 176.642 186.17 176.847 186.168C177.048 186.149 177.252 186.149 177.453 186.168L177.142 186.13C177.188 186.135 177.233 186.148 177.274 186.168L176.994 186.046C177.021 186.057 177.044 186.072 177.064 186.092L176.831 185.909V185.947L176.644 185.711L176.528 185.436C176.531 185.451 176.531 185.467 176.528 185.482L177.656 184.033C177.539 184.045 177.422 184.045 177.306 184.033H177.609C177.42 184.01 177.234 183.964 177.057 183.896L177.337 184.01C177.281 183.987 177.228 183.957 177.181 183.919L177.414 184.102L177.352 184.041L177.539 184.27C177.518 184.251 177.502 184.227 177.492 184.201L177.609 184.476C177.519 184.194 177.328 183.953 177.072 183.797C176.799 183.644 176.475 183.6 176.17 183.675C175.878 183.76 175.629 183.947 175.47 184.201C175.392 184.334 175.341 184.48 175.321 184.632C175.301 184.784 175.312 184.938 175.353 185.086L175.33 185.108Z" fill="#B59C8B"/>
<path d="M176.924 184.643C177.21 184.531 177.488 184.401 177.757 184.254C178.083 184.046 178.395 183.817 178.69 183.568L178.449 183.744C178.532 183.681 178.624 183.63 178.721 183.591L178.441 183.705C178.851 183.592 179.231 183.391 179.554 183.118L177.562 182.31C177.559 182.335 177.559 182.361 177.562 182.386V182.081C177.549 182.181 177.523 182.278 177.484 182.371L177.601 182.104C177.562 182.182 177.515 182.256 177.461 182.325C177.383 182.458 177.333 182.604 177.312 182.756C177.292 182.908 177.303 183.062 177.344 183.21C177.434 183.496 177.636 183.737 177.905 183.88C178.174 184.022 178.49 184.056 178.783 183.972L179.056 183.858C179.229 183.757 179.373 183.616 179.476 183.446C179.716 183.099 179.851 182.692 179.865 182.272L179.818 181.967L179.701 181.7C179.574 181.486 179.377 181.319 179.141 181.227C178.929 181.137 178.694 181.112 178.466 181.154C178.239 181.196 178.03 181.304 177.866 181.464L177.796 181.532L178.029 181.357C177.972 181.394 177.912 181.428 177.85 181.456L178.122 181.342C177.855 181.42 177.595 181.52 177.344 181.639C177.104 181.802 176.876 181.98 176.66 182.173L176.893 181.997C176.52 182.257 176.115 182.47 175.688 182.63C175.487 182.743 175.325 182.912 175.223 183.115C175.12 183.318 175.082 183.546 175.112 183.771C175.142 183.995 175.239 184.206 175.391 184.376C175.544 184.547 175.744 184.669 175.968 184.727L176.279 184.765C176.485 184.766 176.687 184.711 176.862 184.605L176.924 184.643Z" fill="#B59C8B"/>
<path d="M177.492 183.355V183.317L177.539 183.622L177.5 183.919L177.383 184.193V184.155L177.197 184.392L177.282 184.3L177.049 184.483C177.624 184.082 178.249 183.755 178.908 183.507L178.628 183.629L179.281 183.362C179.571 183.275 179.82 183.088 179.981 182.836C180.135 182.57 180.177 182.255 180.098 181.959C180.018 181.67 179.826 181.424 179.561 181.273C179.428 181.193 179.278 181.141 179.123 181.121C178.967 181.102 178.809 181.114 178.659 181.159C178.052 181.395 177.438 181.639 176.854 181.921C176.586 182.042 176.327 182.18 176.077 182.333C175.886 182.443 175.708 182.573 175.548 182.722C175.378 182.889 175.256 183.096 175.192 183.323C175.128 183.55 175.124 183.789 175.182 184.018C175.266 184.305 175.458 184.55 175.719 184.704C175.994 184.852 176.316 184.893 176.621 184.819C176.91 184.726 177.152 184.527 177.296 184.265C177.441 184.003 177.478 183.696 177.399 183.408L177.492 183.355Z" fill="#B59C8B"/>
<path d="M9.75357 162.531C12.3698 163.72 15.1342 164.566 17.9756 165.047C18.2744 165.119 18.5898 165.076 18.8573 164.927C19.1249 164.778 19.3242 164.535 19.4146 164.247C19.4938 163.953 19.4526 163.642 19.2999 163.378C19.1473 163.114 18.8952 162.92 18.5979 162.836C15.9505 162.404 13.3721 161.635 10.9281 160.549C10.6573 160.421 10.3477 160.397 10.0599 160.482C9.77213 160.567 9.52696 160.753 9.37242 161.006C9.21686 161.268 9.17373 161.58 9.25249 161.873C9.33125 162.166 9.52546 162.416 9.79246 162.569L9.75357 162.531Z" fill="#B59C8B"/>
<path d="M7.59887 168.12C15.5707 169.94 23.434 172.19 31.1526 174.861C32.5761 175.356 33.1828 173.145 31.7749 172.657C24.0687 169.989 16.2185 167.739 8.26006 165.916C6.79767 165.581 6.17538 167.792 7.63777 168.12H7.59887Z" fill="#B59C8B"/>
<path d="M74.713 190.743C78.8961 191.797 82.88 193.502 86.5132 195.791C87.7811 196.553 88.9557 194.609 87.6956 193.816C83.8892 191.422 79.7163 189.641 75.3353 188.54C73.8807 188.174 73.2584 190.377 74.713 190.743Z" fill="#B59C8B"/>
<path d="M86.0854 186.733L116.827 196.294C118.266 196.736 118.88 194.533 117.449 194.091L86.6999 184.529C85.2686 184.079 84.6541 186.29 86.0854 186.733Z" fill="#B59C8B"/>
<path d="M166.198 217.507C161.467 216.554 156.837 215.173 152.367 213.382C152.074 213.301 151.761 213.335 151.493 213.478C151.226 213.62 151.026 213.859 150.936 214.144C150.859 214.432 150.897 214.738 151.041 215C151.185 215.262 151.426 215.46 151.714 215.555C156.193 217.361 160.833 218.754 165.575 219.718C167.038 220.015 167.668 217.812 166.198 217.514V217.507Z" fill="#B59C8B"/>
<path d="M158.987 226.115C151.469 223.831 144.153 220.949 137.113 217.499C135.775 216.843 134.593 218.811 135.939 219.474C143.156 223.016 150.656 225.974 158.365 228.319C159.804 228.761 160.418 226.55 158.987 226.115Z" fill="#B59C8B"/>
<path d="M25.4431 236.012L40.7515 230.5C42.1438 229.996 41.5293 227.785 40.1292 228.296L24.8286 233.809C23.4284 234.312 24.0507 236.523 25.4431 236.012Z" fill="#B59C8B"/>
<path d="M108.48 182.638C115.076 180.345 121.766 178.335 128.549 176.607C128.833 176.515 129.07 176.32 129.212 176.061C129.353 175.803 129.388 175.501 129.309 175.219C129.231 174.936 129.044 174.694 128.788 174.542C128.532 174.39 128.227 174.34 127.934 174.403C121.152 176.126 114.459 178.137 107.858 180.434C106.458 180.922 107.08 183.134 108.48 182.638Z" fill="#B59C8B"/>
<path d="M154.537 173.907C161.217 170.999 168.07 168.489 175.057 166.389C176.489 165.955 175.874 163.751 174.435 164.186C167.255 166.346 160.215 168.934 153.355 171.933C151.986 172.527 153.168 174.502 154.53 173.907H154.537Z" fill="#B59C8B"/>
<path d="M174.552 166.092C174.861 166.092 175.158 165.971 175.377 165.757C175.596 165.542 175.719 165.251 175.719 164.948C175.719 164.645 175.596 164.354 175.377 164.139C175.158 163.925 174.861 163.804 174.552 163.804C174.242 163.804 173.946 163.925 173.727 164.139C173.508 164.354 173.385 164.645 173.385 164.948C173.385 165.251 173.508 165.542 173.727 165.757C173.946 165.971 174.242 166.092 174.552 166.092Z" fill="#B59C8B"/>
<path d="M174.28 167.106C174.589 167.106 174.886 166.985 175.105 166.771C175.323 166.556 175.446 166.266 175.446 165.962C175.446 165.659 175.323 165.368 175.105 165.153C174.886 164.939 174.589 164.818 174.28 164.818C173.97 164.818 173.673 164.939 173.455 165.153C173.236 165.368 173.113 165.659 173.113 165.962C173.113 166.266 173.236 166.556 173.455 166.771C173.673 166.985 173.97 167.106 174.28 167.106Z" fill="#B59C8B"/>
<path d="M175.594 165.749C175.904 165.749 176.2 165.628 176.419 165.414C176.638 165.199 176.761 164.908 176.761 164.605C176.761 164.302 176.638 164.011 176.419 163.796C176.2 163.582 175.904 163.461 175.594 163.461C175.285 163.461 174.988 163.582 174.769 163.796C174.55 164.011 174.427 164.302 174.427 164.605C174.427 164.908 174.55 165.199 174.769 165.414C174.988 165.628 175.285 165.749 175.594 165.749Z" fill="#B59C8B"/>
<path d="M175.244 166.427C175.554 166.427 175.85 166.307 176.069 166.092C176.288 165.878 176.411 165.587 176.411 165.284C176.411 164.98 176.288 164.689 176.069 164.475C175.85 164.26 175.554 164.14 175.244 164.14C174.935 164.14 174.638 164.26 174.419 164.475C174.2 164.689 174.077 164.98 174.077 165.284C174.077 165.587 174.2 165.878 174.419 166.092C174.638 166.307 174.935 166.427 175.244 166.427Z" fill="#B59C8B"/>
<path d="M151.792 199.047L174.777 188.067L178.068 186.489C178.601 186.182 178.987 185.68 179.143 185.094C179.299 184.508 179.212 183.885 178.9 183.362C178.58 182.848 178.069 182.475 177.475 182.321C176.88 182.168 176.248 182.246 175.711 182.539L152.725 193.526L149.435 195.097C148.944 195.421 148.598 195.916 148.465 196.48C148.332 197.045 148.423 197.639 148.72 198.14C149.016 198.642 149.496 199.014 150.062 199.183C150.628 199.351 151.237 199.302 151.768 199.047H151.792Z" fill="#B59C8B"/>
<path d="M150.049 197.857L89.3758 175.745" stroke="#B59C8B" stroke-width="3" stroke-miterlimit="10"/>
</svg>
