<svg width="180" height="189" viewBox="0 0 180 189" fill="none" xmlns="http://www.w3.org/2000/svg">
<g clip-path="url(#clip0)">
<path d="M18.8671 104.67C17.8311 103.978 16.6525 103.53 15.4195 103.36C12.3498 102.924 9.22602 103.606 6.61444 105.282C4.29519 106.773 2.23412 108.634 0.512542 110.791C-0.268502 111.715 -0.170871 113.631 1.31799 113.852C7.92635 114.849 15.8405 113.276 19.5566 107.192C20.777 105.172 17.6284 103.323 16.3958 105.356C15.5894 106.695 14.4497 107.8 13.0886 108.563C11.7772 109.312 10.3466 109.828 8.85994 110.087C8.48163 110.167 8.09721 110.228 7.70668 110.289C8.03619 110.24 7.70668 110.289 7.55414 110.289L7.07819 110.338C6.40698 110.399 5.72357 110.43 5.04626 110.436C4.52759 110.436 4.01503 110.436 3.49637 110.436L2.83737 110.387H2.52007C2.2882 110.387 1.83665 110.295 2.2943 110.387L3.09975 113.448C4.45827 111.751 6.04103 110.247 7.80431 108.979C8.4946 108.517 9.21872 108.108 9.97049 107.755C10.0132 107.755 10.3488 107.59 10.1535 107.669C9.95829 107.749 10.2329 107.669 10.2451 107.639L10.7027 107.467C11.0432 107.35 11.3894 107.25 11.74 107.168L12.1672 107.07C12.2404 107.07 12.7469 106.972 12.4723 107.015C12.1977 107.057 12.6187 107.015 12.6919 107.015H13.1374C13.3998 107.015 13.6621 107.015 13.9245 107.015H14.2662C14.3395 107.015 14.8764 107.07 14.5103 107.015C14.1442 106.959 14.553 107.015 14.6262 107.015L14.9679 107.082C15.1632 107.125 15.3524 107.174 15.5476 107.229C15.7429 107.284 15.8893 107.339 16.0541 107.394C16.1273 107.394 16.1944 107.455 16.2677 107.474C16.53 107.553 15.81 107.253 16.1456 107.425C16.4632 107.564 16.7675 107.732 17.0548 107.927C17.474 108.171 17.973 108.239 18.442 108.115C18.9111 107.991 19.312 107.686 19.5566 107.265C19.6847 107.051 19.7686 106.812 19.8032 106.564C19.8379 106.316 19.8226 106.064 19.7583 105.822C19.6941 105.58 19.5821 105.353 19.429 105.155C19.2759 104.958 19.0848 104.793 18.8671 104.67Z" fill="#8C9DB0"/>
<path d="M108.193 59.7538C106.801 59.2312 105.301 59.067 103.83 59.2764C103.258 59.4017 102.737 59.6962 102.333 60.1217C101.93 60.5472 101.662 61.0843 101.566 61.6636C100.877 64.6506 102.933 67.0746 105.709 67.8642C108.04 68.4474 110.473 68.4809 112.818 67.9621C114.239 67.757 115.55 67.0828 116.546 66.0463C117.075 65.4467 117.375 64.6793 117.394 63.8794C117.398 63.8264 117.398 63.7732 117.394 63.7202C117.394 62.9796 117.394 64.0018 117.394 63.5244C117.383 62.6991 117.205 61.8848 116.87 61.131C116.009 59.2947 113.916 59.4233 112.177 59.4539C110.762 59.4845 109.346 59.5824 107.943 59.7232C106.783 59.8395 106.771 61.6758 107.943 61.5595C108.888 61.4616 109.834 61.3942 110.786 61.3453C112.097 61.2274 113.416 61.252 114.722 61.4187C114.838 61.4187 114.96 61.5289 114.801 61.4187C114.898 61.4701 114.985 61.5386 115.057 61.6207C115.262 61.9232 115.396 62.2686 115.448 62.6307C115.534 63.0605 115.585 63.4965 115.6 63.9345C115.564 63.4387 115.57 63.861 115.6 63.9835C115.6 64.2099 115.68 63.7815 115.6 64.063C115.558 64.1977 115.527 64.3324 115.478 64.4609C115.576 64.2161 115.387 64.6078 115.332 64.6996C115.277 64.7914 115.173 64.8955 115.289 64.7608C115.21 64.8526 115.137 64.9322 115.051 65.0179C114.708 65.3293 114.311 65.5761 113.88 65.7463C112.108 66.3732 110.221 66.6031 108.351 66.4196C106.924 66.3401 105.3 66.0401 104.22 65.0179C103.919 64.7332 103.68 64.3885 103.52 64.0059C103.359 63.6232 103.28 63.2111 103.287 62.796V62.4287C103.287 62.3859 103.287 62.2512 103.287 62.4287C103.287 62.3675 103.287 62.3002 103.317 62.239C103.362 62.0317 103.419 61.8273 103.488 61.6268C103.543 61.4738 103.488 61.6268 103.488 61.6636C103.511 61.6055 103.539 61.5501 103.574 61.4983L103.69 61.2963C103.726 61.2412 103.568 61.3759 103.726 61.2596C103.799 61.1968 103.879 61.1434 103.964 61.1004C104.641 60.7883 105.612 60.978 106.313 61.1004C106.795 61.1897 107.27 61.3104 107.735 61.4616C108.827 61.8962 109.309 60.1211 108.193 59.7538Z" fill="#8C9DB0"/>
<path d="M101.725 53.749C101.542 53.4919 101.536 53.4491 101.676 53.1369C101.9 52.6931 102.211 52.2995 102.591 51.98C103.723 50.9976 105.056 50.2767 106.496 49.8683C108.146 49.3256 109.907 49.2181 111.61 49.5561C113.49 50.0454 115.23 50.9723 116.687 52.2616C117.069 52.5761 117.399 52.9502 117.663 53.3695C117.809 53.6083 117.663 53.3695 117.785 53.6572C117.805 53.7128 117.819 53.7702 117.828 53.8286C117.754 53.4613 117.828 53.8286 117.828 53.8286C117.828 53.8286 117.901 53.6389 117.828 53.8286C117.754 54.0184 117.901 53.7429 117.864 53.749C117.828 53.7552 118.34 53.749 117.864 53.6878C117.741 53.7674 117.625 53.8575 117.517 53.9572C117.192 54.1858 116.852 54.3904 116.497 54.5693C113.733 55.9649 110.274 55.7935 107.296 55.3956C105.221 55.1134 103.177 54.6317 101.194 53.9572C101.058 53.9207 100.915 53.9159 100.777 53.9434C100.639 53.9708 100.509 54.0296 100.397 54.1153C100.285 54.201 100.194 54.3113 100.131 54.4378C100.068 54.5642 100.035 54.7034 100.035 54.8447C100.16 56.0563 100.577 57.2192 101.25 58.2333C101.923 59.2473 102.831 60.0821 103.897 60.6658C105.053 61.324 106.329 61.7405 107.65 61.89C110.422 62.1911 113.225 61.7409 115.765 60.5863C116.802 60.1091 117.682 59.3445 118.3 58.3825C118.919 57.4206 119.25 56.3015 119.256 55.1569C119.256 53.9755 117.425 53.9755 117.425 55.1569C117.382 58.7438 113.532 59.7966 110.585 60.0537C109.631 60.1027 108.676 60.1027 107.723 60.0537H107.631C107.949 60.0537 107.589 60.0537 107.418 60.017C106.813 59.9017 106.22 59.7274 105.648 59.4967C104.658 59.1397 103.783 58.5194 103.116 57.7022C102.45 56.885 102.018 55.9016 101.865 54.8569L100.681 55.7017C102.723 56.3988 104.828 56.8909 106.966 57.1707C110.573 57.6788 114.691 57.7828 117.95 55.8486C118.761 55.365 119.64 54.8447 119.658 53.8164C119.616 53.3067 119.472 52.8107 119.234 52.3584C118.996 51.9061 118.669 51.5068 118.273 51.1843C116.638 49.6326 114.66 48.4915 112.501 47.8545C110.493 47.3468 108.387 47.3849 106.399 47.9646C104.437 48.4563 102.629 49.4326 101.139 50.8048C100.157 51.7719 99.2169 53.3573 100.144 54.6794C100.81 55.6466 102.402 54.7284 101.725 53.7552V53.749Z" fill="#8C9DB0"/>
<path d="M153.817 64.0079C153.817 63.7692 153.817 63.5366 153.817 63.304C153.817 63.0714 153.853 62.7531 153.878 62.4838C153.878 62.4042 153.951 61.9329 153.878 62.4103C153.908 62.239 153.933 62.0676 153.963 61.8901C154.024 61.5534 154.097 61.2167 154.189 60.8923C154.232 60.7332 154.28 60.5801 154.329 60.4271L154.439 60.1272C154.366 60.2986 154.36 60.3231 154.439 60.2006C154.518 60.0782 154.598 59.8823 154.689 59.7232C154.781 59.5641 155.013 59.2886 154.744 59.6008C154.842 59.4906 154.952 59.3927 155.043 59.2825C155.123 59.2335 155.202 59.1845 155.287 59.1417C155.564 58.9802 155.793 58.7488 155.953 58.4706C156.112 58.1925 156.196 57.8772 156.196 57.5563L155.989 41.7334L155.598 16.7656L155.525 11.0608C155.526 10.6582 155.396 10.2664 155.153 9.94563C154.911 9.6249 154.57 9.39301 154.183 9.28565L143.627 7.72478L124.894 4.95194L118.499 4.00318C117.449 3.85015 116.394 3.56858 115.405 4.04603C112.141 5.63138 108.925 7.34528 105.697 8.99796C99.7254 12.083 93.7822 15.2272 87.8674 18.4305C82.3757 21.4176 76.9145 24.423 71.6729 27.8019C69.9604 28.8354 68.3413 30.0171 66.8341 31.3337C66.2873 31.8777 65.819 32.4958 65.4429 33.17C64.3986 34.8629 63.551 36.6702 62.9167 38.5566C62.1357 40.8887 61.5682 43.784 62.2028 46.2201C62.099 45.8223 62.2028 45.9631 62.2028 46.165C62.2028 46.367 62.2028 46.5752 62.2028 46.7772L62.2943 52.4575L62.6055 71.2063C62.6665 75.1972 62.6055 79.2188 62.8008 83.2036C62.9341 84.0739 63.1952 84.9197 63.5757 85.7132C63.7163 86.1755 64.0279 86.5663 64.4466 86.8053C64.8653 87.0443 65.3593 87.1135 65.8273 86.9987C66.0594 86.9349 66.2766 86.8259 66.4667 86.6778C66.6567 86.5298 66.8158 86.3456 66.9348 86.1358C67.0538 85.926 67.1304 85.6948 67.1603 85.4553C67.1901 85.2158 67.1726 84.9727 67.1087 84.74L66.6999 83.6321C66.6323 83.4116 66.5529 83.195 66.4619 82.9832C66.3033 82.6343 66.5168 82.9832 66.4619 83.2771C66.4772 83.0897 66.4772 82.9013 66.4619 82.7139L66.407 79.4453L66.2117 67.4296C66.0958 60.3537 66.1141 53.2594 65.8639 46.1834C65.8639 45.5713 65.7053 45.0449 65.6809 44.4879C65.6116 42.8342 65.8666 41.1829 66.4314 39.6278C66.8532 38.3509 67.4031 37.1204 68.0728 35.9551C68.4328 35.343 68.8722 34.7309 69.2383 34.076C69.3664 33.8495 68.8416 34.4555 69.043 34.333C69.1202 34.2657 69.1916 34.192 69.2566 34.1127C69.4274 33.9494 69.6044 33.7903 69.7874 33.6352C69.9735 33.4514 70.178 33.2873 70.3976 33.1456C69.8302 33.4638 70.3122 33.2129 70.4648 33.0966L70.8675 32.7967C72.1672 31.854 73.5218 30.9603 74.8825 30.134C82.8943 25.1392 91.2783 20.7198 99.6257 16.3249C105.423 13.2521 111.266 10.2385 117.157 7.28407L117.443 7.13716L116.034 7.32079L128.634 9.15711L148.685 12.1258L153.255 12.7991L151.913 11.0302L152.12 26.847L152.45 51.8393L152.523 57.5502L153.432 55.9649C150.76 57.4033 150.137 61.2106 150.186 63.9773C150.223 66.3339 153.884 66.3462 153.847 63.9773L153.817 64.0079Z" fill="#8C9DB0"/>
<path d="M41.9811 125.035C41.9139 124.704 41.859 124.362 41.8102 124.031C41.8102 123.86 41.7553 123.688 41.7309 123.517C41.6821 123.156 41.7309 123.45 41.7309 123.658C41.7309 123.529 41.6943 123.382 41.6821 123.254C41.6149 122.715 41.5539 122.176 41.5051 121.638C41.2326 118.491 41.2285 115.328 41.4929 112.181C41.5295 111.697 41.5722 111.207 41.621 110.724C41.621 110.504 41.6699 110.277 41.7004 110.057C41.7004 109.934 41.8163 109.12 41.7553 109.561C41.9017 108.52 42.0726 107.48 42.2801 106.451C42.7165 104.283 43.3079 102.15 44.0496 100.067C44.2327 99.5468 44.434 99.0265 44.6598 98.5124C44.6598 98.5491 44.8673 98.0104 44.7696 98.243C44.672 98.4756 44.9039 97.937 44.8856 97.9676L45.2517 97.1535C45.7642 96.0456 46.3195 94.9683 46.9358 93.9154C47.5655 92.8251 48.2519 91.7688 48.9921 90.7508C49.401 90.1816 49.5352 90.0102 50.0112 89.4287C50.4871 88.8472 50.8593 88.4187 51.3048 87.929C53.1662 85.9223 55.234 84.1188 57.4738 82.5486C58.4806 81.8325 58.5599 81.1285 58.5843 80.1002L58.7613 73.5262L59.3715 50.7436C59.5118 45.5713 59.8047 40.3378 59.7864 35.19C59.7864 35.1043 59.7864 35.0186 59.7864 34.939L59.5362 35.8633L64.4178 29.1301L63.7587 29.7912C66.9643 27.8161 70.1718 25.8492 73.3814 23.8905C79.7844 19.9608 86.2097 16.078 92.6574 12.2421C97.4779 9.38358 102.28 6.34753 107.302 3.90523L107.741 3.69711C108.223 3.47063 107.326 3.78281 107.741 3.69711C107.985 3.64814 107.131 3.69711 107.406 3.73384C107.501 3.73995 107.597 3.73995 107.692 3.73384C108.724 3.73384 109.755 3.77669 110.786 3.81953C115.326 3.97868 119.854 4.34595 124.363 4.89684C130.88 5.63439 137.347 6.76062 143.73 8.26955C144.603 8.47766 145.482 8.69802 146.348 8.9245L147.52 9.23055C148.037 9.43749 148.575 9.58732 149.124 9.67739C149.527 9.67739 149.008 9.56721 149.179 9.67739L149.338 9.76309C149.588 9.89775 149.832 10.0508 150.082 10.1916C152.328 11.4729 154.577 12.744 156.831 14.005L157.844 14.5681C158.174 14.805 158.525 15.0099 158.893 15.1802C158.955 15.1435 158.411 14.7762 158.564 14.9293C158.717 15.0823 158.296 14.4273 158.387 14.6905C158.424 14.7826 158.473 14.8691 158.533 14.9476C158.717 15.2353 158.448 14.7395 158.448 14.7456C158.448 14.7518 158.515 14.9109 158.546 14.9966C158.619 15.2292 158.698 15.4618 158.759 15.7005C158.947 16.4119 159.096 17.1333 159.205 17.8612C159.247 18.1061 159.284 18.3509 159.321 18.5958C159.369 18.963 159.321 18.7304 159.321 18.6509C159.321 18.7794 159.351 18.908 159.369 19.0365C159.461 19.7771 159.534 20.5117 159.601 21.2523C159.687 22.1766 159.79 23.1192 159.809 24.0496C159.809 24.4842 159.809 24.925 159.809 25.3595L159.553 42.676L159.26 61.8227C159.199 65.7769 159.437 69.7005 159.748 73.6486C159.876 75.3197 160.004 77.0029 160.291 78.6618C160.516 79.7048 161.055 80.6534 161.835 81.3795C164.166 83.9442 166.716 86.3192 169.242 88.7248L171.036 90.4203C172.757 92.0302 175.35 89.4409 173.623 87.825C170.713 85.0889 167.79 82.3466 165.038 79.4514C164.739 79.1392 164.428 78.8393 164.166 78.5087C164.062 78.3863 163.964 78.2578 163.854 78.1415C163.653 77.9211 164.135 78.5455 163.982 78.3129C163.944 78.2643 163.91 78.2132 163.879 78.1598C163.763 77.8966 164.013 78.7719 163.958 78.3373C163.958 78.2149 163.891 78.0925 163.867 77.9701C163.842 77.8476 163.812 77.6395 163.781 77.4743C163.751 77.309 163.781 77.2845 163.738 77.1866C163.842 77.7987 163.738 77.2662 163.738 77.1315C163.446 74.7259 163.299 72.2959 163.128 69.878C162.994 67.7173 162.848 65.5933 162.878 63.402L163.037 52.6962L163.427 26.2349C163.522 22.6023 163.199 18.9709 162.463 15.4128C162.231 14.3478 161.938 13.0379 161.127 12.2482C160.848 12.0008 160.536 11.7947 160.199 11.6361L156.996 9.84266L152.584 7.34527C151.852 6.85243 151.069 6.44189 150.247 6.12105C147.867 5.36816 145.402 4.82339 142.968 4.28474C138.416 3.2564 133.815 2.44842 129.196 1.79958C122.776 0.890118 116.313 0.320072 109.834 0.0918083C108.852 0.0918083 107.656 -0.134671 106.692 0.15914C105.55 0.588759 104.453 1.12787 103.415 1.76898C99.8088 3.70936 96.2819 5.79664 92.7611 7.89004C84.255 12.9154 75.8161 18.0571 67.3894 23.1927C65.5588 24.3128 63.6672 25.3779 61.8977 26.5776C61.4503 26.9311 61.07 27.3623 60.7749 27.8508L58.8528 30.5012L56.8941 33.2006C56.4415 33.6745 56.1527 34.2818 56.0703 34.9329C55.93 37.0202 55.9605 39.1381 55.9056 41.2253L55.5456 54.5999L54.9171 79.3902L54.8805 80.8409L55.7897 79.2555C47.8881 84.6617 42.1507 92.7006 39.5952 101.946C37.8209 108.38 37.2438 115.086 37.8928 121.73C38.0136 123.168 38.2173 124.599 38.503 126.014C38.5584 126.256 38.6619 126.483 38.8073 126.683C38.9526 126.883 39.1369 127.052 39.3489 127.179C39.5609 127.306 39.7963 127.388 40.0409 127.422C40.2855 127.455 40.5343 127.438 40.7723 127.373C41.0104 127.307 41.2327 127.194 41.4259 127.039C41.6192 126.885 41.7794 126.694 41.8968 126.476C42.0143 126.258 42.0867 126.019 42.1095 125.772C42.1324 125.526 42.1053 125.277 42.0299 125.041L41.9811 125.035Z" fill="#8C9DB0"/>
<path d="M47.4667 165.385C49.4997 167.796 51.7688 169.996 54.2398 171.953C60.3181 176.989 67.1671 181.007 74.5225 183.852C79.1738 185.655 84.0063 186.945 88.9352 187.702C91.7866 188.146 94.6615 188.422 97.545 188.529C98.0698 188.529 98.5884 188.529 99.1071 188.596C102.007 188.875 104.919 189.008 107.833 188.994C113.709 189.003 119.578 188.563 125.388 187.678C132.509 186.643 139.477 184.735 146.134 181.998C153.618 178.958 160.454 174.509 166.271 168.892C169.348 165.837 172.057 162.431 174.344 158.744C174.937 157.789 175.501 156.815 176.034 155.824C176.365 155.275 176.644 154.698 176.87 154.098C177.01 153.626 177.102 153.137 177.205 152.659C178.681 145.798 179.573 138.824 179.872 131.811C180.421 120.309 179.494 108.612 176.455 97.484C175.637 94.4717 174.648 91.5084 173.495 88.6085C173.354 88.1471 173.042 87.7572 172.623 87.5184C172.205 87.2796 171.712 87.2097 171.244 87.3231C170.371 87.5679 169.602 88.6575 169.968 89.5817C174.331 100.6 176.205 112.407 176.345 124.215C176.402 129.075 176.184 133.935 175.692 138.771C175.594 139.774 175.479 140.778 175.356 141.776C175.356 142.002 175.302 142.223 175.271 142.443C175.271 142.541 175.173 143.172 175.228 142.768C175.167 143.233 175.1 143.704 175.033 144.169C174.813 145.683 174.563 147.191 174.283 148.693C174.095 149.713 173.892 150.733 173.672 151.753C173.528 152.201 173.422 152.659 173.355 153.124V153.192C173.459 152.727 173.453 152.947 173.355 153.106C173.257 153.265 173.202 153.4 173.123 153.541C172.989 153.804 172.849 154.061 172.708 154.318C172.183 155.273 171.632 156.214 171.055 157.14C170.477 158.066 169.867 158.976 169.224 159.87C168.547 160.813 168.211 161.247 167.497 162.122C164.944 165.249 162.048 168.076 158.863 170.551L158.552 170.79L157.942 171.249C157.551 171.537 157.154 171.818 156.758 172.094C155.944 172.661 155.131 173.208 154.317 173.734C152.69 174.758 151.012 175.703 149.283 176.568C148.447 176.997 147.605 177.401 146.751 177.792C146.354 177.97 145.951 178.153 145.53 178.325L145.219 178.46C144.969 178.57 144.713 178.674 144.463 178.772C142.766 179.461 141.05 180.092 139.313 180.663C135.911 181.766 132.447 182.665 128.939 183.356C127.312 183.679 125.685 183.962 124.058 184.207L122.837 184.372C122.569 184.409 123.173 184.33 122.905 184.372L122.63 184.409L122.02 184.489C121.226 184.587 120.439 184.672 119.646 184.752C116.839 185.042 114.026 185.221 111.207 185.291C107.544 185.405 103.878 185.319 100.224 185.034C99.2474 184.954 98.3077 184.899 97.3314 184.862C92.1829 184.661 87.0745 183.866 82.1072 182.493C74.148 180.297 66.653 176.667 59.9878 171.781C59.6583 171.543 59.3288 171.304 59.0054 171.059L58.5599 170.723L58.3403 170.551C58.5233 170.692 58.505 170.68 58.3403 170.551C57.7301 170.086 57.1626 169.615 56.589 169.131C55.6249 168.329 54.6852 167.491 53.77 166.634C52.6289 165.562 51.5245 164.448 50.4993 163.273C50.3651 163.114 50.2247 162.961 50.0966 162.802C49.7534 162.458 49.2881 162.265 48.803 162.265C48.3179 162.265 47.8526 162.458 47.5094 162.802C47.1767 163.151 46.991 163.616 46.991 164.1C46.991 164.583 47.1767 165.048 47.5094 165.397L47.4667 165.385Z" fill="#8C9DB0"/>
<path d="M159.717 77.3212C159.345 77.26 158.973 77.2111 158.595 77.1682L160.175 79.9288C160.513 79.1695 160.741 78.3656 160.852 77.5416C161.147 75.5949 160.986 73.6063 160.382 71.7327C159.415 68.9699 157.755 66.5035 155.562 64.5711C152.151 61.4554 147.959 59.362 143.694 57.7032C136.902 55.0712 129.659 53.6021 122.49 52.5554C121.306 52.384 120.12 52.2228 118.932 52.0719C117.95 51.9433 117.102 53.0023 117.102 53.9082C117.114 54.3913 117.311 54.8512 117.651 55.1929C117.992 55.5347 118.451 55.7321 118.932 55.7445C126.254 56.6749 133.577 58.0338 140.508 60.4394C141.167 60.6658 141.826 60.9046 142.479 61.1555C142.797 61.2698 143.108 61.3922 143.413 61.5228L143.871 61.7064L144.164 61.8288C145.25 62.3063 146.324 62.8082 147.367 63.3591C148.288 63.8488 149.198 64.3752 150.058 64.9383C150.455 65.1954 150.845 65.4647 151.23 65.7402L151.681 66.0768C151.773 66.1442 152.078 66.3951 151.681 66.0768L152.023 66.3462C152.633 66.8471 153.215 67.3804 153.768 67.9438C154.024 68.207 154.274 68.4763 154.512 68.7456L154.848 69.1496C154.904 69.2121 154.957 69.2775 155.007 69.3455C155.299 69.7005 154.805 69.0578 155.007 69.3026C155.367 69.8168 155.727 70.3187 156.038 70.8635C156.178 71.1145 156.312 71.3654 156.441 71.6225L156.587 71.9347C156.587 71.9959 156.636 72.0632 156.666 72.1245C156.794 72.3815 156.471 71.6103 156.611 71.9898C156.782 72.4611 156.953 72.9263 157.081 73.4099C157.136 73.6364 157.191 73.8628 157.234 74.0893C157.234 74.1934 157.276 74.3036 157.295 74.4137C157.291 74.4667 157.291 74.5199 157.295 74.5729C157.362 74.9401 157.246 74.0771 157.295 74.3525C157.373 75.0967 157.387 75.8462 157.338 76.5928C157.338 76.6846 157.338 76.7765 157.338 76.8683C157.295 77.309 157.423 76.3786 157.338 76.6785L157.264 77.1192C157.215 77.3702 157.154 77.6212 157.087 77.866C157.02 78.1109 156.66 78.9433 157.045 78.0802C156.892 78.361 156.814 78.6762 156.818 78.9958C156.822 79.3154 156.907 79.6288 157.065 79.9061C157.223 80.1834 157.45 80.4155 157.723 80.5802C157.996 80.7448 158.307 80.8367 158.625 80.847H158.778C159.246 80.9618 159.74 80.8926 160.158 80.6536C160.577 80.4146 160.889 80.0238 161.029 79.5615C161.093 79.3288 161.111 79.0858 161.081 78.8463C161.051 78.6068 160.974 78.3755 160.855 78.1657C160.736 77.9559 160.577 77.7718 160.387 77.6237C160.197 77.4756 159.98 77.3666 159.748 77.3029L159.717 77.3212Z" fill="#8C9DB0"/>
<path d="M100.114 52.8492C90.3509 53.9816 80.6549 56.1118 71.5692 59.9803C68.8614 61.1257 66.2337 62.4529 63.7038 63.9528C63.4274 64.1144 63.198 64.3457 63.0385 64.6239C62.879 64.9021 62.7949 65.2173 62.7947 65.5382L63.4048 84.1217C63.3926 84.2438 63.3926 84.3669 63.4048 84.489C63.4476 84.642 63.6245 83.8769 63.4415 84.0973C63.3538 84.2483 63.288 84.4111 63.2462 84.5808L62.2394 87.0843C62.1318 87.4749 62.1561 87.8903 62.3084 88.2656C62.4607 88.6409 62.7325 88.9552 63.0814 89.1594C65.1744 90.1204 67.3528 90.9345 69.5129 91.7057C74.6597 93.5382 79.9181 95.0389 85.2558 96.1986C92.6105 97.8318 100.107 98.74 107.638 98.9102C116.086 99.1315 124.52 98.075 132.655 95.7762C141.633 93.1742 149.975 88.7327 157.154 82.7323C158.088 81.9488 158.985 81.1347 159.894 80.2838C161.621 78.6679 159.028 76.0787 157.307 77.6885C150.713 83.828 142.895 88.4931 134.37 91.3752C126.561 93.9603 118.387 95.2626 110.164 95.2315C106.32 95.2562 102.478 95.0661 98.6555 94.6622C97.7341 94.5643 96.825 94.4541 95.8975 94.3378L95.5558 94.2949C95.2568 94.2521 95.8304 94.3317 95.5558 94.2949L94.9456 94.2092L93.5238 94.0011C91.8031 93.7318 90.0946 93.4319 88.386 93.0891C82.813 91.9777 77.3194 90.4973 71.9414 88.6574C70.2695 88.0821 68.6037 87.47 66.9562 86.8211L66.1019 86.4783C65.8517 86.3743 65.1012 86.0315 65.8273 86.362C65.571 86.2457 65.3086 86.1172 65.0463 86.0254L64.9425 85.9825L65.7846 88.0515L66.6877 85.7867C66.9095 85.3487 67.0383 84.8693 67.066 84.3788C67.066 83.2281 66.9928 82.0712 66.9562 80.9204L66.5656 68.7579L66.4619 65.5321L65.5527 67.1174C73.955 62.1349 83.4435 59.2702 93.0113 57.5625C95.452 57.1279 97.7464 56.7912 100.126 56.5158C100.608 56.5034 101.066 56.3059 101.407 55.9642C101.747 55.6225 101.944 55.1626 101.957 54.6794C101.957 53.7735 101.115 52.7268 100.126 52.8431L100.114 52.8492Z" fill="#8C9DB0"/>
<path d="M53.8798 129.014C53.4221 127.685 52.2201 126.724 51.0973 125.953C50.5864 125.624 50.0566 125.326 49.5108 125.059C48.6883 124.575 47.7976 124.218 46.8687 124C46.0877 123.896 45.7032 124.258 45.1114 124.613C44.9832 124.68 44.849 124.753 44.7147 124.815C44.5805 124.876 44.3303 124.955 44.672 124.845C44.2754 124.974 43.891 125.102 43.4821 125.2L43.2198 125.249C43.653 125.163 43.3357 125.249 43.2198 125.249C43.0001 125.249 42.7804 125.249 42.5608 125.249H42.2557C41.7675 125.219 42.4936 125.304 42.1946 125.249C41.8951 125.185 41.5996 125.104 41.3099 125.004C41.2611 125.004 41.0048 124.857 41.255 125.004L40.9193 124.833L40.5044 124.582C40.4739 124.582 40.1383 124.325 40.2909 124.441C39.7414 123.998 39.2512 123.486 38.8325 122.917C38.6092 122.616 38.3688 122.328 38.1125 122.054C35.806 119.606 33.475 117.237 31.0892 114.892C29.7712 113.595 28.4349 112.303 27.0375 111.085C26.4578 110.583 25.8599 110.087 25.2069 109.64C25.1154 109.573 24.8225 109.304 24.6944 109.316C24.7371 109.316 25.1215 109.72 24.9568 109.512C24.8713 109.414 24.7615 109.322 24.67 109.23C22.9956 107.471 21.168 105.865 19.2088 104.431C18.0589 103.578 16.6976 103.057 15.2731 102.926C14.5118 102.979 13.7599 103.125 13.0337 103.36C12.5788 103.501 12.1965 103.814 11.9681 104.233C11.7396 104.652 11.6828 105.144 11.8098 105.605C11.9369 106.065 12.2377 106.457 12.6484 106.699C13.0592 106.94 13.5475 107.012 14.01 106.898C14.5704 106.846 15.122 106.723 15.6514 106.531C15.5354 106.592 14.9741 106.598 15.2975 106.598C15.4561 106.598 14.7971 106.47 15.2669 106.598C15.6506 106.689 16.023 106.823 16.3775 106.996C16.8641 107.254 17.3293 107.551 17.7687 107.884C17.4819 107.669 17.8969 107.988 17.9823 108.055L18.5925 108.575C19.3491 109.23 20.0875 109.91 20.8136 110.601C21.579 111.384 22.4053 112.105 23.2848 112.756L23.5533 112.952C23.7852 113.105 23.1933 112.652 23.5533 112.952L24.2306 113.515C24.7676 113.974 25.2924 114.452 25.811 114.929C28.2518 117.212 30.6315 119.612 32.9686 122.023C33.7822 122.839 34.5774 123.656 35.3544 124.472C35.507 124.637 35.6656 124.796 35.8243 124.961C35.8731 125.017 35.9097 125.078 35.7205 124.839C35.9585 125.133 36.1721 125.451 36.4161 125.739C36.8354 126.251 37.3102 126.715 37.8318 127.122C40.5715 129.295 44.6537 129.571 47.5155 127.416L46.106 127.6C46.9636 127.92 47.7942 128.309 48.5894 128.763C48.8978 128.939 49.1972 129.131 49.4864 129.338C49.5474 129.381 49.9319 129.699 49.5901 129.405L49.8769 129.65C50.0295 129.791 50.1698 129.938 50.3102 130.091C50.6641 130.452 50.2247 129.877 50.3102 130.091C50.4993 130.495 50.3895 130.238 50.3102 129.962C50.4481 130.426 50.7593 130.819 51.1788 131.058C51.5982 131.298 52.0937 131.366 52.5618 131.248C53.0294 131.118 53.4263 130.807 53.6655 130.383C53.9046 129.96 53.9663 129.458 53.8371 128.989L53.8798 129.014Z" fill="#8C9DB0"/>
<path d="M1.89768 113.852C2.16616 113.931 2.43465 114.023 2.69703 114.115C2.95941 114.207 3.30722 114.335 3.60621 114.458L4.14318 114.672C4.24081 114.709 3.76486 114.507 4.09436 114.672L4.45438 114.831C5.49767 115.296 6.51604 115.815 7.50533 116.386C8.0667 116.71 8.61587 117.053 9.15894 117.42C9.42743 117.604 9.70201 117.788 9.96439 117.983L10.3732 118.283L10.4586 118.345L10.6051 118.461C13.0144 120.289 14.9744 122.647 16.3348 125.353C16.7314 126.155 16.945 126.798 17.3111 127.716L17.427 127.991C17.5369 128.242 17.6467 128.499 17.7504 128.75C17.8542 129.001 17.6589 128.524 17.7077 128.652C17.7565 128.781 17.787 128.842 17.8297 128.934L18.1226 129.632C19.343 132.545 20.4963 135.473 21.5824 138.416C22.3757 140.521 23.1486 142.635 23.9011 144.757C24.3039 145.908 24.7005 147.052 25.1215 148.203C25.3039 148.962 25.5679 149.699 25.9087 150.401C26.6372 151.486 27.4536 152.51 28.3494 153.461C29.9824 155.333 31.7638 157.069 33.6764 158.652C38.442 162.533 44.4767 165.881 50.8776 165.116C51.769 165.02 52.652 164.858 53.5198 164.632H52.5435C53.5047 164.797 54.4916 164.721 55.4165 164.411C56.3415 164.102 57.176 163.568 57.846 162.857C59.0971 161.422 59.89 159.644 60.122 157.752C60.6407 154.404 60.2807 151.019 59.7071 147.689C58.5843 141.188 56.4731 134.871 54.2154 128.714C54.0748 128.251 53.7632 127.861 53.3445 127.622C52.9258 127.383 52.4317 127.313 51.9638 127.428C51.7291 127.488 51.5085 127.594 51.3149 127.74C51.1213 127.886 50.9585 128.069 50.8359 128.278C50.7133 128.488 50.6334 128.72 50.6008 128.961C50.5681 129.201 50.5834 129.446 50.6458 129.681C52.9584 135.924 55.1002 142.327 56.2046 148.907C56.2534 149.201 56.3022 149.519 56.3449 149.788C56.3449 149.929 56.467 150.676 56.4121 150.223C56.4731 150.749 56.5341 151.276 56.5829 151.802C56.6622 152.714 56.7111 153.639 56.705 154.557C56.705 155.279 56.65 156.001 56.5829 156.724C56.5402 157.219 56.6622 156.301 56.5829 156.779C56.5829 156.932 56.5341 157.091 56.5036 157.244C56.4496 157.545 56.3804 157.843 56.2961 158.138C56.2351 158.37 56.1619 158.603 56.0826 158.829C56.046 158.933 55.9971 159.037 55.9666 159.148C55.8751 159.423 56.1863 158.689 56.0521 158.946C56.0215 159.001 56.0032 159.062 55.9727 159.117C55.7836 159.49 55.5578 159.827 55.3625 160.182C55.2954 160.298 55.7348 159.76 55.4663 160.047C55.4114 160.102 55.3625 160.17 55.3076 160.225C55.2527 160.28 55.0696 160.464 54.9476 160.574C54.5571 160.941 55.3564 160.329 54.9476 160.574C54.8256 160.647 54.7096 160.727 54.5815 160.794C54.4688 160.841 54.3588 160.894 54.252 160.953C54.6974 160.604 54.6181 160.813 54.3069 160.91C54.0994 160.978 53.8737 160.996 53.6967 161.057C54.3862 160.849 53.9835 161.057 53.654 161.057C53.5259 161.057 53.4038 161.057 53.2818 161.057C52.9157 161.057 53.892 161.143 53.5991 161.106C52.9523 161.06 52.3026 161.135 51.6831 161.327C51.1102 161.457 50.5253 161.527 49.9379 161.535C48.7364 161.613 47.53 161.516 46.3561 161.247C45.7378 161.112 45.1276 160.947 44.5256 160.751C44.2449 160.659 43.9581 160.562 43.6774 160.458L43.1709 160.256C43.0916 160.23 43.0141 160.2 42.9391 160.164C41.7353 159.622 40.571 158.996 39.4549 158.291C38.9545 157.972 38.4664 157.642 37.9843 157.299C37.7463 157.128 37.5084 156.956 37.2765 156.779C37.2765 156.779 36.8067 156.418 37.0934 156.644L36.6907 156.326C34.9405 154.942 33.2946 153.43 31.7665 151.802C31.1929 151.19 30.6315 150.541 30.0885 149.886L29.5271 149.207L29.3013 148.919V148.95C29.2159 148.834 29.1183 148.723 29.0389 148.601C28.8254 148.283 29.1427 149.091 28.9535 148.356C28.4532 146.397 27.6294 144.469 26.9521 142.572C25.0564 137.267 23.0225 132.009 20.8502 126.798C20.7159 126.492 20.5573 126.186 20.4475 125.861C20.6366 126.394 20.4475 125.861 20.4475 125.696C20.301 125.286 20.1302 124.888 19.9593 124.472C19.6489 123.736 19.2922 123.02 18.8915 122.329C17.4845 119.954 15.6709 117.847 13.534 116.104C10.5431 113.638 7.13497 111.731 3.47197 110.473L2.90449 110.289C0.610178 109.634 -0.366127 113.172 1.89768 113.852Z" fill="#8C9DB0"/>
<path d="M56.4426 138.948C56.6927 140.784 57.7545 142.388 58.2121 144.182C58.6819 146.029 58.6819 147.965 58.2121 149.813C57.9253 150.958 59.6888 151.447 59.9756 150.303C60.4895 148.27 60.5229 146.144 60.0732 144.096C59.6461 142.149 58.4745 140.423 58.206 138.458C58.1341 138.231 57.9769 138.04 57.7676 137.925C57.5583 137.811 57.313 137.783 57.0833 137.846C56.8574 137.922 56.6688 138.082 56.5555 138.292C56.4422 138.502 56.4127 138.748 56.4731 138.979L56.4426 138.948Z" fill="#8C9DB0"/>
<path d="M53.7516 164.981L52.4275 164.289L52.2078 165.966L53.4282 165.673C53.6568 165.604 53.8523 165.454 53.9774 165.25C54.0438 165.148 54.0817 165.03 54.0872 164.907C54.1177 164.787 54.1177 164.661 54.0872 164.54C54.0227 164.311 53.8717 164.115 53.6662 163.995C53.4501 163.877 53.1975 163.844 52.9584 163.904L51.738 164.197L51.5183 164.289L51.3353 164.43L51.1888 164.62C51.1221 164.719 51.086 164.836 51.0851 164.956C51.0606 165.036 51.0606 165.122 51.0851 165.201C51.0835 165.283 51.1047 165.364 51.1461 165.434C51.1651 165.511 51.2053 165.581 51.2621 165.636C51.3272 165.735 51.4151 165.817 51.5183 165.875L52.8485 166.566C53.0647 166.685 53.3173 166.718 53.5564 166.658C53.7832 166.59 53.9767 166.439 54.0994 166.236C54.2215 166.025 54.2553 165.775 54.1935 165.54C54.1317 165.305 53.9794 165.104 53.7699 164.981H53.7516Z" fill="#8C9DB0"/>
<path d="M42.3838 126.027L42.7499 126.082L43.2381 124.313L42.8048 124.251C42.6847 124.221 42.5588 124.221 42.4387 124.251C42.3175 124.26 42.1999 124.296 42.0944 124.357C41.9888 124.417 41.898 124.5 41.8285 124.6C41.7478 124.688 41.6911 124.796 41.6638 124.912V125.157C41.6636 125.318 41.7057 125.477 41.7858 125.616L41.9322 125.806C42.0434 125.918 42.1825 125.999 42.335 126.039L42.7682 126.1C42.8883 126.131 43.0142 126.131 43.1343 126.1C43.2558 126.093 43.3735 126.055 43.476 125.99C43.5806 125.934 43.669 125.852 43.7323 125.751C43.813 125.663 43.8697 125.555 43.8971 125.439V125.194C43.8978 125.032 43.8535 124.873 43.7689 124.735L43.6286 124.545C43.5154 124.436 43.3771 124.356 43.2258 124.313L42.8597 124.258C42.7396 124.227 42.6138 124.227 42.4936 124.258C42.372 124.263 42.254 124.301 42.1519 124.368C42.0463 124.422 41.9576 124.505 41.8956 124.606C41.8149 124.695 41.7582 124.802 41.7309 124.919V125.163C41.7307 125.325 41.7728 125.483 41.8529 125.623L41.9994 125.812C42.1105 125.924 42.2496 126.005 42.4021 126.045L42.3838 126.027Z" fill="#8C9DB0"/>
<path d="M167.711 98.4144C168.329 98.4731 168.947 98.2959 169.441 97.9182C169.935 97.5405 170.27 96.9899 170.377 96.3761L168.699 96.5965C169.737 98.0474 170.481 99.6881 170.89 101.426C170.955 101.634 171.091 101.813 171.275 101.93C171.458 102.047 171.677 102.095 171.893 102.065C172.108 102.036 172.307 101.931 172.452 101.769C172.598 101.608 172.682 101.399 172.69 101.181C172.612 94.9465 170.465 88.9157 166.588 84.0422C165.941 83.2281 164.599 84.287 165.154 85.1562C166.985 88.0637 169.078 90.959 170.341 94.1786C170.938 95.6892 171.287 97.2873 171.372 98.9102C171.463 100.551 171.549 102.179 172.373 103.636C172.499 103.837 172.699 103.98 172.929 104.037C173.159 104.093 173.402 104.058 173.607 103.938C173.812 103.818 173.962 103.624 174.027 103.395C174.091 103.166 174.065 102.921 173.953 102.711C173.148 101.285 173.282 99.6019 173.141 98.0227C172.985 96.3614 172.573 94.7343 171.921 93.1993C170.585 90.0102 168.577 87.1394 166.747 84.2319L165.307 85.3398C168.851 89.8597 170.801 95.4307 170.853 101.181L172.647 100.936C172.198 99.0439 171.392 97.2551 170.274 95.6661C169.883 95.109 168.73 95.054 168.602 95.8864C168.6 95.9957 168.574 96.1032 168.526 96.2009C168.477 96.2987 168.407 96.384 168.32 96.4506C168.234 96.5172 168.134 96.5633 168.027 96.5854C167.92 96.6075 167.81 96.605 167.705 96.5781C166.533 96.4312 166.545 98.2736 167.705 98.4144H167.711Z" fill="#8C9DB0"/>
<path d="M170.804 100.526C170.673 101.837 170.984 103.154 171.689 104.266C171.783 104.421 171.919 104.545 172.081 104.623C172.244 104.702 172.426 104.731 172.604 104.707C172.781 104.683 172.947 104.608 173.082 104.491C173.216 104.373 173.314 104.218 173.361 104.046C173.648 102.994 173.739 101.899 173.63 100.814L171.83 101.059C171.91 101.276 171.973 101.499 172.019 101.726C172.012 101.773 172.012 101.82 172.019 101.867C172.019 101.744 172.019 101.726 172.019 101.793C172.015 101.816 172.015 101.838 172.019 101.861C172.019 101.989 172.019 102.118 172.019 102.246C172.022 102.387 172.056 102.524 172.12 102.649C172.183 102.775 172.274 102.884 172.386 102.968C172.497 103.053 172.626 103.111 172.764 103.139C172.901 103.167 173.043 103.163 173.178 103.128C173.482 103.045 173.757 102.879 173.972 102.649C174.187 102.419 174.335 102.133 174.398 101.824C174.461 101.539 174.476 101.245 174.441 100.955L174.386 100.545C174.386 100.477 174.386 100.404 174.386 100.343V100.3C174.377 100.452 174.32 100.597 174.224 100.715C174.127 100.832 173.996 100.916 173.849 100.955H173.367L172.836 100.428V99.963L173.251 99.4183C173.053 99.5466 172.905 99.7387 172.83 99.963C172.768 100.203 172.801 100.457 172.922 100.673C173.047 100.881 173.249 101.032 173.484 101.094C173.718 101.155 173.967 101.123 174.179 101.004C174.388 100.87 174.545 100.669 174.624 100.434C174.676 100.256 174.676 100.067 174.624 99.8896C174.575 99.714 174.48 99.5547 174.349 99.4279C174.218 99.301 174.056 99.2111 173.88 99.1673C173.709 99.1332 173.533 99.1406 173.366 99.1889C173.199 99.2373 173.046 99.3251 172.92 99.445C172.794 99.565 172.698 99.7135 172.641 99.8782C172.584 100.043 172.567 100.219 172.592 100.392C172.592 100.575 172.629 100.753 172.653 100.936C172.653 101.028 172.653 101.114 172.653 101.206V101.346C172.653 101.463 172.653 101.432 172.653 101.267C172.627 101.329 172.608 101.395 172.598 101.463C172.659 101.322 172.672 101.297 172.629 101.383L172.574 101.469C172.672 101.355 172.69 101.33 172.629 101.395C172.556 101.463 172.58 101.444 172.702 101.346C172.617 101.389 172.647 101.383 172.794 101.346H172.696L173.904 102.222C173.907 101.65 173.81 101.083 173.617 100.545C173.555 100.334 173.421 100.152 173.237 100.032C173.054 99.9123 172.834 99.8617 172.617 99.8896C172.398 99.9165 172.196 100.023 172.05 100.189C171.904 100.354 171.823 100.568 171.823 100.789C171.866 101.28 171.866 101.774 171.823 102.265C171.823 102.381 171.823 102.497 171.823 102.613C171.823 102.73 171.823 102.491 171.823 102.613C171.823 102.736 171.823 102.73 171.793 102.791C171.748 103.04 171.693 103.291 171.628 103.544L173.3 103.324C173.154 103.091 173.05 102.84 172.916 102.595C173.025 102.803 172.916 102.638 172.916 102.595C172.886 102.528 172.861 102.458 172.842 102.387C172.8 102.258 172.763 102.124 172.733 101.989C172.702 101.854 172.678 101.738 172.659 101.616C172.641 101.493 172.659 101.818 172.659 101.573V101.353C172.648 101.077 172.658 100.8 172.69 100.526C172.688 100.283 172.591 100.05 172.421 99.8773C172.248 99.7084 172.016 99.6121 171.775 99.608C171.534 99.6142 171.305 99.7129 171.134 99.8838C170.964 100.055 170.866 100.285 170.859 100.526H170.804Z" fill="#8C9DB0"/>
<path d="M160.73 79.3106C110.084 113.589 58.2182 83.5953 58.2182 83.5953C43.5737 81.1469 36.2514 124.606 42.3533 124.606C48.4552 124.606 52.1163 127.055 52.1163 127.055C65.5405 146.642 58.8284 158.272 58.8284 158.272C61.2692 163.169 52.1163 166.23 52.1163 166.23C100.321 212.75 164.391 168.678 164.391 168.678C196.731 122.77 160.73 79.3106 160.73 79.3106ZM148.203 149.091L160.773 135.526C160.986 135.325 161.265 135.208 161.558 135.196C161.85 135.183 162.137 135.277 162.367 135.46C162.596 135.642 162.753 135.902 162.807 136.19C162.862 136.479 162.811 136.778 162.664 137.032C157.929 143.973 153.097 148.185 149.533 150.633C149.325 150.771 149.075 150.828 148.828 150.794C148.581 150.76 148.355 150.637 148.193 150.448C148.03 150.259 147.941 150.017 147.943 149.767C147.945 149.518 148.037 149.277 148.203 149.091ZM145.152 161.639C137.573 164.614 143.535 160.555 143.932 160.415C144.438 160.151 163.806 148.754 171.39 144.5C171.64 144.359 171.341 145.394 171.39 145.112C171.549 144.316 158.314 156.479 145.17 161.639H145.152Z" fill="#8C9DB0" stroke="#8C9DB0" stroke-width="2" stroke-miterlimit="10"/>
</g>
<defs>
<clipPath id="clip0">
<rect width="180" height="189" fill="white"/>
</clipPath>
</defs>
</svg>
