<svg xmlns="http://www.w3.org/2000/svg" viewBox="0 0 233.14 396.22"><defs><style>.cls-1,.cls-2,.cls-3{stroke:#000;stroke-miterlimit:10;}.cls-2{fill:none;}.cls-2,.cls-3{stroke-width:3px;}.cls-3{fill:#fff;}</style></defs><g id="Layer_2" data-name="Layer 2"><g id="Layer_1-2" data-name="Layer 1"><path class="cls-1" d="M178.09,146.38a1.85,1.85,0,0,0-3.17.12c-5.39,9.77-8.65,12.53-10.49,13a1.82,1.82,0,0,1-2.23-1.4c-10.8-48.9-38.17-77.72-47.6-86.45a1.84,1.84,0,0,0-3.09,1.19c-2.31,23.9-53,85.25-55.56,88.34a1.59,1.59,0,0,0-.18.27c-41.86,72.91,1.08,114.86,3.08,119.85,1.88,4.7,54.84,20.84,61.35,22.81a1.88,1.88,0,0,0,1.28-.09l51.36-23a1.86,1.86,0,0,0,.82-.7C216.34,213.68,186,158.64,178.09,146.38ZM155,283.24a1.12,1.12,0,0,1-.22.16c-36.88,20.92-38.38,15.43-38.38,15.43-104.3-42.28-12.19-140.47-.65-152.34a.94.94,0,0,1,1.57.39c3.49,11.94,13.58,28.45,13.58,28.45,10,16,18,42,21,45,2.39,2.39,8.56-9.12,11-14a1,1,0,0,1,1.74.13l.27.82C183.22,252.78,156.72,281.39,155,283.24Z"/><path class="cls-2" d="M228.74,346.28a11.55,11.55,0,0,0-5.92-5.12c-6.82-2.61-16.79-6.34-28.68-10.74,18.45-7.45,31.24-12.86,32.71-14.09,5.31-4.42,3.58-32.27-10.7-42.82a11.74,11.74,0,0,0-9.87-2l-86.32,31c-39.72-13.7-76.84-27.15-90.54-32.1a11.54,11.54,0,0,0-11.89,2.49c-4.63,4.41-10.39,12.55-12.15,26.61a11.49,11.49,0,0,0,7.07,12L52.54,328,9.66,344.14a11.56,11.56,0,0,0-7.33,9c-1.76,11.2-1.88,33,21.39,41a11.41,11.41,0,0,0,7.75-.18c12.05-4.63,52.47-20.18,93.46-36.17l77.45,31.89a11.49,11.49,0,0,0,12.08-2.07C236.3,367.82,232.51,353,228.74,346.28Z"/><path class="cls-2" d="M228.3,350c5.41,1,2,15.52-6.38,26.09s-12,16.37-16.09,13.09-7.68-7.19-1-19.55C209.61,360.87,222.15,348.9,228.3,350Z"/><path class="cls-2" d="M32.87,392.67c-2.49,4.89-16.29-.25-24-11.34s-9.31-24-5-27,7,.32,16.9,10.26C27.82,371.66,35.72,387.09,32.87,392.67Z"/><path d="M7.56,308.73l5.14,2.14,14,5.83,20.61,8.59,25.25,10.52,27.53,11.47L128,358.91l26,10.85,21.9,9.12,15.82,6.6c2.49,1,4.95,2.17,7.48,3.11l.33.14c1.49.62,3.29-.68,3.69-2.1a3.09,3.09,0,0,0-2.1-3.69L196,380.8,182,375l-20.61-8.59-25.24-10.51-27.54-11.48L80.7,332.75l-26-10.84-21.91-9.13L17,306.19c-2.48-1-4.95-2.18-7.47-3.11l-.33-.14c-1.5-.62-3.3.67-3.69,2.1a3.08,3.08,0,0,0,2.1,3.69Z"/><path d="M36.15,391.73l8.72-3.37L66,380.21l25.38-9.8,22-8.49c3.57-1.37,7.16-2.72,10.71-4.13l.16-.06a3.1,3.1,0,0,0,2.1-3.69,3,3,0,0,0-3.69-2.1l-8.73,3.37-21.07,8.14-25.39,9.81-22,8.48c-3.57,1.38-7.15,2.73-10.71,4.14l-.15.06a3.08,3.08,0,0,0-2.1,3.69,3,3,0,0,0,3.69,2.1Z"/><path d="M224.35,312.61a2,2,0,0,0,.23.49,2.1,2.1,0,0,0,.63.63,3,3,0,0,0,.71.31,4.54,4.54,0,0,0,.5.12,5.47,5.47,0,0,0,.9.08,1.45,1.45,0,0,0,1.18-.59,1.14,1.14,0,0,0,.27-.51,1.51,1.51,0,0,0,0-.79l0-.07a1.43,1.43,0,0,0-.17-.38,1.93,1.93,0,0,0-1-.79l-.15,0a4,4,0,0,0-1.2-.07l1.29,2.26a1.64,1.64,0,0,1,.14-.22l-.24.31a1.53,1.53,0,0,1,.18-.18l-.3.23.07,0a1.56,1.56,0,0,0,.69-.9,1.54,1.54,0,0,0-.08-1,1.44,1.44,0,0,0-.61-.72,1.52,1.52,0,0,0-1.16-.15l-.3.07.4-.05a1.7,1.7,0,0,1-.39,0l.4.06h0l.36.15h0l.3.23,0,0,.39.66v0l.05.39v0l-.06.4s0-.05,0-.07l-.16.36a.5.5,0,0,1,.08-.12l-.24.3.15-.15-.3.24c.16-.12.35-.21.52-.32a1.87,1.87,0,0,0,.84-1.05,1.71,1.71,0,0,0,0-.87,1.58,1.58,0,0,0-.73-.93,4.38,4.38,0,0,0-2.29-.36l.39,2.95a5,5,0,0,0,1.44-.64,1.64,1.64,0,0,0,.54-.54,1.5,1.5,0,0,0,.18-1,1.41,1.41,0,0,0-.3-.71,1.39,1.39,0,0,0-.78-.54,7.5,7.5,0,0,0-1.64-.1,1.61,1.61,0,0,0-1.06.44,1.52,1.52,0,0,0-.44,1.06,1.5,1.5,0,0,0,.44,1.06,1.56,1.56,0,0,0,1.06.44,9.85,9.85,0,0,0,3.15-.41,1.64,1.64,0,0,0,.9-.69,1.52,1.52,0,0,0,.15-1.16,1.5,1.5,0,0,0-1.85-1.05,7.86,7.86,0,0,1-1.36.3l.4-.06a8.1,8.1,0,0,1-1.39.07v3a6.62,6.62,0,0,1,1.09,0l-.4-.05.16,0-.36-2.74a4.19,4.19,0,0,1-.59.32l.36-.15-.49.17a1.49,1.49,0,0,0-.9.69,1.57,1.57,0,0,0-.18.95,1.41,1.41,0,0,0,.42.87,1.45,1.45,0,0,0,1.06.43,5.58,5.58,0,0,1,1,0l-.4,0a2.77,2.77,0,0,1,.48.11l-.36-.15.07,0-.3-.24,0,0-.39-.66,0,0-.06-.39v0l.2-.76a.15.15,0,0,1,0,.07l.23-.3-.06.06.3-.24c-.15.11-.32.19-.48.29a2.34,2.34,0,0,0-.85.86,1.78,1.78,0,0,0-.16,1.3,1.52,1.52,0,0,0,.71.92,1.64,1.64,0,0,0,.81.22,2.68,2.68,0,0,0,1.09-.13l-1.16-2.74a2.79,2.79,0,0,0-.92,1,1.54,1.54,0,0,0,0,1.52,1.49,1.49,0,0,0,1.3.74,4.07,4.07,0,0,1,.78,0l-.4-.05a.48.48,0,0,1,.17.05l-.36-.16a.28.28,0,0,1,.09.06l-.3-.24,0,.05-.24-.31,0,0-.15-.36a.13.13,0,0,1,0,.06l1.45-1.9a2.26,2.26,0,0,1-.45,0l.39,0a3,3,0,0,1-.71-.18l.36.15a.82.82,0,0,1-.2-.12l.3.24-.08-.08.24.3a.24.24,0,0,1-.06-.09l.15.36v0a1.62,1.62,0,0,0-.69-.89,1.57,1.57,0,0,0-1.16-.16,1.59,1.59,0,0,0-.9.69,1.52,1.52,0,0,0-.15,1.16Z"/><path d="M226.4,312a9.48,9.48,0,0,0,1.07-.51,11.38,11.38,0,0,0,1.2-.9l-.31.23a1.51,1.51,0,0,1,.35-.2l-.36.15a3.75,3.75,0,0,0,1.43-.77l-2.56-1.06a.38.38,0,0,0,0,.1l0-.4a1.51,1.51,0,0,1-.1.38l.15-.35a1.75,1.75,0,0,1-.18.29,1.52,1.52,0,0,0-.15,1.16,1.5,1.5,0,0,0,1.85,1l.35-.15a1.55,1.55,0,0,0,.54-.54,2.91,2.91,0,0,0,.5-1.54l-.06-.4-.15-.35a1.46,1.46,0,0,0-.72-.62,1.49,1.49,0,0,0-1.64.31l-.09.09.3-.23a1.71,1.71,0,0,1-.23.13l.35-.15a6.66,6.66,0,0,0-1,.39,8.44,8.44,0,0,0-.88.7l.3-.23a7,7,0,0,1-1.55.83,1.5,1.5,0,0,0,.36,2.75l.4.05a1.42,1.42,0,0,0,.75-.21Z"/><path d="M227.13,310.31v-.05l.06.4v0l-.05.39v0l-.15.36,0-.05-.24.31.11-.12-.3.24a10.78,10.78,0,0,1,2.39-1.28l-.36.16.84-.35a1.63,1.63,0,0,0,.9-.69,1.54,1.54,0,0,0,.15-1.15,1.49,1.49,0,0,0-.69-.9,1.43,1.43,0,0,0-1.16-.15c-.78.31-1.57.63-2.32,1a8.92,8.92,0,0,0-1,.54,3.78,3.78,0,0,0-.68.51,1.8,1.8,0,0,0-.47,1.7,1.55,1.55,0,0,0,.69.9,1.61,1.61,0,0,0,1.16.15,1.53,1.53,0,0,0,1-1.85Z"/><path d="M11.49,283a42.27,42.27,0,0,0,10.57,3.3,1.55,1.55,0,0,0,1.85-1.05,1.52,1.52,0,0,0-1.05-1.85,39.59,39.59,0,0,1-9.86-3A1.55,1.55,0,0,0,11,281a1.5,1.5,0,0,0,.54,2.05Z"/><path d="M8.72,290.33A285.77,285.77,0,0,1,39,299.17c1.83.65,2.61-2.25.8-2.89a286.46,286.46,0,0,0-30.23-8.84c-1.88-.44-2.68,2.46-.8,2.89Z"/><path d="M95,320a52,52,0,0,1,15.17,6.62c1.63,1,3.14-1.55,1.52-2.59a54.47,54.47,0,0,0-15.89-6.92c-1.87-.48-2.67,2.41-.8,2.89Z"/><path d="M109.62,314.74l39.52,12.54c1.85.58,2.64-2.31.8-2.89l-39.53-12.54c-1.84-.59-2.63,2.31-.79,2.89Z"/><path d="M212.61,355.1a100.47,100.47,0,0,1-17.78-5.41,1.5,1.5,0,0,0-1.84,1,1.54,1.54,0,0,0,1,1.85A100.47,100.47,0,0,0,211.81,358c1.88.39,2.69-2.5.8-2.89Z"/><path d="M203.34,366.39a186.17,186.17,0,0,1-28.12-11.3c-1.72-.86-3.24,1.72-1.51,2.59a190.61,190.61,0,0,0,28.83,11.6c1.85.58,2.64-2.32.8-2.89Z"/><path d="M31.66,379.37l19.68-7.23c1.79-.66,1-3.56-.8-2.89l-19.67,7.23c-1.8.66-1,3.56.79,2.89Z"/><path d="M138.41,309.37q12.72-4.51,25.8-7.91a1.5,1.5,0,0,0-.79-2.89q-13.08,3.39-25.81,7.91c-1.8.64-1,3.54.8,2.89Z"/><path d="M197.62,297.92A233.72,233.72,0,0,1,224,288.06c1.84-.57,1.05-3.46-.8-2.89a238.07,238.07,0,0,0-27.1,10.16c-1.76.78-.24,3.37,1.51,2.59Z"/><path d="M223.35,287.67a1.5,1.5,0,0,0,0-3,1.5,1.5,0,0,0,0,3Z"/><path d="M223,289a1.5,1.5,0,0,0,0-3,1.5,1.5,0,0,0,0,3Z"/><path d="M224.69,287.22a1.5,1.5,0,0,0,0-3,1.5,1.5,0,0,0,0,3Z"/><path d="M224.24,288.11a1.5,1.5,0,0,0,0-3,1.5,1.5,0,0,0,0,3Z"/><g id="eLDSTOFF"><path d="M159.35,65.67a1.5,1.5,0,0,0,0-3,1.5,1.5,0,0,0,0,3Z"/><path d="M90.35,43.67a1.5,1.5,0,0,0,0-3,1.5,1.5,0,0,0,0,3Z"/><path d="M130.35,3a1.5,1.5,0,0,0,0-3,1.5,1.5,0,0,0,0,3Z"/></g><path d="M194.09,330.89l29.55-14.4,4.23-2.07a3,3,0,0,0,1.07-4.1,3.06,3.06,0,0,0-4.1-1.08l-29.55,14.41-4.23,2.06a3,3,0,0,0,3,5.18Z"/><line class="cls-3" x1="191.85" y1="329.33" x2="113.85" y2="300.33"/></g></g></svg>