<svg xmlns="http://www.w3.org/2000/svg" viewBox="0 0 626.88 180.29"><g id="Layer_2" data-name="Layer 2"><g id="Layer_1-2" data-name="Layer 1"><path d="M0,177.81m0-1.6v-4.08c.09-.49.16-1,.29-1.48A2.08,2.08,0,0,1,1,169.5v1.32c.7-.55.15-2.07,1.47-1.39l.34-2.61,1,.59A3.73,3.73,0,0,1,6,163.86c.12-.06,0-.63-.05-1l.72.14v-1l-1.3.15-.26-2.33.27,0,1.76,1.78c-.19-.95.09-1.52.64-1.54-.19-.63-.37-1.32-.61-2a.71.71,0,0,0-.42-.44c-.13,0-.33.19-.48.31s-.42.37-.62.56a5.84,5.84,0,0,1-.18-.69c-.1-.71-.17-1.42-.29-2.41l1,.64.29-1.58c-.5-.38-1.65-.71-1.1-2a10.51,10.51,0,0,1,1.38-2.13l.67-2c1.71.32,1.11,1.67,1.47,2.89.28-1.83,1.14-1.66,2.14-1l.72-.8.46.2a15.14,15.14,0,0,0-.49,1.75,5.47,5.47,0,0,0,.09,1.27l.18,2.39.33,0,.18-1.74c1.76-.62,1.76-.62,1.66,1l.75-.7.22.09-.57,1.81-1.2.87.25.37,1.38-.79c.78,1.24-1.71,2.28-.17,3.61l.27-2.13h.27l.72,1.65h.2l.13-2.53c.66,0,1.51.25,1.92-.07s.57-1.23.83-1.87l.38.09c-.19,1.12-.44,2.23-.54,3.36a3,3,0,0,0,.48,1.31,2.58,2.58,0,0,0,.46.53c.21-.21.52-.73,1-.92s.81.2,1.22.32l.27.44.77-1.64.74.7.55-1,1.2.47-1-2.22-.4.19.43.88-1.32.29c.6-1.16-.19-1.25-.88-1.36l-.3-1.29,1.32.43c.28-.67.59-1.41.91-2.15a.4.4,0,0,1,.29-.19l3.52-.37c.17-1,1.1-.45,1.61-.71l.85-2.4-1.09-.79,2-1-.33-.89,1.93-.29c-1-.44-1.68-.73-2.37-1.07-.2-.1-.5-.36-.47-.49a3.32,3.32,0,0,1,.49-1.18c.16-.22.51-.3,1-.57l-.19,1.77c.62.76,1.21-.41,2-.58-.35-.83-.47-1.52.73-1.16l.85-2.2,1.6,1.2-.32-1.83c.92-.49.92-.76-.27-2.82-.46.72-.73,1.52-1.29,1.89a2.07,2.07,0,0,1-1.81-.1c-.48-.29-.73-.8-1.46-.5-.23.1-.66-.35-1-.49a1.49,1.49,0,0,0-.83-.16c-1,.33-1,.35-1.59-.37-.93,1-.93,1-1.27.51-.66.06-1.26-.06-1.6.19s-.57.92-.84,1.4c-.92-.66-1.51-.49-2.24.41-.18.22-.89.37-1,.25-1.17-1.4-2.83-.68-4.23-1-1.06-.27-2.27,0-3.13-1a.59.59,0,0,0-.56-.1c-1.18.61-2.14-.5-3.27-.41-.69.06-1.05-.35-1-1.13A19.44,19.44,0,0,0,9,134.52a2.91,2.91,0,0,1-2.86-1.75,21.08,21.08,0,0,0,3.28-.56c.95-.32,1.75-.69,2.68.09a1,1,0,0,0,1.44-.23c.39-.47.92-1.2,1.88-.57.19.13.94-.58,1.49-.94l-1-.85c1-.33,1.75-.54,2.48-.83.39-.16,1-.4,1-.69a3.19,3.19,0,0,0-.31-1.5,13.36,13.36,0,0,0-.64-1.32l1.36-.43c.35-1-1.58-1.76-.7-2.54h4.5l.25.9a3.4,3.4,0,0,0,.32-.73c.08-1,0-2.08.21-3.08a4,4,0,0,1,.86-1.84c.23-.25.9-.15,1.37-.16a4.94,4.94,0,0,1,2.79,1c.11-.18.31-.36.31-.54a11.11,11.11,0,0,0-.15-1.45l1.87,1.48c.19-.25.39-.51.58-.79s.4-.6.59-.89c.21.23.41.48.63.7a4.36,4.36,0,0,0,.42.34c.47-.34,1-1.33,1.53-.07,0,.11.51.09.76,0,1-.25,2.07-.53,3.11-.8a11.24,11.24,0,0,0,2.9-.76c1.4-.81,2.67.09,4.18,0-.79.84-2.46,1-1.54,2.78l-1.25-.52c-.52,1.39-1.57,1.39-2.73,1.13a1.64,1.64,0,0,0-.93.07,10.92,10.92,0,0,0-1.37.77c0-.1,0,.1,0,.4l-1.92.37,0,.25,4.75,1.57a2.16,2.16,0,0,1,.17-.84c.11-.19.6-.41.68-.34,1.22,1.08,1.61.13,2-.8,0-.09.14-.16.32-.35l.74,1.13-1.32,2.15,1.51-.47-.08-.17,2.56-.31c.21.11.65.37,1.1.6,1.21.59,1.34.51,1.85-.72a2.65,2.65,0,0,1,.82-1,8,8,0,0,1,1.3-.69l0-.39L49,118.84c-.72-.26-1-.68-.59-1.43a3.82,3.82,0,0,0,.21-.87c.48.12,1.13,1.46,1.71-.1l.53.83-1.11.44v.41a3.74,3.74,0,0,0,1.34,0,3.17,3.17,0,0,1,3.13.07L56,115.45l-.22-.23-.88.66-.53-1.07H58c.2-1.09.4-2-.9-2.87-.86-.55-1.28-1.76-2-2.61-.35-.44-.81-1-1.46-.25-.07.08-.46-.13-.76-.23l-.19,2.34c-1.31-.7-1.81.53-2.54.93l-1.53-.38c.13-.62.26-1.24.4-1.88-1.8,0-1.8,0-1.5,1.49l1.12.37c0,.19.14.52.08.56-.77.47-1.57.9-2.36,1.34l0-.4a6.63,6.63,0,0,0-1.67-.31c-1.09.07-2.17.32-3.26.44A3.4,3.4,0,0,1,38.31,112c-.68-.77-2.25-1-3.54-.7a8.22,8.22,0,0,0-.8-1.66c-.31-.38-.72-.77-1.26.07-.3.46-1.31.49-2,.64s-1.77.34-1.82.2c-.29-.81-.87-.6-1.36-.52a5.55,5.55,0,0,0-1.3.63c-.06,0-.4-.24-.73-.46s-.62-.46-1-.74c.52-.36.54-1.56,1.83-.48l-.48-1.38.2-.18a3.65,3.65,0,0,0,.5.67,11.73,11.73,0,0,0,1,.7c0-.31,0-.62,0-.93,0-.07-.08-.17-.06-.2.95-1.09-.31-1-.73-1.35a4,4,0,0,0-.55-.27l.15.84-.23.26c-.39-.38-.77-.76-1.17-1.12s-.84-.69-1.28-1.06l.25-2-.34.13c-.25-.23-.47-.56-.77-.67a5.86,5.86,0,0,0-1.51-.3c-.73,0-1.42-.08-.94-1.13a.66.66,0,0,0,0-.46c-.4-1.07-.82-2.14-1.33-3.45l3.62-.38c.58,1.6.57,1.58,2.3,1.28a1.41,1.41,0,0,1,.92.37A12.78,12.78,0,0,1,27,99.5l.24-.2-.32-1.62c.64.14,1.53-.68,1.55.94a10.47,10.47,0,0,0,1.67-.77c.14-.1,0-.59,0-1.06l1.68-.2a6.82,6.82,0,0,1,.09-1,1.89,1.89,0,0,1,.35-.81,6.55,6.55,0,0,1,.77-.71c-.43-.36-.84-1-1.29-1C30.51,93,30,91.91,29,91.5c-.34-.14-.88-.54-1-.45-.83.8-1.89.63-2.87.82-.1,0-.18.12-.23.17-1-.8-.51-1.46.19-2.41-.49,0-1.29-.18-1.41,0-.54.94-1.41.7-2.18.87s-1.28.35-1.91.54l-1.79.55c-1.1-.23-2.11-.45-3.12-.65-.6-.12-.7-.52-.28-1.45l.9.7c.56-.44.9-.7,1.61.07.38.42,1.6.07,2.44-.19-1-.62-2.06-1.22-3.07-1.86-.21-.14-.49-.57-.43-.66.6-.94-.18-1.59-.43-2.35l.31-.2.93,1.4,1.09-1-2.09-1.55c1.1-.82.45-1.58-.3-2.44-.22-.26,0-.85,0-1.41l-.94-.3c.9,1.17.15,1.5-.54,2-.9.58-1.39-.29-2.22-.51-.41,1.54-1.7,1.75-3,1.63-.5,0-1-.61-1.37-.89a10.25,10.25,0,0,1,1.19-.65,8.93,8.93,0,0,1,2.68-.9c1,0,1.08-.49.73-1.06a6.55,6.55,0,0,0-1.77-2c-.29-.21-1.16,0-1.49.34-.74.72-1.09.1-1.6-.23a8.29,8.29,0,0,1-3-3.27l.6-.71,0,.26c.74-.16,1.5-.25,2.22-.48a3.57,3.57,0,0,0,1.4-.84.66.66,0,0,0-.18-1.15c-.62-.37-1.08-.92-.39-1.72.13-.15-.13-.63-.26-1.13L8.52,69l.63-2.12,1.56.14c.15.51.25.94.41,1.35.34.91.75,1.79,1.07,2.71s1,1.11,2.18.83l-1.41-2,.18-.36c.41.2.95.29,1.2.61a5.36,5.36,0,0,1,.57,1.48l.32-.09-.1-.87,4.48-2.79c-1.15-1.28-.54-2.27,0-3.29a8.16,8.16,0,0,0,1.13,2.45c1,1.07,1.22-1.07,2.35-.65l-.2,2.13L24.7,69l-.95,2,1.15-.21c.4.81.6,1.8,1.19,2.2s1.52.08,2.29.08L28,75l.37-.2c.38.41.94.75,1.09,1.22.4,1.29,1.75,1.4,2.53,2.21.06.07.51-.24.78-.36l1.06-.47a4.61,4.61,0,0,1-.19,1.13c-.1.22-.44.33-.7.51H31.86a11.18,11.18,0,0,0,.7,1.21,4,4,0,0,0,.8.66A7.15,7.15,0,0,0,35.14,80a9.07,9.07,0,0,0,1-1.73c.66-1.07.77-1.07,1.44,0a4.77,4.77,0,0,0,.49.7c-.05-1.13.28-1.72,1.18-1.3l-2.43-2.59.89-.4c.62.57,1.06,1,1.55,1.39.11.09.45,0,.63-.13A5.18,5.18,0,0,0,41.26,75c.43-.5.63-1.19,1-1.72.17-.22.59-.26.9-.38.1.39.4.87.27,1.16a9.62,9.62,0,0,1-1.29,2c-.46.56-1.08,1-.6,1.88.12.22-.33.74-.51,1.12l.35.19,1.09-1.76.46.11-.23,3.29,1.41-1.08,1.31,2,.58-.32.6-1.86c1.12-.28,1.2-.59.16-1.7l1.14.2c.83.16,1.83.7,1.93-.85,0-.12.36-.34.52-.32.84.11,1.67.29,2.53.45l1.15-3.56-.27,0,1.06-.48.43.89.14-.25v-4l.26-.24c.46.52,1.13,1,1.33,1.58a5.73,5.73,0,0,1,.07,2.34,23.16,23.16,0,0,1-.5,2.48l1.17-.25a12.24,12.24,0,0,0,1,1.64c.07.08.62-.23,1.13-.43-.63-.58-1.06-1-1.53-1.41-.66-.54-.81-1.39-.17-1.69.92-.45,1.58-.88,1.4-2.16L60,72l.37,1.94a2.71,2.71,0,0,1,1.45,2.83,3,3,0,0,0,.48,1.44s.75-.08.85-.29c.25-.48.6-1.19.42-1.57a17.42,17.42,0,0,0-1.64-2.06,5.54,5.54,0,0,1-.53-1.3l.36-.3,3.6,3.16c0-.46-.06-.73,0-1s.07-.64.11-1a3.79,3.79,0,0,1,1.15.22,7.33,7.33,0,0,1,1.66,1.2c.41.4,1.23.6,1,1.5,0,.14.25.39.6.86L70,74.36,71.51,76a7.87,7.87,0,0,1-.28-2.38c0-.25,1.09-.33,1.89-.55l.73,4.49a4.44,4.44,0,0,0-.88.28c-.06,0,0,.54.11.59a1.87,1.87,0,0,0,1,.2c.93-.22,1.07-.18,1.49.92l.5-2.42,1.25,2.53.26,0,.22-1.79c1.05,1.77,2.16-.11,3.37.21-.23-.24-.42-.57-.71-.71-.72-.35-.71-.85-.43-1.47a2.26,2.26,0,0,0,.29-.61c.13-1.24.11-1.24,1.31-.63a3.66,3.66,0,0,0,2.37,5l-.93,1.28.54.63.2-.8a4.23,4.23,0,0,0,1.48.37c.37,0,.7-.48,1-.79,0-.05-.17-.52-.32-.55a18.1,18.1,0,0,0-1.82-.24c0-.45,0-.9,0-1.34s.1-1,.16-1.62L86.11,78a9.59,9.59,0,0,1,5.12-4.58l-.33,1,1.16.37a16.27,16.27,0,0,1-1.25,1.68c-.18.19-.61.14-1,.22,0-.09-.13-.4-.33-.52a2.14,2.14,0,0,0-.82-.12c0,.31-.17.74,0,.91.79.9,1.45,1.78.91,3.09s-1,2.6-1.51,4.09l-1.62-2.53c-.45,2.09-.45,2.09-1.69,1.2.15-.18.31-.34.45-.52a4.5,4.5,0,0,0,.31-.45l-.21-.26a4.52,4.52,0,0,0-1,.74,4.09,4.09,0,0,0-.42,1l-1.49-.35a4.09,4.09,0,0,0,.77-.85c.06-.12-.29-.45-.45-.68a3.55,3.55,0,0,0-.64.83c-.05.17.22.46.35.69l.44.66-4,.73.92,1.43,1.51-.24c-.27,1.66.06,2.31,1.32,2.55a4.9,4.9,0,0,1-.41-.68,6,6,0,0,1-.24-.76c1-.55,1.9-1.15,2.9-1.62a2.25,2.25,0,0,1,1.5-.15c.53.19.4.67.3,1.25a3.58,3.58,0,0,0,.75,2.06c.09.16.7,0,1.22,0,.49,1-.61,1.62-1.18,1.88-1.37.62-1.46-1.11-2.25-1.63-.32.51-.62,1-.93,1.52-.57.89.19,1.39.7,1.75a1.51,1.51,0,0,0,1.45-.12A1.81,1.81,0,0,1,88.22,91a2.58,2.58,0,0,0,1.72-.48,3.07,3.07,0,0,1,3.25-.16l1.1-2.5,1.42,1.67,1.61-.9.28-1,.36.1a6.54,6.54,0,0,1-1,3.64,4.81,4.81,0,0,0-.4,1,3.43,3.43,0,0,0,1.27.2,16.43,16.43,0,0,0,2.25-.85c-.7,1.79-1.11,3.26-2.42,4.32-.6.48-1.44,1.27-.2,2.19.36.27.39,1,.61,1.6l-1.76,1.79,2,.4v.77l1.54.45c.22.06.43.16.64.24,0-.21,0-.41,0-.62,0-.41,0-.83,0-1.44l1.27.82,1.22-.88.7,2.21,1.28-.12a10.45,10.45,0,0,1-1.42,2.94c-1,1,.12,1.44.42,2s.9.73,1.57,1.24c-.9.58-1.59,1.07-2.33,1.48-.12.06-.44-.21-.66-.33.94-1.42-.68-1.3-1.12-1.89l-.09-.1.35-1.27a7.64,7.64,0,0,1-1.33.2c-.26,0-.69-.1-.77-.28-.5-1.17-1.13-1.23-2.22-.64a9,9,0,0,1-2.53.51c-.34.06-.68.15-.82.19l-.22,2.71a3.85,3.85,0,0,1-2.2-.27,17.22,17.22,0,0,0-3.19-1.23,15.68,15.68,0,0,0-4.32.06c-.26,0-.64,0-.75.22-1,1.58-2.43.95-3.85.66l.38-.8c-.23,0-.37-.08-.51-.09a24.36,24.36,0,0,0-5.43.84,46.18,46.18,0,0,0-5.4,1.21c-2.38.77-3.43,2.67-4.48,4.44.59.58,1.07,1,1.5,1.5a2.33,2.33,0,0,0,3.42-.15l-.94.48-.58-2.69a8.58,8.58,0,0,1,2,0,2.12,2.12,0,0,1,1.17.9c.32.55.2.56.71.43a4.87,4.87,0,0,1,1.21,0c.47,0,1,.47,1.12-.6s1.1-1.09,1.86-.35a5.33,5.33,0,0,0,1.41.71c.16-.41.32-.81.46-1.22s.16-.65.32-1.3c.43.52.87.83.84,1.08-.18,1.17.48,1.4,1.41,1.42a3,3,0,0,1,.56.12l-1,1.08,1,.66-1.31.4.42.52h1.25v-2.13c.53.38.86.76,1.25.84s.71-.23.8-.27c.31.49.54,1.25.88,1.31.76.12,1.38-.28,1.09-1.19,1.68-.69,1.89,1.05,3,1.7l-1.31.16.56,1.51,4.43,1.38L90.8,120l3.5.53-.11,1.11,2.39-.39-.08-1.61.32-.05.89.84c.14,0,.25,0,.29,0,1.27-1.28,1.27-1.28,2.34.12a3.11,3.11,0,0,0,.47.64c1.19.81,1.23.79,1.86-.55.48-1,.48-1,2.56-.11a23.5,23.5,0,0,0-.76,2.64c0,.25.61.88.66.85,1-.53,1.87-.11,2.8-.14s1.62-1,2.4-1.53a4.15,4.15,0,0,0,.66-.82l.83,2.84c-1.45-1.17-1.9.3-2.65.84a2.62,2.62,0,0,1-2.71.49,8.52,8.52,0,0,0-3.06,0c-.21,0-.59.17-.6.29-.14,1.92-2.1,2.3-2.9,3.66-1.11-.86-1.08-2.11.07-2.69-.56-.21-1-1-1.41.15,0,.11-.44.08-.65.16-.61.22-1.22.47-2.07.8l2.59,1.37a7.82,7.82,0,0,1-1.53,1.19c-.32.14-.84-.15-1.26-.26l-1.11-.35-.46,2.07a2.94,2.94,0,0,1,3.61.22l1.51-.49v-.52c.19,0,.49,0,.54.1.77,1.56,2,1.55,3.47,1.13-.25.9-.26.86-1.25,1-.25,0-.45.44-.68.68l.16.27,2.89-.33-.69,2.58a11,11,0,0,1,1.21-.56c.56-.19,1-.4,1.6.27s1.19-.24,1.61-.8l1.4.24c-.07-.66-.13-1.19-.18-1.72,1.71.06,1.82,0,1.66-1l-1.1.37-.24-.22,1.46-3.09-.27.05-.28-1.69,1.59-.09-.64-1.75.21-.08,1.38,1.88.22-.11-.23-.68,1-1.27.38,1.21.92-1.35-.34-.1v-2.13l1.46.93-.49-2.2h1.42l-.14,2.39c.85-.07,1-.75.79-1.63l1.28.72v1.61l1.31-1.45c-.15.86-.28,1.42-.33,2,0,.17.2.36.29.56.17.4.32.8.48,1.2l-.34.45,2.84.65-.27.64-1.82.13v.4l1.65.23-1,1.14,1.94.65-.16-.25,1.8-1.32.87.92c-.81,1.09-.81,1.09-.32,1.74l.32-.83.46.27c-.53,1.12-1.08,2.19-1.55,3.3a1.54,1.54,0,0,0,1.17,1.92c0-1.31-.53-2.77,1-3.71.31.3.7.7,1.13,1.07,0,0,.3-.11.39-.22a3.21,3.21,0,0,0,.57-1,10.17,10.17,0,0,1,1.12-2,9.45,9.45,0,0,1,1.77-1.31l.91.83-2.2.21-.05.21,1,.29.17.77c.15-.17.29-.45.47-.49a9.72,9.72,0,0,1,1.42-.12l-.46-1.21c1,.56,1.67.83,1.47,1.91-.09.45.26,1,.44,1.55,1.32-1.09,1.32-1.09,2-.75l-1,.47,0,.22h1.31c.49,1,0,3,2.32,2.88l.7-1.1,1.13.47.3-.17c-.19-.32-.31-.75-.59-.94a3.67,3.67,0,0,0-1.18-.33l.07-.29h1.7l1.3,1.11c-.25-1.12-.1-1.26,1.41-1.37a1.56,1.56,0,0,1,1.49-2.32.93.93,0,0,1,.46.22c.31.23.61.49,1.14.91l.36,1.2-2.13-.16,1,1.49c1.2-1,2.38-1.2,3.53-.12l-.28,1.17c-.72.09-.68.07-.47.93.06.24-.25.57-.47,1l-.85-1.37-.9,1,.74.29-.07,1a5.9,5.9,0,0,1,.94,0,4.3,4.3,0,0,1,1.9.48c.38.32.34,1.12.48,1.72l-.52.3-1.54-1.75c-.82,1.34-.28,2.23,1.84,2.83,0,.43.06.85.11,1.27s.09.75.16,1.28l-.82-.43-.86,2.13.93.54.13-1.38.95.42,1.57-.92.23,2.11h.29l-.47.62,1.48.84c.92-.46-.09-1-.17-1.49s-.16-1.32-.23-2c1,.53,1.44,1.47,1.25,3l1,.43c-.23-.94-.06-1.46.79-1.18l.28,1.37.43,0,.33-1.87,1.14.39c0-1.65-1.93-1-2.29-2.28l2.21-.41,1.64,1.83a2.13,2.13,0,0,0,.08-2.49c-.15-.23-.38-.52-.34-.74.21-1.11.07-1.92-1.55-1.86l2-1.43.73,1.07.69-1.1c.19.77.36,1.28.43,1.81a13.34,13.34,0,0,1,0,1.55l.29,0,1.62-2.06.72,1.1,1.53-.82.15.25-.73.6.32.09-.42,2.55.64.9.32-.87a4.11,4.11,0,0,0,.81.43c1,.24,2.1.42,2,1.87a1.43,1.43,0,0,0,.32.07l.67-1.62-1.24-.65.08-.27,1-.09-1-3.2c1.22.52,2.28,1.73,3.29.11.39,1.15.73,2.14,1.06,3.14l.31-.09c0-.59,0-1.19,0-1.78s.2-1.08.29-1.62c0-.25,0-.51.06-.76s0-.51.17-.65.4,0,.61,0c0,.2,0,.41,0,.61,0,.51,0,1,0,1.53l.42.06a6.48,6.48,0,0,1,.25-1.34,10.71,10.71,0,0,1,.83-1.4l-.65.1.24-.78-.21-.19-1,.74-.2-1c-.6-.6-2.8.19-3.8,1.28-.55-.5-1.11-1-1.65-1.51-.13-.13-.32-.39-.28-.49.68-1.61-.88-1.77-1.58-2.49l.4-1.11,2.3,1.75.34-1.87,1.41.64c.92-1.17.87-1.45-.31-2.14-.5-.29-.38-.71.32-1.48l1.73.16.14-.36-3.61-4.46c.87-.51.93-.52,3.35-.36l.43-1.23c-1.12-.34-2.31-.48-2.61-1.95l2.81-2-.74-1.86h1.45c-.71-1.12-.65-1-1.78-.51-.4.16-1.5-.48-1.72-1a4,4,0,0,0-2.05-2.13,6.88,6.88,0,0,1-1.42-1.43c.7-.4,1.12-1.07,2.18-.51s2.11-.49,2-1.76a3.37,3.37,0,0,1,.25-1.71c.45-.81-.15-1.32-.33-1.94-.05-.18-.39-.45-.46-.42-1.3.74-1.21-.53-1.43-1.08-.33-.82-.31-1.78-.68-2.57s.14-1.11.72-1.39c.37-.18.76-.34,1.16-.53a2.74,2.74,0,0,1,.75,2.66c-.1.43.5,1,.76,1.54a2.77,2.77,0,0,1,.37.9,1.63,1.63,0,0,0,1.55,1.51c.12,0,.22-.3.33-.46,1.8,2.2,3.12,4.57,3,5.27h-1.56l.59,2.1c-1.75-.07-1.75-.07-1.43,1.82.5,0,1,.12,1.55.16.89.07,1.21-.32,1.24-1.23,0-.49.52-1,.73-1.29.87.69,1.7,1.39,2.58,2a4.81,4.81,0,0,0,1.07.37c.4.15.8.32,1.13.46a10.89,10.89,0,0,0,2.47-.34c.45-.17.72-.83,1.08-1.27l-.22-.22,1.24-.2,3.26,2.21c.33.67.82,1.64,1.27,2.56.72-1.63.64-2-.66-3-.41-.31-1-2.86-.64-3.06a2.34,2.34,0,0,1,1.76-.11,11.25,11.25,0,0,1,1.73,1.41,6.11,6.11,0,0,0,1.45.77c1.14.42,1.35,1,.74,2a2.67,2.67,0,0,0-.32,1.31,1.83,1.83,0,0,1-1.26,2l.83,1c.15-.79.67-1,1.07-.82.65.35,1.68-.1,2,1,0,.09.35.15.52.13a5.21,5.21,0,0,0,2.89-1.81c.23-.23,0-1-.07-1.45-.14-.64-1.09-1.35,0-1.89A2.25,2.25,0,0,1,208,121l-1.11.7c.5,1.31.39,2.82,1.21,4l1.54-1.71,1.18,1.89.53-.78c.71,0,1.23,0,1.74.09s.72.16,1.35.3a13.55,13.55,0,0,0-1.56-4.26c.39-.19,1.5.36,1.05-.82a1.79,1.79,0,0,1-2-2.53c.18-.53.21-1.1.4-1.62a10.9,10.9,0,0,1,.76-1.4,3.66,3.66,0,0,0,.52.22c.57.13,1.17.36,1.43-.46a1.55,1.55,0,0,1,2-1.2,4.76,4.76,0,0,1-1-3.16,22.2,22.2,0,0,0-.64-3.23h1.25l-.55-.93,2.12-.35c-.13.23-.34.43-.36.65a2.49,2.49,0,0,0,.2.81l-1,.1.62,1.11c.63-.5,1.24-1.34,1.91-1.41s1.51.61,2,.86c.33-.44.53-1,.84-1.08,1.53-.33.78-1.44.84-2.26a4.91,4.91,0,0,0-.25-1.15L222,104c-.94-.63-2-1.3-3-2.07-.18-.14-.07-.65-.09-1a2.27,2.27,0,0,0,.71.13c.5-.06,1-.19,1.51-.29a7.86,7.86,0,0,0-.31-1.08c-.15-.34-.5-.62-.55-1-.22-1.63-.19-1.63,1.83-1.74L222,98.13l1.06-.39L223,96.36l2,1.91c1.24.07-.17-2.1,1.49-1.84l-.7-.47c1.12-2,2.76-.69,4.2-.6a16.93,16.93,0,0,1,2.65.59l.56-1.63.37,0,.62,1L236,95a2.12,2.12,0,0,0,.18.48,6,6,0,0,0,.71.79s.44-.21.46-.36a2.32,2.32,0,0,0,0-1.31c-.42-.77-1.37-1-1.79-2a1.67,1.67,0,0,1,.13-2l-.44-1.31,2.5.38-.62-1.81.25-.3,1.8,1c0,.29-.11.68,0,.93A.94.94,0,0,0,240,90c.19,0,.43-.49.44-.76a6.83,6.83,0,0,0-.22-1.33c1.48-1.22,1.94.38,2.68.73l.49-1.07.3.15c0,1.65.28,1.83,3.34,1.81l-.73-.92a12.23,12.23,0,0,0,2.37,0c.85-.18,2.09.66,2.52-.85,0-.11.45-.07.66-.17s.77-.37.75-.49c-.34-1.92,1.07-1.07,1.86-1.2a4.27,4.27,0,0,1,.53,0l-.88.83c.5.17.93.48,1.28.4a6.19,6.19,0,0,0,1.7-.77c.27-.14.44-.47.72-.58.66-.27,1.36-.46,2.05-.68l-.11-.37-3.7.78-.13-.42,1.15-.53-.94-.48.25-.36a4.85,4.85,0,0,0,5.8-.86l-1.7.16.44-.82-3.33.49.72-.9-2.21-2,.43-.82-1.35-.63L254,77.68c-.08.79.06,1.51-.23,1.93a1.54,1.54,0,0,1-2.08.49c-.9-.44-.82.34-.9,1l-2.3.14,0,0c-.73,0-1.45.13-2.18.11-1,0-2.06-.11-2.16,1.37l-1.68-.57c-.17-.48-.33-1-.5-1.41-.06-.19-.24-.46-.18-.54,1.17-1.47-.5-1.71-1-2.43a2,2,0,0,1,0-.35c.13-.58.1-1.37.47-1.67s1.15-.23,1.75-.22a.83.83,0,0,1,.61.48c.43,1.55,1,.65,1.72.16l-1.63-2.11.92-.95-1.13-.85.88-.29a5.24,5.24,0,0,0-.33-.67,2.31,2.31,0,0,1,.34-3.44,15.4,15.4,0,0,0,1.4-1.83c-.34-.82-.26-1,1.31-2.58l-3.13-1.26c.09.85.14,1.39.19,1.95-1.54.4-2.87,2.49-5,1.15.05-1,.8-2.1,0-3-.31-.37-1-.37-1.68-.56a2,2,0,0,1-1.93,2.33,4,4,0,0,0-2.76,1.49,1.12,1.12,0,0,1-1.06-.06A2.91,2.91,0,0,1,231,63.8c.06-.45.79-.82,1.39-1.38,0-.61,0-1.55-1.37-1.55-.27,0-.52-.44-.8-.64a4.55,4.55,0,0,0-1-.62c-1-.34-2-.57-2.9-1a2.11,2.11,0,0,1-.94-1c-.12-.26.08-.68.13-1l-.77-.56a3.44,3.44,0,0,0,.79-.32,2.78,2.78,0,0,0,.74-.67,6.22,6.22,0,0,0,.47-1c1.59.7,2,.59,3.27-.7.73.58.82,1.75,2,2,.12,0,.23.53.19.78a4.43,4.43,0,0,1-.46,1l-.2-.27.8,1.74,2.89-.84c-.1-.1,0,0,.1.12.48,1,.86.93,1.23-.07,0-.1.25-.14.38-.21l.16.68,1.46-.65.14,1.58-1.34-.37.24,1.89c.88-.11,1.93,0,2.41-.92.36-.71.34-1.64,1.55-1.19.05,0,.3-.45.45-.7s.31-.73.55-.81a11,11,0,0,1,1.83-.24c.18.31.3.78.56.88a12.15,12.15,0,0,0,2.06.49c-.49-1.47-.66-1.55-2.66-1.34l-.56-1.51-2.39,2.26-.24.54-.88-1.41c-.84,1.12-1.3.28-1.87-.46l-1.51,1.32a9.16,9.16,0,0,0-3.43-4.06c-.26-.15-.33-.63-.55-1.07l-1.29.69.49.58-.17.23-1.48-1c.71-.4,1.48-.46,1.75-1.36.21-.67,2.41-.39,2.89.32l.26-.13-.81-1.41.66-.16,0-.35-1.19.21a3.88,3.88,0,0,1-.83.07c-.07,0-.13-.22-.19-.34a2.39,2.39,0,0,0,.69-.37,13.92,13.92,0,0,0,1-1.3l-.22-.26-1.13.18-.76-2.87L233,45c.33.44.65.88,1,1.31s.54.92.92,1a4.73,4.73,0,0,0,1.61-.12l.09-.39c.25.33.47.69.74,1s.51.68.75.67c.83,0,1,.58,1.09,1.08a25.18,25.18,0,0,1,.37,2.56h2.53l-.32,1.16.43.12c.1-.35.21-.7.32-1l1.15.3c-.08-1-.15-1.93-.25-3.14l-1.21-2.1,1.18-.75c.3.66.26,1.71,1.47,1.07-.28,3.11,1.36,5.21,3.73,7.07,0-.44.1-.93.15-1.43l-.24,0,1.33-1.86-1.56.25c-.45-1.11-2.12-1.8-1.38-3.23A11.32,11.32,0,0,1,245.23,47a15.21,15.21,0,0,1-1.11-2.29c.84-1.14.42-2.46-.11-3.6-.32-.68-1.13-.44-1.69.41l-4.44-2.24c1.35-.89,1.22-2,1.41-3.08A29.27,29.27,0,0,1,240,33.3a1.47,1.47,0,0,1,1,0c.67.32,1.29.76,2.1,1.25-.3.32-1,.73-1.15,1.3s.24,1.1.41,1.74l3.1-1.13c-.11-.66-.1-1.49-1.38-1.36-.13,0-.35-.86-.38-1.45,1.41,1.34,2.67,1.55,3.9-.29.09-.76.22-1.77.35-2.79l-3.41.6-.7-4-.55.24-.75-2h3.37v.33l-1.15.36.26,1.39,2.3-.42,2.58,2.2a3.08,3.08,0,0,0-1.21.59c-.18.21.11.83.16,1.16-.09.51-.17,1-.31,1.77.79-.43,1.26-.66,1.7-.94,1.06-.69,1.53-.56,2.09.63a3.9,3.9,0,0,0,.26.37c.43-.63.8-1.16,1.16-1.7l.3.14-.08.91c.1,0,.19.12.23.1s.37-.18.36-.26a28.38,28.38,0,0,0-.47-3.8c-.08-.34-.83-.65-1.31-.72-.94-.15-1.65-1.17-1.1-1.95A4.09,4.09,0,0,0,252.5,23c0-.65,1.07-1.3,1.43-1.71,1,.61,1.8,1.09,2.58,1.64a1.53,1.53,0,0,1,.38.75c.22.64.49,1.16,1.33,1-.31-2-.28-2.13.94-3.45L257,20.94c-1.36-.78-1.22-2.33-1.09-3.84l1.13.68a2.38,2.38,0,0,0,2.38,1.88c-.19-2-.19-2-2-1.75a1.66,1.66,0,0,1-.46-.1V16.12c.84-.47,1.57-.08,2.33.55s1.72,1.2,2.76,1.9l-1,.52a4.15,4.15,0,0,1,.89.39,1.7,1.7,0,0,1,.54.68c.06.11-.14.49-.2.48a6.36,6.36,0,0,1-.83-.22c-.36-.09-.84-.34-1.08-.2a1.73,1.73,0,0,0-.8,1.09,15.77,15.77,0,0,0,.33,1.88,5,5,0,0,1-.29,1.29l-.41.25a6.51,6.51,0,0,1,1.32.65c-.31,1.18.66.79,1.2.95a10.73,10.73,0,0,1-.75-1.62c-.07-.28.18-.64.29-1,.25.23.63.41.74.69.88,2.38,2.78,3.27,5.1,2.32.21-.09.35-.31.52-.46-.8-1.18-3.22-1-2.72-2.95l1.87-.73-.09-.37-1-.2.68-.5a19.33,19.33,0,0,0-2.08-2.07c-1.44-1.08-.45-2-.1-3a15.13,15.13,0,0,0,1.32,1.62c.51.48,1,.15,1-.41s.49-1.69-.83-1.77l-.12,0c0-1.15-.95-1-1.63-1.27-1.65-.67-1.7-.82-1.49-2.76.7.27,1.37.59,2.07.8s1.37.29,2.09.43l.11-1.75,3.37,1c0-1.79-.16-1.91-1.5-1.82-.19,0-.42-.21-.58-.37-.76-.8-1.56-1.35-2.64-.55-.32-.82,1-1.83-.11-2.36a13.34,13.34,0,0,1,.49-1.51,15.87,15.87,0,0,0,1-2,3.66,3.66,0,0,0-.12-1.81c.47-.5.5-1.7,1.7-1.63-.2,1.1.7,2.72,1.6,2.69,1.12,0,1.32-1,1.49-2,1.24-.42,1.53.41,1.94,1.41a3.12,3.12,0,0,1,.24-.71c.13-.19.36-.44.55-.45s.42.28.48.49c.27.82.24.81,1,.38a.8.8,0,0,1,.57-.07c.68.18.67-.23.87-.73s.83-.91,1.31-1.31c.09-.08.52.1.52.11-.21,1.14.83.69,1.26,1,.08.82-.82,1.74.2,2.51L281,1.73c1.52.31-.06,1.53.7,2l-.9.54.2.38,1.94-1.09a11.06,11.06,0,0,0,.31,2.13,3.57,3.57,0,0,0,1.13,1.88c.71.41,1.29.56.74,1.49,0,0,.14.16.29.33.32-.83.42-1.92,1.78-1.38,0-.47.06-.85.1-1.28l1.6-.1c-.26.82.12,1.8-1.08,2.22-.31.11-.44.77-.71,1.28.88.19,1.47.49,1,1.43-.06.11.16.51.3.53a.92.92,0,0,0,.73-.19c.54-.64,1-1.34,1.5-2,.75.56,2.21.28,2.11,1.61a9.68,9.68,0,0,1-1,2.61h2.42l-1.46,2.32.93.23-.19,1.18a2.22,2.22,0,0,1-.52-.37c-.07-.08,0-.28-.08-.43-.06.42-.91.77,0,1.31.22.14.1.82.14,1.34-1.46-.64-3.56,0-4,1.11h-2.31l-.05.18.89.35v.18l-.65,0c-.43.53.94,1.66-.54,1.72.13.37.25.72.39,1.07s.28.61.42.92a5.39,5.39,0,0,0,.71-.55c.63-.64,1.24-1.32,2-2.09a1.84,1.84,0,0,0,3-.32c-.42-.21-1-.32-1.25-.66a1,1,0,0,1,.31-1.62l1.14.45-.59,1.25,2.05-.92c.2-.1.42-.34.59-.31.59.11,1.5-.53,1.69.51A1.89,1.89,0,0,1,295.4,23a11.29,11.29,0,0,0-2.25,1.28c-.62.52-.27,1.27.41,1.7a2,2,0,0,0,2.69-.16,1.38,1.38,0,0,1,1.28,0c.57.34,1.29.73,1.05,1.66-.16.65,0,1.15,1,1.29l1.72-3,1.11,1.61,1-.41.16.24c-.32.36-.64.72-1.09,1.25a25.62,25.62,0,0,0,2.46.89c.25.07.6-.26.92-.39l1.15-.46c0,.49.19,1.08,0,1.45s-.81,1-.19,1.39c.31.22.94,0,1.6,0a2.44,2.44,0,0,1,.12.24l1.53-2.14,2.34,4-.6.64a3.55,3.55,0,0,0,3.63-1.59c.59-1.36,1.58-2,2.71-1.72-.74,1.42-.95,3.08-2.66,4-.9.47-1.45,1.65-2.08,2.57-.16.25,0,.69-.19.86l-.56.58.21.24,2.19-.43A8.66,8.66,0,0,1,313.83,41c-.94.88-.75,2-1.29,3.3.55-.21.84-.29,1.12-.42a8.73,8.73,0,0,1,1.29-.66c1.19-.35,1.37-.72.62-2.09l3.6-1.42a6.81,6.81,0,0,1,1.26.4,1.49,1.49,0,0,1,.65.73,6.05,6.05,0,0,1,.23,1.2l-1.84,2.24c1.25,1.5,2.47-.64,3.68.07.17-1-.7-2-.15-3.05,0-.08-.17-.26-.19-.4s-.11-.69,0-.76a1.42,1.42,0,0,1,.93-.18,4.19,4.19,0,0,1,1,.46c-.09.39-.22.91-.36,1.5.64.31,1.28.56,1.41-.45l1.88-.21-1.26-2.15c.57-.59,1-.46,1.39.48.23.56.48,1.1.81,1.83l-.39.68,1.49.15,1.49-4.88,1.59,1.27-1.07,2.22,1.38-.3c-.12,1.07-.21,2.08,1.12,2.35a9.12,9.12,0,0,1-.46,2.21,9,9,0,0,1-1.36,1.76l-1.31-.44.18-.19-.84-.72-.26.23.3,1c-3.06,1-4.9,3.35-6.46,6.07l.58.68-1.53,1-.87-1.59c1.49-.14,1-.93.66-1.63-.75-.16-1.48-.34-2.21-.44a1.41,1.41,0,0,0-1,.09c-1.6,1.31-3.56,1.13-5.42,1.41-.94.14-1.88.32-2.81.52-.14,0-.22.32-.36.45-.58.53-1.11,1.34-1.79,1.51-1,.26-1.14,1-1.35,1.72a9.1,9.1,0,0,0-.11,1.66l.65.35,1.26-1c-.22-.66.09-1.17,1-1.37a1.38,1.38,0,0,0,.6-.34c.88-.83,2.14-1,2.82,0,.52.75,2,1,1.52,2.43-.05.17.6.56,1,1l1.26-.88-1.25-.82,1.45-2a5.52,5.52,0,0,1,.8,1.53,4.21,4.21,0,0,1-.16,2.09c-.22.57-.38,1.38-1.55,1.05-1-.28-2.9,2.16-2.81,3.21a6.74,6.74,0,0,1-.16,1.39l1.24-.28.12.24-1.77,1.09c-.29.18-.77.32-.84.56a21.61,21.61,0,0,0-.69,3.27c0,.22.24,1,.92.4.18-.15.57-.07.86-.09-.13,1.17-.25,1.22-1.51.79a15.27,15.27,0,0,1,.31,1.68c0,.12-.36.43-.51.4a8,8,0,0,1-1.32-.47c-.13.12.36.74,1.75,1.22.06,1.1.12,2.14.18,3.17l-.37.06.67.39,1.21-1V72.73c1.83.63,2.78-.42,3.87-1.16a18.45,18.45,0,0,1,1.67-.89c.42.88.77,1.95,1.42.34.05-.11.59,0,.89,0s.79-.17,1,0c.67.43,1.44-1.23,2,.09a15,15,0,0,1,.53,2.1c.73.25,1.85-.08,1.87,1.32,0,.18.64.35,1,.54l.48-1.15a13.83,13.83,0,0,1,2.7.6c.43.18.67.82.88,1.36.29.28,1.18-.43,1.09.69,0,0,.14.11.2.11l2.75-.36,0-.29,1.42,1a3,3,0,0,1,.47,2.47c-.09.15-.21.37-.16.5a2.09,2.09,0,0,1-.42,2.45l-1.53-.77-1.09,1,1.33.5-.89.15.35.4.51.68-.85,1,1.95.17-.29,2.14a6,6,0,0,1-3.46-3.16l-2.22,1-2.42,1c.39.26-.13,1.28.95,1.26a3.67,3.67,0,0,1,.17,1.34,7,7,0,0,1-.57,1.5l2.5-.31-.18-.39c.34-.41.62-.78.93-1.14s.5-.51.76-.77a2.42,2.42,0,0,0,.5.72c.52.36,1.08.64,1.88,1.1L335,90.93l1.54,1.5.76-1.32.29.14-.2.91a15,15,0,0,1,1.89.65c.9.45.51,1.11.13,1.7s-.48.94-1.43.7a9.39,9.39,0,0,0-3.6.19,2.18,2.18,0,0,1-2.4-1.27c-.11-.28-.44-.49-.68-.73s-.52-.31-.57-.52c-.27-1.16-1-1.35-2.22-.86l.68-1.7c-1.22-.1-2.47-.21-3.72-.29a4.86,4.86,0,0,0-.84.12l.6.82-.75.19c.47.28.86.38,1,.64s.07.64.11,1.33L326.94,92l1,1.41c.81-.53,1.75-.84,2,.85-.34,0-.77-.13-1,0s-.55.6-1,1.12L327.11,94l-3.86,1.76.05.39,4.45-.33.11.43-2,.61.05.39c.62,0,1.26,0,1.88,0a17.54,17.54,0,0,1,2.48.4s.07.9-.13,1c-1.18.81-1.29,1.86-.17,2.59l-.73,1.83,2.33,1.31-.41.79,1.09-.39c.15.28.28.86.59,1s.7-.39,1.1-.5a9.62,9.62,0,0,1,1.91-.37c.87-.06,1.74,0,2.63,0,0,.35-.1.8-.17,1.36l2-.22L339,104.76l1.44-1.37-.1,1.72c1.41-.56,2.74.84,4.15-.2.23-.17.8,0,1.16.15a19.91,19.91,0,0,1,2.46,1.19,1.85,1.85,0,0,1,.66.9,9.71,9.71,0,0,1,.4,1.52L350.9,107l.19,1.62a2.46,2.46,0,0,1,2.47,2.33,3.06,3.06,0,0,0,.42,1.1c.14.23.52.5.71.45a1.09,1.09,0,0,0,.71-.66c.2-1.34,1.22-2,2.17-2.65.09-.07.23-.19.31-.16a18.51,18.51,0,0,0,1.86.63c.64.12,1.28-.08,1.61.86a1.26,1.26,0,0,0,1.61,1c.3-.09,1,.39,1.21.76a26.78,26.78,0,0,1,1.47,2.59l-.91.69c1.62-.07,1.8-.32,1.75-1.87l1.18,1.31a5.3,5.3,0,0,1,.21,1.49,5.9,5.9,0,0,1-.6,1.82c-.23.44-.84.72-1,1.16-.43,1.55-1.49,1.15-2.29.66s-1.06,0-1.22.57-.27,1.38-.43,2.23c1.05-.21,2-.34,3-.61a1.82,1.82,0,0,1,2.16,1c.18.59,0,1.46.37,1.78.79.72-.33,2.3,1.29,2.58.22,0,.31.81.29,1.34l-1.25-1.35v1.48l-1.08-.54c-.27.88-.53,1.67-.8,2.54l-.9-.43.41-1c-1.71.56-.91-1.36-1.85-1.62.52-1.08,1.05-.76,1.51-.11l1.25-1.79c-1.11-.63-2.19-1.29-3.31-1.85a1.56,1.56,0,0,0-1.25-.13c-1.05.64-2.07.19-3.09.07-.58-.07-1-.15-1,.69a2.3,2.3,0,0,1-2.25,2.37c-.09,0-.17.13-.27.22,1.58.36,2.62,1.16,2.63,1.85h2.31a6,6,0,0,1-1.72,3.48,1.13,1.13,0,0,0-.3,1.53,3.32,3.32,0,0,1,.18,1,14.44,14.44,0,0,0,1.68.62,16.38,16.38,0,0,0,1.75.25,6.65,6.65,0,0,0,0-1.41,16.34,16.34,0,0,1-.65-2.75c0-.49.61-1.05,1.06-1.45.09-.09.91.31,1,.6a29.13,29.13,0,0,1,.55,3,1.2,1.2,0,0,0,.09.27c.61.11,1.23,0,1.53.32s.3.91.45,1.5c.54-.71,1.07-1.13,1.21-1.65a10.23,10.23,0,0,0,0-2.4l1.82,1.25a1.72,1.72,0,0,0,0-2.17,6.48,6.48,0,0,1-.66-1.32l2.6-.43c-.45-1-.84-1.78-1.24-2.61l.19-.23c.9.65,1.78,1.32,2.7,2a4.72,4.72,0,0,0,.86.36,2.41,2.41,0,0,0-.06-.94,10,10,0,0,0-.84-1.13c-.33-.48-.94-.87-.51-1.63.08-.14-.39-.6-.31-.73.18-.28.77-.43.79-.67a3.72,3.72,0,0,0-.21-1.88c-.22-.46-.65-.34-1.12.11s-1.91-.15-2.06-1c-.06-.37-.1-.74-.13-1h-1.49a11.94,11.94,0,0,1,.61-1.92c.17-.36.63-.57,1.05-.93.13.37.23.66.34,1s.23.5.49,1.08c.34-.51.74-.83.76-1.18.07-.91.41-1.14,1.31-.72a2,2,0,0,0-.23.68c0,.4,0,1,.26,1.15a1.37,1.37,0,0,0,1.17-.16c1.07-.61,2.08-1.31,3.24-2.07.33.84.75,1.93,1.24,3.22-1.36-.62-1.11.18-1.14.74l1.6-.16c0,1.48-.09,2.75,0,4s.49,2.24.63,3.38a1.62,1.62,0,0,1-.39,1.23c-.64.55-.63,1.08-.42,1.43,1.06,0,2,0,2.89,0,.5,0,1.14-1.08.69-1.46-1.16-1-.3-1.78,0-2.52l1.44-.1.06-.34-.7-.66,2.52-2.25c.42.64,1.31,1.11.73,2.34a1.18,1.18,0,0,0,1.2,1.78v-2.57l.46-.15a3.21,3.21,0,0,1,.44,1c0,.9,0,1.79-.05,2.68a1,1,0,0,0,.1.45c.18.41.38.79.74,1.51.15-.06.72-.09.9-.37.5-.78,1.11-.62,1.79-.47.42.09.87,0,1.28.16.23.06.57.37.55.52a2.63,2.63,0,0,1-.46,1.09c-.1.16-.4.19-.61.27l.33.5,1.22-.42c.41.81-.56,2.63-2.15,3.8.67,1.26.49,1.79-1.15,3.26l1.21.71-1.24,1.06.06-1.16c-.52.16-1,.27-1.41.43-.13,0-.33.18-.33.27,0,.28,0,.73.18.79.62.24.23,1.63,1.43,1.2A9.23,9.23,0,0,1,392,142c0-.28-.22-1.07.05-1.34a6,6,0,0,1,2-.81v1.61A5.78,5.78,0,0,0,395,141a6.31,6.31,0,0,0,.7-.67l.3.12v2.93l2.69-1.5c-.29,1,.77,2.14-.55,2.87a21.32,21.32,0,0,0-2.56,2h1.85c.32,1.21-.94,1.3-1.55,2.14,1.15-.23,1.84,0,1.56,1.28l3.44-.89a1.07,1.07,0,0,1,.07.34,2.39,2.39,0,0,1-.09.45c1.32.69,1.33-1.39,2.73-1.16l-1.46,2,1.32-.19a1.88,1.88,0,0,1-2.63,1c-1.67-1.07-2.9-1.13-2.88,1.17a15.1,15.1,0,0,1-1.72,1.46,4.15,4.15,0,0,1-1.56.58,5.16,5.16,0,0,1-1.33-.17l-.09.35c.66.23,1.33.45,2.05.71-1.42,1.23-.08,2.6-.18,3.88,1.82-1.18,3.57-2.3,5.92-1.7-.25.74-.24,1.34,1.28.87L401,161.61l5.08-.75c1,1.29-1.22,2.16-.53,3.41a1.54,1.54,0,0,1-.32.08l-1.11-.1a3.27,3.27,0,0,0,.81.56,7.48,7.48,0,0,0,1.4.16c-.19-.36-.39-.58-.34-.7s.4-.57.48-.53a3.7,3.7,0,0,1,.8.63l1.77-.57-.2,1.29a5.89,5.89,0,0,0-1.4.58,2.66,2.66,0,0,0-.68,1.1c0,.1.43.55.55.5a5.69,5.69,0,0,0,1.13-.73l.83.42v-1.14l1.4-.67a18.38,18.38,0,0,0,.2,2.43,6.45,6.45,0,0,0,1.39,0c0,.12-.14.62,0,.7.62.37,1.71.49,1.87,1,.34,1,.87,1.06,1.77.88-.13-.53-.25-1-.39-1.61l.75-.65a5.64,5.64,0,0,0,2,.4c.52-.09,1-.69,1.61-1.22l.46,2.37.28-.09c0,.53-.08,1.06-.13,1.74-1,.38-2.38.59-2.9,2.12-.08.23-.77.26-1.37.43l2.5,2c-.83.9-1.39.91-2.32,0A2.56,2.56,0,0,0,415,179a.76.76,0,0,0,.57.3,7,7,0,0,0,1.65-.2c1.23-.34,2.43-.74,3.64-1.13,2.16-.71,4.31-1.45,6.48-2.12.92-.29,1.92-.35,2.84-.65,1.86-.59,3.68-1.31,5.54-1.9,1-.31,2-.46,3.12-.72l-1.83-2.5h.9l2.29-3.49a3.52,3.52,0,0,1,1.07.57c.85.87,1.17.75,1.83-.28a5.12,5.12,0,0,1,2-1.61A10.29,10.29,0,0,1,448.4,164a9.78,9.78,0,0,1,3,.58c.26.06.5.26.77.32a1.35,1.35,0,0,1,1.2,1.79,4.07,4.07,0,0,0,0,.79l1.46.39-.66,1-1.28-.53c-.94,1.75.22,2.82,1.84,2.86,1.09,0,2.18,0,2.94,0a17.8,17.8,0,0,1-.32-3.2c.11-1.45-.23-2.28-1.64-2.76-1.71-.57-3.29-1.63-5.22-1.5a.76.76,0,0,1-.61-.43,1.43,1.43,0,0,1,.3-.83c.31-.47.67-.89,1.16-1.52l.51.11c.23,1.08.23,1.08,1.19.89-.21-.86-.42-1.73-.65-2.71-.92-.38-1.12.39-1.3,1.17-.82-.9-.74-6,.19-7.36l.28,3.81.35,0a1.42,1.42,0,0,1,2-1c.7.19,1.26.89,1.89,1.38-.36,1.19.06,1.59,1.46,1.33.87-.17,1,0,.7,1,.25.37,1.84.53.23,1.34,1.58.67,3,1.39,3,3.4a2.36,2.36,0,0,0,1,1.54c.41.29,1.26.62,1.29-.54a1.83,1.83,0,0,1,.33-.71,1.2,1.2,0,0,0-.19-1.75,4.62,4.62,0,0,1-1-3c0-.93-.2-1.06-1.17-.91a5.35,5.35,0,0,1,.52-.56c.61-.44.41-.74-.12-1.07-.26-.16-.67-.54-.62-.65a2.85,2.85,0,0,1,.82-1,3.81,3.81,0,0,1,1.09-.43l.5.85.37,0c.14-.71.25-1.41.41-2.11a5.53,5.53,0,0,1,.33-.85c.25.27.7.54.7.81,0,1.65.77,3,1.45,4.4.22.46.07,1.09.29,1.55a3.34,3.34,0,0,0,1,1.25,8.66,8.66,0,0,0,1.85,1.05c.24.1.61-.1,1.23-.23l-1-.55c.24-2.54.47-5,.71-7.46l1.13.22-.57,1.16c1.19.8,2.23,1,2.84-.47l1.49.52-.11-.8.83-.24c-.12-.56-.21-1.1-.34-1.63s-.06-.81.61-.8c.32,0,.93-.32.92-.45a4.27,4.27,0,0,0-.48-1.45,3.34,3.34,0,0,0-.69-.65l.92-.56-.09-.42-2.26.16c-.29-1.39.34-1.95,1.82-1.51.72.22,1.24-.14,1.09-.74a1.51,1.51,0,0,1,.77-1.86,1.45,1.45,0,0,0,.39-.69c-.43-1.08-.84-2-1.12-2.86s.22-1.15,1-1c1.42.29,1.54,1.39,1.7,2.47,1.26,0,2.51-.07,3.75,0A6.58,6.58,0,0,1,486,143c1,.38,1.23,2,2.64,1.78.23,0,.46-.11.69-.16-.1-.23-.15-.54-.33-.68a9.66,9.66,0,0,1-1.28-.82,3.67,3.67,0,0,1-.46-1.24l.28-.13-1-.49c-.46.23-1,.66-1.15.55a16.16,16.16,0,0,1-1.73-1.69l1.1-1.46a2.5,2.5,0,0,1,2,1.48,2.16,2.16,0,0,0,2.62.95,9,9,0,0,1,1.26-.12c-.1-.24-.24-.75-.31-.74-1.62.21-1.26-1.71-2.3-2.11-.09,0-.13-.37-.09-.54.59-2.18.45-2.49-1.42-3.4a1.32,1.32,0,0,1-.68-.76c0-.18.36-.5.61-.69s.83-.57,1.49-1l-1.54-.66,2.48-2.68-.12-1.15c.42.27.79.38.87.59.52,1.41,1.15,1.75,2.74,1.37-.28-.54-.6-1.06-.84-1.62-.11-.23-.19-.65-.07-.77,1.09-1.12.51-2.09-.36-3.07l.19-.27a6,6,0,0,1,1.35.12c1.39.48,1.63.36,2.26-.89.18-.36.74-.52,1.42-.95a1.45,1.45,0,0,0-.74-1.77,5.65,5.65,0,0,1-1.11-1.3l.24-.26,2.11.48c.46-1.32,1-1.41,2-.48.64.56,1.3,1.1,1.95,1.65l.26-.26c-.14-.43-.28-.86-.39-1.22a9.6,9.6,0,0,0,1.35-.79c.42-.37.21-1.48-.31-1.57a4.22,4.22,0,0,0-2.32-.1c-1,.51-1.44,0-2.13-.48l.6-1.29c-1.88.09-3.7.39-5.26-1l-.7.37,0-.31-2.34-.28a.49.49,0,0,1,.18-.35,2.74,2.74,0,0,0,1.44-1.67c-.69-.18-2,1-2.8,2.71-1.22-.39-2.39-.53-3.14.9-.1.19-.71.15-1.08.15a7,7,0,0,1-1.06-.24c.11,1,.19,1.79.29,2.73h1.79c-.94.61-1.65,1.23-1.17,2.36-.71.22-1.35.46-2,.61a1.84,1.84,0,0,1-.92-.09,17.06,17.06,0,0,1,.07-1.89l1.27.1c.15,0,.29.07.48.11a1.82,1.82,0,0,0-2.62-.59,1.77,1.77,0,0,1-1.67,0c-.45-.37,0-.91.45-1.27s.57-.74.9-1.07a4.72,4.72,0,0,1,1-.71c.51-.26,1.05-.45,1.58-.66l-.73-1.4.92-.91-2.41-1.35.9-.76c-.94-.42-1.52-1.37-2.82-.72-.59.3-1.58-.18-2.5-.32.43,1.12,0,2.55,1.56,3l.89.27c0-.28-.06-.56-.07-.84a4,4,0,0,1,.08-.53l2.72.71a17.1,17.1,0,0,1-.55,1.84,4.11,4.11,0,0,1-.72.86,3.16,3.16,0,0,0-.78,1.31l-1.46.29-.44-1.63a8,8,0,0,1-1.41.3,2.69,2.69,0,0,1-1-.36c-.45-.19-.89-.4-1.34-.6,0,.43-.06.86-.08,1.29s0,.87,0,1.31c-.41-.17-.83-.33-1.23-.51-1.3-.54-2.29-1.79-3.93-1.61-.34,0-.74-.45-1.12-.69l.91-1.29c-.43-1.05-.88-2.15-1.32-3.26-.06-.14,0-.32-.09-.45-.7-1.5-.71-1.49.79-2.21a3,3,0,0,0,.3-.19,1.73,1.73,0,0,1,1.62-2.39l-.06-.62c.21,0,.52-.13.62,0a11.28,11.28,0,0,1,.93,1.12l.35-.17-.3-1.26c.68-.41,1.32-1.26,2.16,0,.25.39,1.06.47,1.63.56.17,0,.58-.41.58-.63a12.48,12.48,0,0,0-.36-1.89l3.23-.3c-.1.81-.17,1.36-.23,1.91l.31,0a1.7,1.7,0,0,1,2.84-.67,1.11,1.11,0,0,0,1.6.43,1.87,1.87,0,0,0,.84-1.77,8.56,8.56,0,0,0-.13-1.33l.34-.14.59.76a19.29,19.29,0,0,1,3.76-1.54c1.24-.24,2.48-1,3.9-.32.4.2,1.14-.27,1.69-.43l-.54-2,5.22,2.1c-.7-2-3-2.88-3-5.44l2.23,1.06a17.76,17.76,0,0,1,1.72-1.21c.78-.43.35-.71-.24-1.18,1.15-.28,1.14-2.06,2.69-1.61l.36-1.27-.85-2.5c-.35-.93-.7-1.85-1-2.78l.28-.2,2.9,1.77c-.28,1.49-.56,3-.84,4.42.72-.06,1.29-.14,1.86-.14.17,0,.36.2.5.35a7.68,7.68,0,0,1,.58.68l.33-1c.4,0,.94-.08,1,.82,0,.44.53.87.82,1.3a17.83,17.83,0,0,0,1.29-1.32,19.26,19.26,0,0,0,1.1-1.63c-.29-.58-.7-1.41-1.12-2.23l.27-.23a3.39,3.39,0,0,1-1.09-.33,3.81,3.81,0,0,1-1.28-1.31c-.33-.73-.9-1.49-.5-2.41a.26.26,0,0,0,0-.23c-.48-.32-1.08-.76-.71-1.33a23.27,23.27,0,0,1,2.35-2.9c.1-.11.56.1.85.19a8,8,0,0,1,.81.36c-.31-1.9-.31-1.9,1.22-2.81-.95-1-1.14.48-1.69.32l-2.9-.76-.09.33-.63-.58c-.11.27-.21.55-.36.93l-.93-.08.34-1.26-1.65-1.59.19-.26c.56.16,1.11.34,1.67.48.25.06.7.15.75.06a5.5,5.5,0,0,0,.87-2,1.23,1.23,0,0,0-1.32-1.49c-1,0-1.41-1.09-1.95-1.82a1.36,1.36,0,0,1-.13-.47c-.19-.63-.39-1.25-.58-1.88l.32-.34a19.64,19.64,0,0,0-2.17,0c-1.09.12-1.29-.52-.77-1.16a1.75,1.75,0,0,0,.08-2.27l.92-.22a9.08,9.08,0,0,1,.74-1.55c.09-.12.57.06.86.1-.12.4-.25.8-.42,1.33l1.18.48c.09.82.17,1.64.28,2.65,1-.11,1.44.62,1.93,1.54.23.44,1.09.53,1.52.71V63.38l-2.34-.81c.43-.77.7-1.55,1.68-.71.1.08.47-.07.65-.21s.58-.53.88-.48l2.59.65.6-2.33c.15.09.63.22.8.52a2.32,2.32,0,0,0,2.1,1.4c1.18.08,1.39,0,1.1-1.12a3,3,0,0,1,0-.5c.37,0,.91-.16,1.07,0,.74.83,1.13.35,1.51-.33,1,.71,1.93.95,3-.06.42-.4,1.45-.14,1.9-.41a6.43,6.43,0,0,1,1-2.06,2.69,2.69,0,0,1,1.93-.39c.83.08,1.65.61,2.27,0-.42-.48-.7-.77-.94-1.09-.72-.94-1.45-1.82-2.8-1-.35-1.31-.5-1.34-1.9-.49-.67-2.15-2.66-2.92-4.26-4.09a3,3,0,0,1-.28-3.67,19.61,19.61,0,0,0,.92,1.76c.13.19.5.22.76.32a2.31,2.31,0,0,0-.06-.8c-.21-.42-.77-.74.08-1.16.22-.11.3-.88.15-1.24a7.22,7.22,0,0,0-1-1.38c-.33-.44-.62-.91-1-1.42,1.24-1.44-.9-1.78-1-2.41l.9-2.83,1.39.62V35.08l1.59-.75a11.66,11.66,0,0,0,.57,1.62c.13.24.57.56.73.5.85-.35,1.1.12,1.42.77a7.09,7.09,0,0,0,1,1.23l1.55-.68c-.05-.25-.1-.59-.17-.92s-.21-.62-.16-.65c1.13-.66.67-1.93,1.13-2.79.25-.48,1.12-.75,1.75-.85.43-.08.79.27.93.93A10.2,10.2,0,0,0,530,35.91h2.62l-1.72-2.15,1.5-.49a5.93,5.93,0,0,1,.23-1.45c.41-1-.35-1.69-.77-2.38-.14-.23-1,0-1.65,0l.62-2.83c1-.55,1.88-.19,2.89,1.23l.79-.55c-.25,1.27-.64,2.49,1.31,2.89l-.8-1.37,2.31.49V26.78a2.19,2.19,0,0,0,.84-3.09l1.4-4.05c1.74-.22,3,1.64,4.9,1.54-.33.5-.67.93-.92,1.41-.11.21-.16.66-.05.73a1.1,1.1,0,0,0,.86.16,1,1,0,0,0,.54-.65c.19-1.71.24-1.75,1.55-.9.1.06.24.16.32.13,1-.36,1.39.33,2,.91,1,1,1.43.91,2.87-.21.47-.36.88-.74.56-1.5-.12-.3.22-.79.35-1.19.48.21,1.31.34,1.37.63a6.15,6.15,0,0,0,1,2.13c.42.65,0,1.35-.52,2a21.46,21.46,0,0,0-1.52,2.12l.21.39h-2.06c1.44-.55,1.15-1.73,1-3a3.91,3.91,0,0,0-1.64,1.14c-.13.17.36.78.54,1.21a4.61,4.61,0,0,1,.16.64c0,.94.73,1.24,1.68.65.42-.27.75-.69,1.15-1a4.47,4.47,0,0,1,.71-.4,4.78,4.78,0,0,1,.08.84,6.51,6.51,0,0,1-.21,1.05,8.22,8.22,0,0,1-.3.81c.54.44,1,.86,1.54,1.24s1.31,0,1.64-.94a8.35,8.35,0,0,0,.14-1,10.28,10.28,0,0,1,.35-1h-1.72l-.14-.28a3.85,3.85,0,0,1,.87-.75c.58-.3,1-.56.66-1.35,0-.06.83-.77,1-.68a15.36,15.36,0,0,1,2,1.54,18.7,18.7,0,0,0-1.26,1.88,1.4,1.4,0,0,0,0,1,3.25,3.25,0,0,1-1.6,4.15c-.26.13-.3.7-.44,1.06.32,0,.65,0,1,0a.76.76,0,0,0,.31-.18c1.17-.86,1.17-.86,2.58-.6.22,1.06.17,1.75-1.27,1.88-.54,0-1,1.19-1.35,1.69L556.67,38l2.32.89c.58-.43,1.3-1,2.08-1.5a.85.85,0,0,1,.8.27,9.65,9.65,0,0,1,.64,1.66c-.75,1-1.24,2.42-2.66,3.3-.56.35-.57,1.57-.84,2.4l.35.21,2.91-1.37c.08,1.23-.94,2.32-.21,3.23l1.51-1.21a1,1,0,0,0,.29-.36c.21-.53.41-1.08.73-2l2.46,2.39-.25.39,2,.21a8,8,0,0,0,.31,1.62c.09.21.61.25.93.37l.16-.33-.56-.8c.6-1,1.38-.74,2.11-.15.43-1,.42-1.87-.63-2.22-.87-.29-1.23.29-1.28,1.1h-1.6c.17-.58.3-1.05.45-1.51s.3-1.06.5-1.57a3.05,3.05,0,0,1,.51-.64c.2.19.58.37.58.57.05,1.38,1.27,1.23,2,1.44s1-.85.45-2l1.7-1.08c.08,1.56.14,2.93.22,4.57l1.73-.53c1.08,3,3.22,1.34,5.24.83-.62,1.31-1,2.35-2.62,2.13a4.12,4.12,0,0,0-2.66.74c-.89.65-1.52.19-2.3,0a3,3,0,0,0-1.35.16c-.66.19-1.31.69-1.94.65a2.54,2.54,0,0,0-2.53,1.56c-.42.74-.64,1.76-1.73,1.92-.57.08-1.16.13-1.73.23a2.5,2.5,0,0,0-1,.45,4.7,4.7,0,0,0-4.72,1.85c-.17.27-.17,1,0,1.07.33.17,1,.24,1.17,0,.5-.69.84-.34,1.27,0,.62.5,1,.55,1.5-.31.41-.65,1.46-.94,2.26-1.29a9.77,9.77,0,0,1,1.56-.38,7.9,7.9,0,0,0,1.42.91,1,1,0,0,0,.86-.3c.12-.13,0-.59-.13-.79-.65-.89-.33-2.06.77-2.1a3.61,3.61,0,0,0,2.25-.93,3,3,0,0,1,.54-.26c.1.77.18,1.42.24,1.87-.51.12-1.26.18-1.28.31-.06.7-.16,1.87.16,2a8.62,8.62,0,0,0,2.88.31c-.36-.73-.52-1.07-.71-1.46.91-.7,1.79-1.42,2.72-2.08.21-.15.57-.09.87-.13a3.53,3.53,0,0,1,.09.9,17,17,0,0,1-.61,2.63,8.76,8.76,0,0,1-1,1.6.52.52,0,0,0,.26.05c1.07-.11,2-.18,1.81,1.44,0,.45.56,1,1,1.61l-2.67,1,1.18.74-.08.18-1.16-.13-.53,2.11,3.1-.91.87,1.55c-.9.23-.94.74-.37,1.55a5.23,5.23,0,0,1,.49,1.46l-.43.35-2.95-2.2.14.94-.28-.13a17,17,0,0,0-1,1.95c-.43,1.19-1.05,2.06-2.47,2-.15,0-.32.16-.49.57l2.94.3A19.14,19.14,0,0,1,574,73.63c-.17.19-.52.22-.78.35a4.53,4.53,0,0,0-.55.34,3.25,3.25,0,0,0,.37.52,8.13,8.13,0,0,0,1.11.94,1.66,1.66,0,0,0,1,.35c1.42-.16,2.57.54,3.77,1.1a20.81,20.81,0,0,0,2,.68c0-1.14,2-2.84,3-2.39,1.35.66,2-.18,2.71-.91A19.38,19.38,0,0,0,588,72.87c.43,1.15.78,2.12,1.15,3.08a1.45,1.45,0,0,0,2.39.57c.27-.23.58-.42.93-.67.94.81,1.86,1.56,3.23.81.61-.34,1,.19.87.82-.24,1-.62,1.86.59,2.66.39.25.11,1.45.22,2.21,0,.33.32.91.48.91a15,15,0,0,0,3.42-.32c.42-.1.73-.83,1-1.33s.6-1.27,1.26-1c.27.66.63,1.11.6,1.54s.2,1.4-.8,1.39-1,.44-.6,1.13.83,1.57,1.3,2.46l.76-.44c.06.09.2.19.19.27a7.69,7.69,0,0,1-.32,1.34,1.25,1.25,0,0,1-.54.7c-.78.28-1.64.38-2.4.72a2,2,0,0,0-1,1c-.45,1.23-1.59,1.38-2.53,1.56-1.8.33-3.65.38-5.66.57.26.47.41.74.58,1-1.19.86-3.28,1-2.49,3.54l3.27-1.92c.65,1.79-.2,2.78-1.76,3.47a8.35,8.35,0,0,0-2.4,1.28,7.5,7.5,0,0,1-2.51,1.65,2.19,2.19,0,0,0-.9,1.63c0,.33.61.88,1.06,1.06.67.27,1.48.19,2.14.47a8.31,8.31,0,0,1,1.89,1.31c.22.18.27.55.34.68l4.16-.34c.07.59.13,1.07.22,1.81l.87-1,.35.1-.36,1.48c-.11,0,0,0,.12.06l.4.16c-.65.77-.85,1.46.32,1.88.14,0,.17.34.28.5.59.83,1.14,1.62,2.42,1.17.36-.13.92.26,1.34.5.06,0-.18.56-.24.86s-.08.43,0,.52a.57.57,0,0,0,.51,0c.74-.41,1.55-.8.88-2l2.8-.64c-.49,1.83-.88,3.32-1.27,4.82l-.09,0c-.11.53-.24,1-.3,1.58a1.79,1.79,0,0,0,.06,1c.56,1.07,1.2,2.05,1,3.4-.07.42.55,1,1,1.37l-.24-.71c.53-.41,1.88.94,1.74,1.6,0,.11,0,.23,0,.41l2.22,1.37-.67.93,3.53-.26c-.19.62-.32,1.08-.46,1.54l.31.14,1-1.14a5.48,5.48,0,0,1,.34,1.59c-.06.69-.19,1.18.79,1.31s1.07,1,.5,1.67a5.16,5.16,0,0,0-.56,1.21c.37.06.74.1,1.1.18a5.71,5.71,0,0,1,1.16.33c1.16.56,1.51.38,1.71-.92l1.91,1.16-.19.88,1.84-.19c-.06.31,0,.73-.2.85-1.32,1-2.1,2.62-3.89,3-.36.07-.9.22-1,.49s-.26,1.24-.05,1.38a1.76,1.76,0,0,0,1.54.14,29.47,29.47,0,0,0,2.79-2.1c1.48,1,2.83,1.83,4.06,2.79.66.52,1.36,1.13,1,2.26-.13.42.26,1,.42,1.51v1.2a11.06,11.06,0,0,1-4.4.89c-1,0-1.65.38-1,1.51.29.48.66.91,1.06,1.45l-2.86,1.28,1.3,2.2.15-.08-.32-.7c1-.21,1.77-.19,1.85,1s.12,2.53.18,3.72l1.3.87c.58-.22,1.64,0,1.82-1.27,0-.15.59-.22.91-.33v22.8H0m25.71-24.73c0,.33,0,.89.11.94.54.19,1.2,1.08,1.78,0l-1.91-.91c-.29-1.11.89-.5,1.23-.94-1.89-.71-2.15-.65-2.38.55ZM311.54,50.21c-1.1-.4-1.7-.08-2.82,1.68a26,26,0,0,0,3-1.15s0-.15,0-.23a4.6,4.6,0,0,0,1.18.28,1.84,1.84,0,0,0,1.19-.38c.79-.89-.39-1.35-.61-2a1.06,1.06,0,0,0-.81,0A19.88,19.88,0,0,0,311.54,50.21Zm-289.68,24a1.43,1.43,0,0,0,.33,0,1.59,1.59,0,0,1,1.4-1.48c.13,0,.1-.82.17-1.41l-1.05.52-.48-2.15-.34-.08-1.2,1.92,1.5.75c-.1.68-.19,1.33-.29,2-1.29-.59-1.77,1.16-2.91,1a1.7,1.7,0,0,0,0,.22C21.36,75.65,21.7,75.5,21.86,74.23Zm549.35,5.26-1.14,1.27c1.74.23,1.74.23,2.43-1.4l-1.33.16.69-1.37c1.2-.52,1.49-1.39.68-3.25l-2.68,1.66a3.18,3.18,0,0,1,.25.92c0,.41-.27.81-.28,1.22C569.79,79.77,570.66,79.37,571.21,79.49Zm-295-.62-.56.74,2.72.46c-1.32-.95-.1-.93,0-1.34-.59-.93-1.12-.53-1.73,0l.58.65-.26.25-.76-.74c-.08-.25-.12-.69-.25-.72a20.78,20.78,0,0,0-2.08-.28l.11-.74-1,.38v-1c.95.14,1.32-.41,1.32-1.21a19.58,19.58,0,0,0-.26-2.24,1.22,1.22,0,0,0-.46-.19c-.51-.12-1.32-.41-1.48-.22a1,1,0,0,0,.34,1.58.37.37,0,0,1,.15.3c-.09,1.13-.21,2.26-.32,3.48l.81.85-.76.48.08.25Zm-212,1.69,1.52,1.57-.42-1.59a2.12,2.12,0,0,1,2.37,1.57,5,5,0,0,0,.66,2.35c.92-.17,1.59-.53,1.28-1.55,1.13-1,2,.17,3,.34L72,80.36c.16-.4.49-.83.39-1.1s-.59-.53-.94-.72a4.37,4.37,0,0,0-.89-.27c-.54-.15-1-.52-1.5.31-.15.27-1.2.09-1.83,0-.43-.06-1.08-.57-1.21-.45-.38.37-1.36.34-1,1.36.08.25-.51.71-.79,1.07-.3,1.13-1.23,2.24-.43,3.1l1.1-.59ZM287,38.61c.81.14,1.93-.26,2.3.76a8.27,8.27,0,0,1,.05,2.51l2-1v1c1.51.53,2.23-.27,2.77-1.45.09-.2.38-.32.58-.48l-.12,1.21,1.42-.17c-.15-.87-.54-1.21-1.33-1a1.57,1.57,0,0,1,2.15-.16,2.09,2.09,0,0,0,2.6.19c.27-.12.63-.46.61-.69s-.28-.92-.52-1c-1.32-.26-2.69-.68-4,.3-1-.87-1.9-1.76-2.86-2.62a.54.54,0,0,0-.5-.08c-.13.08-.26.37-.21.47.29.51.64,1,1,1.61l-.58.63c-.41-.48-.64-1-1-1.14a19.09,19.09,0,0,1-2.21-.74c-.31-.19-.39-.88-.88-.35-.25.27-.19.81-.28,1.28l-1.82.5.84.44-2.51.93,1.94.28-.31-.69,1.47.33.08-.23Zm-24.63,92.67c-.23.51-.45,1-.7,1.55.87.42,1.12-.15,1.2-.73,0-.24-.35-.52-.54-.78l.06-1.29,1.17.66.84-1.08.89,1.93,1-.36-.3-.45a36.23,36.23,0,0,1,4.81,1c.43.11,1.16.13,1.35-.12.57-.75,1.2-.37,1.81-.27,1.22.21,2.43.53,3.67.69s1.85-.24,1.92-1.46a5.28,5.28,0,0,0-.29-2.58,3.41,3.41,0,0,0-1.93-1.83,12.72,12.72,0,0,0-3.63.38l0,.29,1,0-1.09,1c-.77-1.41-2-1.26-3.22-1-.21,0-.31.59-.51,1,.69.13,1.19.2,1.67.32a6.65,6.65,0,0,1,.84.33c-.22.22-.42.47-.65.67-.39.33-.8.62-1.19.93l.15.22-1.63-.13c0-.32,0-.81-.15-.93a7.63,7.63,0,0,0-1.53-.61l-.24.31a8.22,8.22,0,0,0-.53-1.12,7.14,7.14,0,0,0-.72-.83c-.25.25-.5.51-.76.76s-.49.61-.8.73c-1.09.41-2.22.74-3.28,1.08l-.53-.67a7.5,7.5,0,0,0-.48.67c-.26.49-.49,1-.72,1.48l-.77-.14-.3.21c1,.46,1.39,1.16,1,2.1.39-.35.73-.62,1-.93s.52-.64.8-1Zm2.89-15.73c-1.41-.11-.69-1-.45-1.59l-1.33-.36,1.17-.4v-1.54l.22-.35c-.78-.13-1.56-.26-2.34-.37a8.61,8.61,0,0,0-.88,0c-1,0-2.09-.1-3.13-.1a18,18,0,0,1-2.19.09c-1.13-.16-2.17-.27-2.88,1l-.43-.79L251.57,113c-.82-1.17-1.84-.68-2.85-.33-.26.09-.53.14-.79.21-.73.17-.94.76-.57,1.45a7.79,7.79,0,0,1,.38,1.37c-.49-.27-.69-.31-.74-.42-.41-.93-1-1-1.86-.55a38.26,38.26,0,0,1-3.94,1.38c-.15,0-.36-.06-.54-.06a2,2,0,0,0-2,1.89l-.75.27-.68-1.38c-2.26.8-2.26,3.21-3.89,4.91l2.89.84c-.19-1-.34-1.69-.48-2.43.72.18,1.38.3,2,.51.95.31,1.87.67,2.79,1a3.31,3.31,0,0,1,.66.47l0-.79a2.5,2.5,0,0,0,.92,0c1.14-.54,1.8-.2,2.13,1.09a.89.89,0,0,0,.7.44,1,1,0,0,0,.93-1.49c-.57-.86.06-.83.45-1.06.15.4.2.8.42,1s.54-.13.92-.23c-.55-.79-1-1.45-1.45-2.12l1.23-1.54c.3.23.57.55.68.5a2,2,0,0,0,.75-.62c.17-.21.22-.52.4-.71.65-.67,1.34-1.31,2.13-2.06l1.3.5c-1.47.43-2.13,1.3-1.8,2h1.05a2.23,2.23,0,0,1-.1-.39,1.22,1.22,0,0,1,0-.27c.17,2.27,2.44,1.32,3.37,2.2l1.62-.44-2.59-2.17,3.68-.43-.5,1.15,1.46.36c-.37.43-.75.68-.83,1-.21.87-.29,1.77-.42,2.66l.94.71,5.17-3.75,1.38,1.51c-.15-1.1,1.84-1.65.68-2.88l-2.1,1.41.48-.79a11.75,11.75,0,0,1-2.25-.91c-.33-.22-.4-.84-.59-1.27l.33-.16.4.72c.64-.14.83-1.46,1.66-.59,0,.51-.08,1-.15,1.78l1.6-.93h1.65l-1.27-1.29-.34.14ZM227,132.28l.65.22c.18-.33.28-.72.44-.75.67-.14.88-.4.66-1.09,0-.1.85-.65.87-.62.7.8,1.34,1.65,2,2.5,0,0-.13.16-.21.25a1.81,1.81,0,0,0-2.7-.21l.65,1.78c-1.17-.63-1.16-.63-1.37.29,0,.11-.22.17-.28.28-.19.42-.36.84-.55,1.31l-.87.76a7.78,7.78,0,0,0,1.58-.24c1-.43,1.34,0,1.6.92a6.61,6.61,0,0,0,1.1,1.79c0,.06.18,0,.38.05l-.36-1h1.53l-.39-2.12,1.62-.31c-.09,1.25-.18,2.4-.26,3.41l3.71,1.11-.09.34-1.5-.09-.88,2.43a7.65,7.65,0,0,0-1.15-1.21,4.11,4.11,0,0,0-2-.94,6.71,6.71,0,0,0-2.28,1c-.28-.84.26-1.87-1-1.87h-2l.3.22-1.75,2.06c-1.46-3.13-3.07-.68-4.4-1.07.82,1.42,2,2.66,1.12,4.38l-.53-.42-2.85.67c.77.53,1.25.84,1.72,1.18.26.19.73.55.69.62a2.2,2.2,0,0,1-.78.92,8,8,0,0,1-1.59.46c.21,1.24.42,2.44.65,3.76l1.44-.77.8-.44c.1.31.22.62.3.94a3.89,3.89,0,0,1,0,.57l1.29-.56.19.27-.46.85,1.28.68c.45-1.69-.66-3.64.81-5.11l1.09.71a3.49,3.49,0,0,0,2.94,3.4,4.58,4.58,0,0,0-.32-1.46c-.33-.53-.1-1.4-1.06-1.6a1.29,1.29,0,0,1-.62-1.11,11.71,11.71,0,0,1,.88-2.15,2.68,2.68,0,0,0,1,.57c.57.07,1-.38,1.77,0s1.5.07,2.27.08a.8.8,0,0,0,.85-.56c.21-1.35.28-2.71.41-4.06l.28-.11c.16.45.53.94.45,1.34a1.26,1.26,0,0,0,1,1.67l1.21-.9a8.11,8.11,0,0,1,1.32,1.91,6.69,6.69,0,0,1,0,2.14l-.47,0-.45-1.13c-1.94-.28-.94,1-.88,1.74l-2.43-.54-1.59,1.38.78,1.11c-.51-.16-.7-.21-.9-.26l-1.49-1.15-1,1.12h2.51c-.13.45-.12,1-.41,1.35-1.26,1.38,1.23,1,.85,1.86a2.25,2.25,0,0,0,.9.14,10.57,10.57,0,0,0,1.43-.66l-1.89-2.11.36-.41a8.76,8.76,0,0,0,1.18.76c.52.23,1.09.36,1.76.58.66-.76,1.32-1.75.53-3l3.26-.6c.19-.81.36-1.4.46-2a2.64,2.64,0,0,0-.13-.76,4,4,0,0,0-.27-1.29,5.78,5.78,0,0,1-.65-3.43.37.37,0,0,0-.1-.21,13.64,13.64,0,0,0-1.9-1.83c-1.51-1-1.63-1.13-1-2.81l3,1a13.76,13.76,0,0,0,0,2.17,13.8,13.8,0,0,0,.64,2.14c.11.32.21.75.44.88.38.21,1.08.07,1.27.33a10.35,10.35,0,0,1,.92,2.09c-.3,0-.75.17-.85,0a13.07,13.07,0,0,1-1-1.64c-.56.8-.39,1.33.41,1.87a2.55,2.55,0,0,1,.91,1.31c.23.79.53.95,1.45.45-1.62-.78-.24-1.26,0-1.69l1.17,1,.28-.28-.53-.92c.72-.17,1.19-.5.77-1.31-.65-1.22-.55-1.55.53-2.06a11.44,11.44,0,0,1-1-2.57,1.47,1.47,0,0,0-1.1-1.33,8.47,8.47,0,0,0-.86-.25l0-.45,2.28-.47a1.4,1.4,0,0,0-2.23,0,8.76,8.76,0,0,1-.93-1.49c-.09-.23.16-.86.28-.87a5.29,5.29,0,0,1,2.93.32,13.12,13.12,0,0,0,2.24.7c-1.33-1.79.56-2.5.54-3.71l2-.16c-.65-.58-1.15-1-1.57-1.43a1.24,1.24,0,0,1-.24-.83,5.68,5.68,0,0,1,.18-1.14l-.92-1c-.12.09-.28.31-.46.32-1,.08-1.77.67-2.9.5s-2.57-.39-3.11-1.4c-.42-.79-.67-1.66-1.1-2.43-.19-.34-.64-.53-1-.79-.09.4-.2.79-.28,1.18a4.58,4.58,0,0,1-.31,1.48c-.28.44-.82.7-.44,1.36.05.1-.26.42-.41.63l-.77-.56c-.22.36-.51,1-.6,1a7.92,7.92,0,0,1-1.5-.77l-.16.42a22.46,22.46,0,0,1-2.33-.62c-.22-.09-.3-.55-.44-.85l.25-.26c-1.15-.69-2.6.57-3.71-.43,0,.06-.1.17-.14.17-.89,0-1.77-.1-2.65-.16l-.21-.25c1.08-.53,1.47-1,.13-1.32a2,2,0,0,1-.9-.87c-.49-.76-.92-1.48-1.91-.59-.09.08-.39-.07-.25,0l-2,1.71a5.22,5.22,0,0,0,.27,2.08c.48.81,1.24,1.43,1.39,2.47,0,.22.62.36,1,.54.16-.32.35-.62.48-.95s.3-.94.46-1.44l1.36.65-.05.72.26,0,.37-1.16c1.24.05.84.82.68,1.41.63.59,1.61,1,.75,2.05,0,0,.12.27.19.41l-2.05-.15.09-1.36-4.52.2c.29.68.74,1.21.64,1.59-.36,1.3.3,1.28,1.11.93.37-.16.59-.66,1-1.22.09,0,.68-.05.87.19.91,1.18,2,1.08,3.34.76Zm37.55,10.13c1,.23,1.79-1.17,3-.6.06,0,.38-.51.54-.73a5.79,5.79,0,0,0,4.91-.45,8.73,8.73,0,0,1,2.38-1.27,1.52,1.52,0,0,0,1.38-1.36,8.19,8.19,0,0,1-.32-1.48,22.36,22.36,0,0,1-.64-2.22c-.26-2-1.15-2.18-3.05-1.9-1.62.25-3.3,1-4.83.73-1.95-.32-2.87,1.13-4.3,1.64a32.56,32.56,0,0,0-3,1.38L259,138.33a17,17,0,0,0-2.34-1.5,2,2,0,0,0-2.21.9c.75.18,1.81.11,1.18,1.43,0,.06.16.19.16.29a6.45,6.45,0,0,1-.11.73c-.2-.12-.46-.2-.58-.37-.7-1-1.19-1.11-2-.54.23.37.48.72.7,1.1s.38.7.57,1.06l.27-.11-.06-1.12.22,0,.47,1c1.1-.34,1.31-1.13,1.1-2.44l1.54,2c-.61.21-1.06.45-.38,1.15.22.22,0,.83,0,1.48-.11-.07.1,0,.11.1.16,1.17.93,1.28,1.94,1.37a1.93,1.93,0,0,1,1.44,2.49c-.08.27.16.61.24.93a2,2,0,0,1,0,.39l-1.07-.19.82,1.18,2.36-2.23-1.29-1.23Zm-7.06-35.28.27.32.72,1a4.58,4.58,0,0,1,.7-1,3.26,3.26,0,0,1,1-.42c.11.28.23.55.32.83s.15.58.22.85l-.75.36a3.88,3.88,0,0,0,.94.36,18.77,18.77,0,0,1,2.61.15,32.86,32.86,0,0,1,4.14,1.24c1.14.43,2.21,1,3.3,1.57.91.46,1.34-.08,1.76-.76s.49-1.41,1.45-1.45c.2,0,.52-.47.51-.71s-.36-.46-.61-.63a5,5,0,0,0-.87-.43,5,5,0,0,0-1.29-.53,16.34,16.34,0,0,0-2.1,0l0-.53,2.85.22c.61,0,1.39.38,1.79.12a5,5,0,0,0,1.25-1.79c0-.07-.22-.33-.37-.47-.45-.46-.92-.91-1.39-1.36,1.35,0,1.73-.7,2-1.91-1,.51-2,.75-2.44,1.38s-.84.64-1.43.23-1.16-.63-1.73-1a3.3,3.3,0,0,1-1-.67c-.69-.92-1.5-.78-2.36-.37-.51.24-1.3.44-.28,1.12.13.09.17.46.13.67-.13.79-1.83,1.89-2.77,1.8a1.75,1.75,0,0,0-.72-2.22c-.79-.46-1.51-.84-2.32,0-.11.11-.63-.13-.94-.24-.84-.31-1.49,0-1.6.74-.87-.52-.87-.52-1.1.42l1.8.42.17.47-.93.38.7.77-1,.23.26.71Zm31.1-35.27-.05.32c2.27,1.32,4.94,1.44,6.59.19l-.72-1.53c.83-.18,1.37-1.94,2.59-2.29,1.47.45,2.65.83,3.84,1.15.09,0,.48-.43.43-.57-.13-.43-.57-.8-.6-1.21a2.58,2.58,0,0,0-1.58-2.13c-.61-.37-1.35-.81-.91-2l1.51.19,0,.35.83-.72c-.58-.9-1.46-1-2.5-.41-.38.21-1,.49-1.25.34a4,4,0,0,0-3.45-.4,5.38,5.38,0,0,0-1.05.57c.29.31.53.73.88.91s1,.34.63,1c-.44-.17-1.13-.6-1.26-.47-.69.69-2-.83-2.35.7a1.08,1.08,0,0,0-.29-.09l-1.54-.12v.2l1.21.55c-.85,1-2.15-.7-2.7.74l.91.6c-1.55,1-1.75,1.59-1,2.48,1.32-.12,2.45-.53,2.87-1.89,1.57.77,1.65,2,.49,3.72ZM272,149.16c1.39-.16.86-1.54,1.3-2.08,1-1.24-.45-2-.19-3l1.09.06c.51.57.07,2,1.5,1.36l1.07,1.91.15-.35c.42.12.85.2,1.25.35.69.26,1.14.34,1.29-.65.24-1.57-.77-2.15-2-2.68.76-.35,1.19-1.87.74-2.31a3.48,3.48,0,0,0-4.87.35c-.14.17-.46.21-.71.27-1.44.39-2.9.72-4.33,1.15-.6.18-1.19,1.35-1.79-.15l-.07.94,3.86,1.07-.72,1L268,145.16a10.71,10.71,0,0,0-.37,1.9,2.34,2.34,0,0,0,.48,1.07c.25.39.78.71.82,1.1.1,1,.89,1.19,1.5,1.59.31.21.69.29,1,.47.14.08.22.26.34.4.15-.24.44-.47.43-.7A16.17,16.17,0,0,0,272,149.16ZM269.78,43.7a13.92,13.92,0,0,0-2.11-.4,4.47,4.47,0,0,0-2.07.31c-.27.14-.2,1-.24,1.16a11.8,11.8,0,0,0-1.62.15c-.13,0-.27.42-.26.64,0,.52.35,1.11.19,1.53-.44,1.12.46,1.78.74,2.63,0,.15.8.27,1,.12a22.07,22.07,0,0,0,2.17-1.67l1.48-.46v1.91l.25.17,2-2.38a2.68,2.68,0,0,0,2.57.43c.57,1.54.78,1.51,2.73-.66a3.33,3.33,0,0,1-3.94-.64,2.74,2.74,0,0,1-.45-1.19c-.17-.55-.14-1.38-.49-1.58S270.55,43.7,269.78,43.7ZM63.3,98.48l1.51-.91c-.27-.28-.39-.33-.5-.31-1.14.14-2.27.31-3.4.44a1,1,0,0,1-.52-.19c-1.6-.92-1.8-.89-3,.54a3.16,3.16,0,0,0-3.33.29,1.35,1.35,0,0,0-.1,2.1l-2.65.22,1.22,2,.65-1.33.89,2.53c.5-.65.71-1.85,1.83-1L56.3,101a11.37,11.37,0,0,0,2.28-.23,10.8,10.8,0,0,0,2-1l.91,1.81-.59,1.15.29.33,1.8-.52c1,1.46,2.15,1.57,3.07.09l-.93-.73.56-1.22c-.31.13-.63.24-.93.4-.56.29-1.11.61-1.87,1L62,99.24l1.41.58.57-1ZM308,90.16c-.13,1.3.13,1.68,1.47,1.75l-.28,1.9c1.64,1,5.15.87,6.37-.2-.31-.4-.8-.77-.89-1.21a4.54,4.54,0,0,1,.31-1.61c.26.17.5.45.78.49a3.89,3.89,0,0,0,1.88,0c.45-.18.71-.84,1-1.3a.65.65,0,0,0,.14-.47c-.15-.64-2.43-1.64-2.81-1.15-.53.66-.86.21-1.26,0-1.28-.59-2.54-1.21-3.89-1.85l-.36,1.51-.94-.23-.14.85c.46.75,1.61-.34,1.61.91ZM83.65,105.22l-2.21.37.79-2.16c.86,1.75,2.33,1,3.53,1.22a2.07,2.07,0,0,0-2.31-2.46c.17-1.32-.33-1.85-1.56-1.56a27.93,27.93,0,0,0-3.1,1c-.64.23-.92,1.7-.51,2.27a1.81,1.81,0,0,1-.72,2.81,3.9,3.9,0,0,0-.87.81l.23.46c.57-.1,1.27,0,1.67-.33.65-.52,1.07-.15,1.57.11l1,.52Zm203-25.83c-.79.73-1.41,1.27-2,1.85-.8.79-.65,1.58.42,2,.87.32,1.84.41,2.69.78,1.49.65,2.33.59,3.51-.51l.09,1.14,1.46-.11V81.65l1.1.89.3-.12c-.14-.57-.13-1.52-.44-1.64a4.39,4.39,0,0,0-2.89-.43c-1.11.45-2-.23-3-.06-.06,0-.28-.38-.28-.58,0-.51.09-1,.16-1.8l-1.61.69ZM316.91,98a6.61,6.61,0,0,0-.94,2.19c0,.73,1.8,1.57,2.67,1.31.38-.11.65-.57,1-.87l-.18-.4,3,.29,1-1.28c-.25-.31-.46-.78-.83-1-1-.57-2-1-3-1.52a12.54,12.54,0,0,1-1.21-.85c-.27-.19-.52-.51-.8-.54-1.29-.12-2.58-.16-4-.24.86,1.81,2.61.8,3.58,1.25ZM545.56,26.25l1.45.51a4.23,4.23,0,0,0-1.26.61c-.25.26-.46.91-.32,1.11a31.57,31.57,0,0,0,2.21,2.42l-1.19.5c0,.31,0,.84.1.9a8.82,8.82,0,0,1,2.9,2.42c.13.13.45.08.68.11.27-.64.91-1.44.72-1.79-.6-1.09-.18-1.65,1-2.26l-2.42-1c.76-.63.53-1.19-.13-1.62A2.31,2.31,0,0,1,548,25.71C547.05,25.38,546.19,25,545.56,26.25ZM298.42,109.83l-.19.38a12.12,12.12,0,0,1-2-1.12c-.73-.61-1.27-1.43-2-2.07s-2.56-.58-3.65.4c-.81.74.61.32.6.86,0,1.6.94,2.35,2.42,2.52a10.4,10.4,0,0,0,1.63-.09l-2.28-1.2L293,109a10.43,10.43,0,0,1,1.62-.42,7.93,7.93,0,0,1,.34,1,1,1,0,0,0,.29.35l2.1,1.72-.26.31c2.59,1.6,3.61-.12,4.72-2.34l-4.23-1.16Zm-35.36-18.1-.23-.18a3.64,3.64,0,0,0,1.24,0c.19-.08.33-.83.29-.85-.62-.3-1.28-.52-2-.77l.34,1.42c-1.11.27-2.24.5-2.67-.53-.52-1.24-1.83-.27-2.34-1.15-.05-.08,0-.26-.08-.27-.33-.09-.66-.15-1-.22a2.33,2.33,0,0,1-.06.8,1,1,0,0,1-.5.53,2.32,2.32,0,0,1-.71.16c.3.48.51.9.79,1.28a2.08,2.08,0,0,0,.79.77,8.48,8.48,0,0,0,1.61.3l.07.34a7.75,7.75,0,0,1-1.23.6c-.75.21-1.86-.26-2,1.12,0,.06-.35.1-.53.15l0,.19,7.15-1.51-.46-.61ZM525.62,79.65c-.44-1-.84-2-1.29-2.91a1.18,1.18,0,0,0-.6-.62,12.57,12.57,0,0,0-5.58-.45c-.68.14-1.56.24-1.52,1.25a10.09,10.09,0,0,0,.39,1.82c1.15-.21.45-1.2.75-1.93.23.2.62.47.59.54-.4.79-.1,1.26.69,1.38s1.77,1.19,2.46-.21l3,1.6Zm-213-34.29a9.46,9.46,0,0,0-1.14-.62,14.89,14.89,0,0,0-1.56-.44l2.18-1.06a6.45,6.45,0,0,0-1.63-1,10.57,10.57,0,0,0-2.19-.09v1.83l-.56.86c-.64,1-.41,1.49.7,1.5.27,0,.55-.28.83-.43l-.33.44,1.14,1.23.4-.4c-.05.36-.09.73-.14,1.09l.37.27L313.34,46c.07.34.16.86.26,1.45l1.26.62.62-.51c.21-.19.41-.4.62-.6a8.33,8.33,0,0,0-.73-.48,8.65,8.65,0,0,0-1-.35l.43-.41.77-.43c-.92,0-1.94,1.06-2.46-.84ZM267.44,75.6c.16,1.16.29,2.12.41,3l1.77-.5c-.61-1.42-1.23-2.85-1.85-4.27a1.61,1.61,0,0,0,0-1c-.66-1.19-1.58.06-2.38-.26l-.65-.9-1,1.15.77.28-.27,1-1.84,1.27,1.06.45c-.81.84-.89,1.65-.24,2.29a.69.69,0,0,0,.67,0c.71-.56,1.38-1.18,2.05-1.78,0,0,0-.13.05-.26l-.61-.26V75.6Zm228.41,35.69a2.79,2.79,0,0,1,.88.38c1.35,1.28,1.33,1.29,3,.12l.38,2.22a3,3,0,0,1,.88.3c.24.17.36.53.52.78.4.14,1,.17,1.27.49.74.94.68,1,1.17.22,0-.55-.06-.82-.07-1.1,0-.59-.15-.89-.9-.88a4.14,4.14,0,0,1-2.08-.59c-.59-.35-.31-1.38.39-1.6.54-.17,1.1-.24,1.65-.36a3.39,3.39,0,0,0-1.44-.47,43.81,43.81,0,0,0-4.55-.56,4,4,0,0,0-3.48,1.38c-.47.59-.32.95.38,1.14.52.14,1,.3,1.76.52C495.72,112.65,495.78,112,495.85,111.29ZM273.09,28a18,18,0,0,0-2,.9,7,7,0,0,0-1.47,1.18,1.69,1.69,0,0,0-.49,1c0,.21.58.64.72.58a4.25,4.25,0,0,0,1.76-1.09c1-1.41,1.79-1.71,3.37-1l-.41.76h1.89a2,2,0,0,1,.33-.55c.06,0,.36.13.48.26.33.36.62.75.93,1.13l.42-.16c0-1,.29-2.18-.1-3-.3-.63-1.48-.85-2.35-1.29L275.81,28C274.85,27.18,273.86,29.6,273.09,28Zm83.11,88.56c0,.88-.22,1.88,1.18,1.72.1,0,.32.21.32.33a.58.58,0,0,1-.26.42,9.34,9.34,0,0,1-1.08.43l1.15,1.85,1-.82c.58.31,1.15,1.25,2,.31l-.93-2.59.72-.59-1-.63c.88-1.86.88-1.86-1.29-2.56C357.11,115,357.61,116.44,356.2,116.56ZM91.52,133.44l.06-.38-1.31-.92A4.29,4.29,0,0,1,87,130.82l-1.37,1.26c-.18-.63-.24-1.5-.49-1.56a11.78,11.78,0,0,0-2.73-.13c-.16,0-.33.23-.49.36a2.16,2.16,0,0,1,.39.41c.17.35.31.72.43,1a8.84,8.84,0,0,1,1.91.8,10.53,10.53,0,0,1,1.55,1.71l.9-1.57Zm407.73,6.41a2.89,2.89,0,0,0-.07-.66c-.39-.88-.29-1.45.82-1.6.25,0,.47-.43.68-.68s.39-.53.56-.77c-1.57-2-3.38.27-4.91-.2a4.9,4.9,0,0,1,.21,1.95,6.34,6.34,0,0,1-1.3,1.72l1.36.86C497.14,139,498.31,140.28,499.25,139.85Zm10.67-17.43-.12-.56a3,3,0,0,1-.56.17,29.41,29.41,0,0,1-4.15.45,2.87,2.87,0,0,0-2.58,1.17,1.51,1.51,0,0,0,.05,1.37,1.39,1.39,0,0,0,1.22.49c.67-.25,1.59-.65,1.78-1.2.28-.84.52-.6,1-.34a1.15,1.15,0,0,0,.44.15,6.08,6.08,0,0,0,2.2.23C510.08,124.11,510.23,123.3,509.92,122.42ZM280.85,32.17c.15,1.39.25,2.58.43,3.76a3.17,3.17,0,0,0,.55,1c.37-.23.92-.39,1.05-.72.21-.49-.06-1.2.18-1.65a3.53,3.53,0,0,0-.28-3.82c-.51-.83-1.08-1.29-2-1.07C280.07,31.57,280.13,31.86,280.85,32.17ZM302.4,84.11c-.16-.38-.23-.86-.51-1.1-.47-.42-1-.69-.75-1.48,0-.09-.23-.3-.39-.43-1.25-1-2.68-.3-4-.35-.41,0-.84.68-1.3,1.09.83.47,1.31,1.56,2.35.73a5.13,5.13,0,0,1,.61.8c.09.17,0,.42,0,.74Zm-13.7,46.2-.35.28c.31.32.61.92.93.93a8.44,8.44,0,0,1,3.49,1.3c.23.12.39.4.68.7-.34.12-.53.12-.61.22a3.86,3.86,0,0,0-.39.65,6.68,6.68,0,0,0,1.85-.07c.25-.09.31-.78.46-1.2l.38-1.09c-.92-.16-2.61.44-1.95-1.59l-1.64-.7v-1h-2l-.12.38,1.47.5C290.39,130.74,289.51,130.41,288.7,130.31Zm-33.83-29.24-.13,1.44,6.4-1.18c-1.19-.93-.21-1.33.07-1.9l.58-1.13-1.3-.39-.13.3.91,1a17,17,0,0,1-2.19,0c-1.27-.19-1.77.17-1.77,1.4C256.46,100.83,255.41,99.68,254.87,101.07Zm15.86-1.76c.86,0,1.41,0,2,0,.3,0,.81,0,.86-.12.44-1.27,1.26-.8,2.38-.37-.3-.65-.47-1.39-.68-1.4a23.25,23.25,0,0,0-3.09.22c-.38-.28-.89-.3-1.48.56-.37.54-1.31,1.26-1.71,1.12-1.17-.42-1.56.43-2.25.8l.15.38,1.68-.65,3,.57.09-.28ZM27.35,121.41c-1.46.2-1.13,1.61-1.37,2.72.75.27.75.27,1.14-.32a1.67,1.67,0,0,1,2.83.07,2.78,2.78,0,0,0,.26.34l.35-.21-1.86-3.64c.7-1.8-1.67,0-1.52-1.16C25.53,120.41,28.17,120.34,27.35,121.41Zm34.53-34,.52-.85.74.66a17.71,17.71,0,0,0,.39-1.9c0-.39,0-1.07-.2-1.15a2,2,0,0,0-1.41-.3c-1.12.24-1.24,1-1.6,1.66s-.7,1.4-1,2.11l.4.36Zm31.41,14.13.46,0-.57-3.85-1.5.7c-.26.12-.67.37-.79.28-1.14-.87-1.78.06-2.47.48l1.69,1.74a4.47,4.47,0,0,1,1.08-.32,9.34,9.34,0,0,1,1.6.13ZM254,89.74c-.5.65-.67,1.11-1,1.22-1,.35-1.43.65-1.36,1.19.14.95.35,1.82,1.61,1.78.15,0,.27.4.46.5s.7.25.79.14c.36-.42.84-.93.86-1.42a5.51,5.51,0,0,0-.59-1.83c-.72.17-.73.15-.6-.5A3.87,3.87,0,0,0,254,89.74Zm35.7,21.33,1.05,1.28h-1.23l.37,1.08,3.24-1,.83,1.39,2.08-1.14C294.18,111.27,292.26,110.46,289.74,111.07Zm-10-97c.67.91,1.07,1.5,1.52,2,.18.22.52.51.72.46a1,1,0,0,0,.51-.7c.14-1.23.59-2.09,1.75-1.87l-.48-2.73c-1,.19-1.45.78-1.66,2ZM39.16,95.52l.17-.47-.9-.54L37,93.62c-.53-.33-.9-1.16-1.75-.5-.5.39-1.26.58-1.57,1.07a6.86,6.86,0,0,0-.41,2.22l2.3-1.24a1.41,1.41,0,0,1,.88-.15,3.92,3.92,0,0,1,.84,0C37.92,95.18,38.54,95.36,39.16,95.52ZM14.83,136c-.21-1.78-.28-1.79-1.92-1.53a8,8,0,0,1-1.87-.16l-1.36-.09c.94,1.13,1.63,2,2.51,3.05ZM257,40.81c1.93,2.17,4.23,2.71,5.78,1.3a13.13,13.13,0,0,0-2.67-1.43C259.07,40.41,258.09,39.63,257,40.81ZM279.41,8l-.24.2c.15.45.26,1.27.47,1.3.92.12,1,1,1.56,1.41.25.16.54.4.8.37a4.69,4.69,0,0,0,1.16-.43c-.1-.19-.42-.55-.36-.65.67-1-.22-1-.71-1.2s-1-.2-1.49-.38a7.64,7.64,0,0,1-1.11-.77,6.41,6.41,0,0,0,1.26-.29,1,1,0,0,0,.47-.54c0-.11-.33-.45-.46-.43-.77.16-1.75,0-2.12,1.11Zm17.66,114.38c-.51-.23-1-.62-1.16-.51-.56.38-.88.42-1.15-.27,0-.08-.37,0-.55-.07-.4-.11-.78-.3-1.18-.37a2.14,2.14,0,0,0-1.21,0c-.33.17-.51.63-.91,1.18a6.56,6.56,0,0,0,1.48.79,25.75,25.75,0,0,0,2.82.4Zm-64-9.23a3.21,3.21,0,0,1-.53.83,4.06,4.06,0,0,1-1,.44c.23.26.36.4.47.55a1.91,1.91,0,0,0,3.1.07,3.19,3.19,0,0,1,1-.58l.18-1.73c-.29,0-.9,0-1,.17C234.58,114.07,233.78,113.09,233,113.13Zm47-60.8c-.88-.72-1.42-1.24-2-1.64a19.91,19.91,0,0,0-2.19-1l.54,1.62c-.34.6-1.12,1.48,0,2a14.71,14.71,0,0,0,2.06-.27A11.55,11.55,0,0,0,280,52.33Zm18.59,73c-1.19-1.2-4.58-1.09-6.64.26.86.26,1.55.71,2,.55a1.92,1.92,0,0,1,1.51.09,2.12,2.12,0,0,0,1.14,0c.17,0,.28-.32.46-.39C297.53,125.65,298,125.54,298.61,125.35Zm-90.05,24.53,1.21-1.07.68,1.61,1.1-1.17a7.46,7.46,0,0,0-1.17-.88,1.12,1.12,0,0,1-.66-1.45,5.08,5.08,0,0,0,0-1l-1,.17-.26-.58-.35.27c.29.32.79.62.82,1a4,4,0,0,1-.51,1.42l-1-.77v1.93Zm255.07,18.25-.49.2.79,2.5-.9,1,3.82.34C466.73,169.78,464.45,169.57,463.63,168.13ZM309.11,110.7c1.85,2,4.14,3.24,5,2.77a6.18,6.18,0,0,0-.9-1.57,11.58,11.58,0,0,0-2.6-2C310.35,109.78,309.65,110.41,309.11,110.7Zm196.68-13H511l-2.12-2.21-3,.76Zm81.53,25.06-3.2.83-.73-1.24.67-.42-.4-.44c-.45.35-1.06.62-1.28,1.07s.21.9.38,1.5l-1.47.39.05.39,1.15-.16a2.81,2.81,0,0,1,.74-.13,3.78,3.78,0,0,0,3.24-.77c.13-.08.36,0,.43-.15A5.08,5.08,0,0,0,587.32,122.76ZM303.93,85.63l0,.27c.46.33,1.21.6,1.32,1,.29,1.17,1,1.28,2,1.2a6,6,0,0,1,1.12.11c-.54-1.69,1-.13,1.21-1a5.57,5.57,0,0,1-.71-.14c-.26-.09-.67-.16-.73-.34-.19-.62-.14-.7-.48-.74C306.42,85.84,305.18,85.74,303.93,85.63ZM539,35.54a11.84,11.84,0,0,1-1.94-.9c-1.32-.87-2.32-.55-2.64.71l1.49,1.92ZM289.46,121.35c-1-.52-2-.48-2.43.94l-1.45-.61c.28.94.49,1.67.71,2.43a5.31,5.31,0,0,1,2.17.45c.25.08.6-.12,1.18-.27l-1.29-.74Zm-71.08,3c-1.32-.72-1.44.2-1.78,1a3.71,3.71,0,0,0,.77.11c1.72-.15,1.89-1.8,2.67-2.85a9.06,9.06,0,0,0,.75-1.66c-.92-.65-1-.7-1.71.25-.34.46-.22,1.4-.62,1.67C217.73,123.43,218,123.77,218.38,124.36Zm56.74-43.89a22.75,22.75,0,0,0-2.38.28c-.19,0-.32.41-.48.62.24.17.47.46.73.48,1.46.13,2.93.21,4.39.25.25,0,.72-.24.71-.36,0-.31-.17-.83-.37-.88a12.49,12.49,0,0,0-2-.23l-.05.3ZM283.7,116c0,.44-.3,1.07.66,1.18.5,0,1,.13,1.71.22,1.07-1.17,2.54.86,4,.06-1-.81-2.37-.67-3-1.81-.05-.11-.5,0-.77,0ZM506.28,95.33c0-.39.09-.89.15-1.4-.61-.52-.85-1.7-2.15-1.51.16.77.31,1.48.49,2.36l-2.26.17c.07.86.45,1.33,1.25,1.15S505.51,95.57,506.28,95.33ZM65.74,85.21,65.23,85l-.78,2.88.34.28,2-.57.92,1,2.81-2.13c-.09-.12-.31-.46-.36-.44-.8.37-1.57.79-2.4,1.22L66.11,87l-.78-1.17Zm204.78,30.54c-.51-.85-.95-1.7-1.81-1.44l-1.8,3.45.17.16,1.82-1c.56.25,1,.46,1.44.61a1.82,1.82,0,0,0,.33-.59c-.45-.33-.94-.63-1.47-1Zm3.7-47.35-.14.15c.5.31,1,.61,1.5.93.65.4,1.66.2,2,1.22a3,3,0,0,0,1.34-.18c.25-.09.41-.44.63-.69L279,68.71ZM536.44,40.47l-.52-.29c.31,1,1.27,1.28,2.11,1.58a1.57,1.57,0,0,0,1.23-.44c.15-.13,0-.72-.16-1a4.47,4.47,0,0,0-.83-1.11c-.54-.56-1.07-.66-1.43.2C536.69,39.73,536.57,40.11,536.44,40.47ZM227.68,161.3c.63,1.32,1.61,1.24,2.74,1.19l-.83-1.33,1.25-.63-.49-1.14-2.29-.21.66,1.84ZM511.87,99.18c-.64-.3-1.06-1.18-1.71-.3.48,2.11,2.28,2.58,4.15,3.5l-.59-3.16-.38,0-.61.75.79.87c-.51,0-.86-.54-1.18-.52C511,100.45,511.6,99.8,511.87,99.18ZM263.17,30.65c.65,1.13,1.43,1,2.22,1s1.9-1.24,2,.77c1-1,.57-2,.57-3.45l-2.47,2v-.32ZM537.76,96.49c-.26-.3-.35-.48-.51-.58a5,5,0,0,0-3.42,1c-.08.15-.1.5,0,.54.57.28,1.28.83,1.72.67A9.76,9.76,0,0,0,537.76,96.49Zm-344,47.17-2.05,1.2c.45.68,3.22,1.67,4,1.24l-.94-1,.8-.55Zm50.76-31c1.33-.13,2.56-.19,3.76-.42.32-.06.56-.63.79-1,0-.06-.18-.41-.31-.42a6.93,6.93,0,0,0-1.76-.07,3.71,3.71,0,0,0-1.57.53A5.2,5.2,0,0,0,244.47,112.64ZM553.09,41l1.08,3,1.46-1.05-1-.79,1.73-1.27c.65-.49.65-.57-.1-1.41C556,41.64,553.87,40.26,553.09,41ZM42.77,83.83c.44.83,0,2,1.17,2.36a6.06,6.06,0,0,0,1,.25c.31,0,.64,0,1,0,0-.41.13-.91,0-1.21a13,13,0,0,0-1.4-1.7C44.13,84.74,43.55,84.47,42.77,83.83ZM552.18,48.36c.36-.28.67-.54,1-.77.16-.11.49-.13.51-.24a1.4,1.4,0,0,0-.16-.63,1.76,1.76,0,0,0-.24-.63c-.25-.32-.57-.81-.87-.82a2,2,0,0,0-1.23.6c-.24.2-.27.63-.39,1l1,.24.68.12-.9.77a3.31,3.31,0,0,0,.37.29A1.49,1.49,0,0,0,552.18,48.36ZM210.68,134.8a3.25,3.25,0,0,0-4-1.14v1.93Zm345.78-98c-1.11-.46-1.85-.82-2.63-1.05-.22-.06-.56.28-.84.44.19.28.32.68.58.8a4.13,4.13,0,0,0,1.44.36,2.63,2.63,0,0,0,2.4-1.2c.13-.17,0-.64-.13-.84a.78.78,0,0,0-.74-.11,1.26,1.26,0,0,0-.38.72C556.13,36,556.27,36.23,556.46,36.77ZM22.5,82c-.58-2.3-1.34-2.61-3.84-1.58C18.89,81.2,21.26,82.18,22.5,82Zm56.12,40.82c.58.35,2-.48,1.66,1.15.39,0,.89.19,1.13,0,.45-.33-.11-2.31-.68-2.42-.31-.07-.67.17-1,.14C78.61,121.62,78.48,121.73,78.62,122.83Zm493.76,16.82c.22-.6.5-1,.41-1.23s-.68-.55-.83-.47a19.3,19.3,0,0,0-1.87,1.46c.85.93,1.5,1.6,2.64,1ZM77.06,88V86.08c-2-.56-2.77-.18-3.47,1.84.6-.36,1.54.62,1.81-.66a1.65,1.65,0,0,1,.84,0C76.5,87.41,76.69,87.68,77.06,88Zm40.82,53.11c.46-.22,1-.45,1.48-.71a.48.48,0,0,0,.23-.36c0-.14-.12-.39-.19-.39-.86,0-1.72,0-2.83,0l.76.5c-.29.51-.82,1.19-.71,1.32a13,13,0,0,0,1.81,1.55l.19-.14ZM73.54,85.77a14.61,14.61,0,0,0-1.87-.85c-.2,0-.56.25-.75.47a.67.67,0,0,0,0,.63c.31.55.69,1.07,1.12,1.71.81-1,2.14-1.49,2.23-3.3ZM7,156.21c1,.15,1.2,0,1.37-.85a11.17,11.17,0,0,0,.4-1.56,20.43,20.43,0,0,0-.09-2.34H8.25Zm373-9.85-.47-.74-1,1.88,4.05-1.38c.14-.44.08-.87-.65-1.19C380.28,144.21,381.11,146.33,380,146.36ZM298.21,85.44c.16.44.18.7.31.77a7.17,7.17,0,0,0,1.9.9c.38.09.87-.26,1.3-.42-.23-.42-.4-1.14-.71-1.19A15.06,15.06,0,0,0,298.21,85.44Zm193,22.28a2,2,0,0,0,.61.29c.51,0,1.16-.16,1.53.08,1.4.91,2.54.42,3.77-.42-.8-.41-1.5-.83-2.23,0-.09.1-.33,0-.5.06C493.33,107.76,492.39,106.35,491.18,107.72ZM237.94,54.65l.19-.46,1.33-.59c-.08-1.12-.23-1.2-1.58-.7-.45-1.37-1.41-.55-2.21-.53ZM230.09,108c-1,.23-.6,1.44-.26,1.82a3.11,3.11,0,0,0,2.2.74c.45,0,.7-.72.06-1.16ZM250.61,97c-.63.66-.73,1.1.17,1.46.3.11.71.56.67.78-.22,1.18.54.8,1.38.85l-.66-1.24c.46-.29.89-.54,1.29-.84,0,0-.09-.37-.21-.51s-.3,0-.4,0C252,98.13,251.43,98,250.61,97Zm-54.48,35.23.14-.19a8,8,0,0,0-1-.76c-.26-.14-.67-.27-.87-.15a1,1,0,0,0-.36.82c.19,1.3,1.35,1.85,2.76,1.48Zm323-7.16c-1-.86-1.08-.84-3.16,1.44C518.17,126.8,518.22,126.78,519.13,125.1ZM270.75,155.25l.88.63-.77.26.27.36a4,4,0,0,0,1-.49,8.44,8.44,0,0,0,.83-1.11c.21-.26.47-.48.64-.66l-2.19-.74Zm32.92-45.75,1.26,1.43c.31-.46.63-.93,1.14-1.66l-3.88-.54C302.25,110,302.25,110,303.67,109.5ZM266.58,82.2c2,.59,3.61,1,4.94-1.09L269.46,81l0,.25.82.36,0,.31c-.28,0-.7.17-.84,0C268.47,81,267.66,81.45,266.58,82.2Zm223.25,66.37.74,2.39,1.46-1c-.07-.62-.14-1.22-.21-1.9ZM96.94,133.07c-1.86.36-1.34,2.35-2.37,3.23l3.29-1.87,0-.3-1.3-.36ZM594.61,122c-.74-.38-1.56-.79-2.38-1.19a.11.11,0,0,0-.1.05,2.78,2.78,0,0,0-.35,1.09c.13,1.49,1.5.34,2.12.91.05,0,.41-.21.62-.34C594.56,122.5,594.55,122.38,594.61,122ZM383.18,132.37l-1.37-.44c0,.28-.15.76,0,.82a2.65,2.65,0,0,1,1.1,1.71c.08.25.35.43.78.93.14-1.29.25-2.22.37-3.31ZM393,151.63c.86-.48,1.51-.93,1.94.13,0,.12.67,0,1,0v-.44l-1.5-.46c.06-.2.09-.35.14-.5a4.52,4.52,0,0,0,.28-1c0-.07-.55-.32-.69-.24a1.94,1.94,0,0,0-.72.83A11.4,11.4,0,0,0,393,151.63ZM13.67,79.88c.86-.28,1.55-.46,2.21-.72.5-.2.84-.53.26-1-.23-.2-.5-.36-.69-.5L13,79.07Zm340,55a7.75,7.75,0,0,0-1.36,1.59c-.25.58,0,1.31.77,1.25,1-.08,1.06-1.08,1.31-1.8C354.48,135.75,354.07,135.4,353.7,134.89ZM270.9,57.6l-.08-.32c-.15,0-.36,0-.43-.14-.8-1.24-1.77-.45-2.48,0-1.07.62.51.68.4,1.17a.85.85,0,0,0,0,.27ZM81.09,128.45a4.22,4.22,0,0,0-.61-.24c-1.28-.4-2.34.89-3.65.52-.11,0-.4.56-.55.78.84,0,1.54,0,2.25,0a2.7,2.7,0,0,0,1-.12A17.68,17.68,0,0,0,81.09,128.45Zm300,4.88c-.36.27-.74,1.13-1.36.17a.51.51,0,0,0-.4.12c-.06.16-.07.45,0,.53.56.45,1.15.87,1.91,1.43l-.07.74c1,.06.91-.73.8-1.18A8.07,8.07,0,0,0,381.08,133.33ZM272.24,158h2.12c-.05-.61-.09-1.22-.13-1.82C273,156.22,272.22,156.44,272.24,158Zm103.1-23.79c-1.13-1-1.5-1-2,.11l-1.23-.6-.37,1.1c.49.11.94.36,1.31.27A20.54,20.54,0,0,0,375.34,134.19ZM256.65,97.05l.22.41c.91-.4,1.83-.79,2.72-1.22a10.49,10.49,0,0,0,1.24-.84C258.76,95.33,256.88,96.12,256.65,97.05ZM58.28,108.21a4.83,4.83,0,0,0,.55,1.57,1.31,1.31,0,0,0,1.19.34A5.12,5.12,0,0,0,61.39,109s-.1-.34-.19-.36a.57.57,0,0,0-.47.15.75.75,0,0,0-.15.37Zm160.24,45.85c.34.82.68,1.62,1,2.46l1-.49-.28-.18.75-1.59ZM352,137.92l-.06-.49-1-.1V138c-1.63-1-1,1.05-1.85,1.28l.42.94.33-.1.19-1Zm27.56,1.37.16-.23-1-1.26.92-1.76-.33-.17-2.14,2.5ZM61.45,113.66l2-2.53c-.66-.07-1.23-.33-1.55-.14C61,111.52,60.88,112.39,61.45,113.66ZM286.82,37l0-.26c-.15-.17-.29-.42-.48-.48-.42-.13-1.17-.34-1.27-.19a21.62,21.62,0,0,0-1.24,2.56c1.52.08,1.55-1.08,1.81-1.86Zm98.43,92.11.8,2.22c.54.05,1-.07.54-1-.21-.44-.24-1-.48-1.41a.8.8,0,0,0-1.54.07,4.14,4.14,0,0,0,0,1.34ZM289.2,17.63l1.36-3.4C288.12,15.54,288.06,15.71,289.2,17.63Zm256.41,43.3L547,59.65c-.38-.25-.81-.77-1.12-.71s-.81.6-1.21.93Zm-288,13.83.08.33-1.67.6,1.8.88c.08-.11.29-.56.42-.53,1.72.26.62-.77.85-1.28ZM81.9,99.05l.35.36c.28-.14.54-.29.82-.42s.62-.28,1-.44l.07,1,1.19-.31A2.15,2.15,0,0,0,83,98C82.53,98.15,82.25,98.69,81.9,99.05ZM271.28,60.89c1.2,1.06,1.92.37,2.24.11l-1.12-1.09.25-.58ZM58,80.26c-.77.28-1.68.44-1.69.65a9.26,9.26,0,0,0,.36,2.24l.5,0Zm453.42,6.36c-1.09,1.43-1.1,1.79.07,3,.27-.91.52-1.7.79-2.58Zm-126.7,66.45c-.95-1.67-2-.18-2.8-.56l-.31,1.13ZM278,156.48a12.2,12.2,0,0,1-.72-1.27,8.23,8.23,0,0,1-.31-1.4l-.93,1.28C276.47,155.82,276.29,157.35,278,156.48Zm-41.91-47c-.38-.07-.87,0-.92-.19a1.67,1.67,0,0,0-2.09-1.12l-.07,1,.34.23.31-1,2.19,2.34.24-.23Zm-37.6,26.94c.38-.35.8-.54.86-.82.19-.82.67-.67,1.25-.56.21,0,.47-.19.7-.29-.21-.18-.47-.54-.62-.5-.91.25-1.78.6-2.72.93Zm119.71-30,.42.09a8.84,8.84,0,0,0,0-.89c0-.18-.18-.36-.16-.52.16-1.12-.19-1.68-1.5-1.3C317.34,104.74,317.75,105.61,318.17,106.48ZM89.36,129.63v.3l3.19.94.24-.27c-.25-.39-.46-1.1-.74-1.13A16.26,16.26,0,0,0,89.36,129.63ZM57,87c-.43.59-.64,1.17-1,1.4-1,.58-.78,1.31-.65,2.23A4,4,0,0,0,57,87ZM281.23,26.46c-.38.14-.67.22-.94.34s-.51.21-.53.35a4.36,4.36,0,0,0,.08,1.07c.23,0,.47,0,.7-.09s.39-.22.47-.17c.87.57,1-.24,1.44-.68C280.83,28.4,281.4,26.88,281.23,26.46ZM91.14,143.93c-.71.18-1.68,0-1.59,1.19.08.91.71,1.13,1.42,1Zm262-16.71L352,129a12.54,12.54,0,0,0,2.21-.25c.2-.06.24-.63.36-1Zm-85-46.63c1.47.13,1.91-.21,2.25-1.69l-1.9-.23,0,.21,1.28.43-1.75.38,0,.18,1.21.15Zm305.22,63.52c1.34.17,2.33,1.07,3.66.43A3,3,0,0,0,573.33,144.11ZM274.28,100.84a6,6,0,0,1,1.47-.14,6.76,6.76,0,0,1,1.23.5.44.44,0,0,0,.33-.22.79.79,0,0,0-.07-.53C276.55,99.54,275.19,99.64,274.28,100.84ZM73.87,127.92l.08-.31c-.62-.31-1.23-.66-1.88-.91-.13,0-.41.32-.62.5l1.12,1.19.2-.57ZM511.93,75.35l-.39.32a9.3,9.3,0,0,0,1,1.8c.16.18.82-.1,1.25-.17v-.36ZM16.29,135.26l.91,1.36.83-.87c.43.14,1.16.73,1.5-.49ZM286,59.11,287,60l1.19-1C286.63,58,286.44,58,286,59.11Zm17.61,4.53-.49.17c1.49,1.36-.73,1.41-.66,2.29,1.22.61,1.45-.73,2.35-.95Zm-34.72,6.88.43.55,1.45-.73-.84-1.28C269.54,69.54,269.19,70,268.85,70.52Zm29.84,28.27c0,.23-.08.47-.09.72a1.45,1.45,0,0,0,0,.72c0,.09.5.12.61,0a2.87,2.87,0,0,0,.38-.87l2.07-.61,0-.2ZM67.48,109.72l.14.41c.64-.12,1.28-.28,1.93-.34.92-.1,1-.64,1-1.41-1-.31-1.21.4-1.3.87Zm154.64,49.61c1-.67,1.14-1.4.36-2.14a.91.91,0,0,0-.88-.06c-.17.09-.17.52-.24.79C222.51,157.89,221.74,158.93,222.12,159.33Zm96.15-74.59c1.33,1,2.08,2.46,3.82,2.4a6.3,6.3,0,0,0-1.32-.93c-.27-.15-.74-.28-.76-.46C319.9,84.75,319.17,84.87,318.27,84.74ZM245.75,54.59l-.08-.44c-1-.25-2-.91-2.6,1Zm266,13.53,2.26.32.19-.52a12.57,12.57,0,0,0-1.67-1C512.44,66.94,512.09,67.6,511.74,68.12ZM317.63,87.8l3.54.44C320,86.72,318.81,87.18,317.63,87.8Zm-223,9.87c-.28.43-.65.75-.68,1.1a2.71,2.71,0,0,0,.38,1.32c.06.11.49.11.73,0a.55.55,0,0,0,.26-.45C95.13,99,94.88,98.35,94.64,97.67Zm484,61.34c.36-.53.64-.95.93-1.36l-1.79-.53-.21.42ZM250.51,54.34l1.14-.43-1-1.11.07-.83c-.18,0-.48,0-.52.08A1.83,1.83,0,0,0,250,53,8,8,0,0,0,250.51,54.34ZM83.66,120.26l1.43,2.4.39-.08-.55-2.49ZM324.75,48l.17.21,2.31-1.32-.81-1ZM178.37,126.48l2,1.79a3.21,3.21,0,0,0-.16-1.09C179.92,125.84,179.64,125.72,178.37,126.48Zm71.89-26.16,1.37,1.65,1.22.31c-.23-.32-.59-.61-.66-1C252,100.26,251.28,100.25,250.26,100.32ZM521.65,43.81l-1.41-2-.68,1ZM218,141.84a6.18,6.18,0,0,0-.71-1.33,1.27,1.27,0,0,0-.95-.21c-.18,0-.49.46-.44.56a1.49,1.49,0,0,0,.66.7A7.64,7.64,0,0,0,218,141.84ZM43.4,91.27a7.28,7.28,0,0,0,0,1.07,1.85,1.85,0,0,0,.34.88.91.91,0,0,0,.75.09.88.88,0,0,0,.36-.49C44.38,92.29,44.4,91.23,43.4,91.27ZM291.8,58.14l.07-.45L290,57.11c0,.6-.07,1-.11,1.71Zm-46,34.12v-.17A19.43,19.43,0,0,0,243.3,92c-.22,0-.41.55-.61.84.24.1.52.34.73.29C244.23,92.86,245,92.54,245.81,92.26Zm286.39,7,.09.54,3.48-.38-.07-.57ZM287.55,113.13a3.25,3.25,0,0,0-1.29,0c-.33.15-.53.62-.74,1,0,0,.23.24.36.37C286.38,114,287.7,114.46,287.55,113.13Zm4.62,22.62.13.44c.62-.09,1.25-.18,1.86-.31,0,0,0-.59-.11-.72C293.15,134.39,292.7,135.22,292.17,135.75Zm21.56-27.5c-.88-1.33-2.53-1.79-3.12-.94ZM54.25,81.3c.21.54.35,1,.56,1.4a1.27,1.27,0,0,0,.6.52c.1,0,.44-.21.47-.37A1.37,1.37,0,0,0,54.25,81.3Zm192.07-3.13L246,78l-.6,1a7,7,0,0,0,.71.78,4.52,4.52,0,0,0,.65.36c.07-.16.23-.36.19-.49C246.75,79.13,246.52,78.66,246.32,78.17Zm41.75-14.8-1.55-1,1.92-.32-.07-.41c-.66.15-1.33.27-2,.48a1,1,0,0,0,0,.75C286.81,63.34,287.18,64,288.07,63.37Zm114,100c-2.32-.25-2.89,0-2.46,1.32C400.4,164.24,401.14,163.85,402.09,163.33Zm-351.48-81,1-.79c-2.87-.49-2.92-.47-2.73.88l1-.75Zm310.89,56,.19-.53c-.63-.31-1.24-.64-1.88-.91-.09,0-.36.16-.43.31s0,.49.05.51C360.11,137.94,360.81,138.12,361.5,138.32Zm-77.33-39,.44.21a16.69,16.69,0,0,0,.8-1.72c0-.11-.28-.36-.44-.55-.2.18-.51.33-.57.55A10.56,10.56,0,0,0,284.17,99.31ZM273.1,38.55l-1.51-.34L271,39.45l1.33.19ZM576,101.25c.06.84.12,1.52.19,2.4.6-.49,1-.82,1.51-1.21ZM230,59.32c-.48-.74-.74-1.18-1-1.6-.1-.13-.32-.3-.43-.27s-.45.23-.48.39-.06.81.09.88A11.63,11.63,0,0,0,230,59.32ZM220.1,136.7c-.72-.89-1.45-.48-2.27-.09C219.32,137.64,219.32,137.64,220.1,136.7Zm-46.66,11.08-.36,0a9.68,9.68,0,0,0-.25,1.6c0,.23.25.47.39.71.19-.2.56-.42.55-.61A13.17,13.17,0,0,0,173.44,147.78ZM508.38,98.94l0-.42-2.56-.34-.08.38.68.61ZM527,65.21c-.12.86-.21,1.51-.31,2.16.26,0,.66.07.75-.06C527.85,66.69,528,66,527,65.21Zm-27.91,64.88,2.8-.88C500.57,128.52,499.39,128.93,499.05,130.09ZM214.38,151.56v.11h1.79a4.64,4.64,0,0,0-.75-1.22c-.22-.2-.7-.1-1.06-.13l0,.24,1,.67-.24.24ZM73.53,108.89c-1.91-1.16-2.31-1.08-2.6.38ZM250.45,60.51l.07-.3-2.06-1.11v1.41Zm320.4,93.88c1,1.08,1.82,1,2.7-.21ZM560.15,40.48c-1.12-.55-2-.59-2,1ZM173.56,145.26l-.27.13.34,1.91c.24,0,.46.09.69.11a3.26,3.26,0,0,0,.65-.18Zm96.55-59,.41-.93H267.9v.24ZM533.72,66.5l1.89.65c0-.28.17-.7,0-.83C535.2,65.88,534.66,65.47,533.72,66.5Zm3.5-24.68-.42.06-1,1.45,1.5.45ZM74.14,121.28l2.43-.46C75.05,119.75,74.55,119.83,74.14,121.28Zm96.62,27-1.46.43c-.31,1.18.54,1.09,1.07,1.24ZM259.45,32.53l1-1.23-.26-.18-1.95.35Zm-43.4,122.65-2.76.76C215.07,156.63,215.52,156.51,216.05,155.18ZM273.61,4.27,275,5.1l.21-.18-.92-2.17ZM27.88,103.53l-2.14-1.75C25.77,102.87,27.16,104,27.88,103.53ZM47.05,83.74c.22.73-.89,1.44.27,2l1-1.6ZM285.83,89.8l-1.51-.66c0,.72-.17,1.65,0,1.75C285.37,91.35,285,90.05,285.83,89.8ZM39.13,80.1h-.42L38.22,82l1.39-.17ZM223.7,152l2,1.7.34-.3a13.23,13.23,0,0,0-1.21-1.48C224.65,151.78,224.23,151.94,223.7,152ZM517.26,131.4c1.06.22,1.82.37,2.32-.61C518.76,130.3,518.76,130.3,517.26,131.4ZM236.62,113l.34.46c.64-.67,1.82-.56,2.32-1.44l-.25-.37Zm38.77.12c-.28-1.4-.56-1.51-2.31-.89Zm-266,43.79,1.09.55.37-1.78-.37-.14Zm369.42-13.45.46,1.25a3.19,3.19,0,0,0,.8-.42,3.23,3.23,0,0,0,.43-.91Zm-164.1,3.86v-1.82l-1.51,1.15ZM32,91.79a6.73,6.73,0,0,0,1.11.13c.37,0,.86,0,1.06-.23s0-.68-.09-1.11Zm243.41,56.15c-.23-1.62-.44-1.69-1.68-.71Zm18-103.69c-.82-1.1-1-1-2.48.74Zm-24,53.84c1.51-.08.19-1.13.61-1.58,0,0-.09-.23-.15-.34l-1,.5ZM72.81,77.29l-.11-.45-2.37.81C71.29,78.07,72.15,78.3,72.81,77.29Zm203,26.79c.31,1.8,1.25.32,1.76.72l.1-.61ZM556.86,50.5l1-1.77-1.94.2ZM383.72,138.62l.19-.37-.9-1L381.72,139ZM258.58,30h-1.95c.08.26.07.63.25.76C257.48,31.2,258,31.11,258.58,30Zm28.92,77.11.89,1.42,1.81-.34Zm231.75,24.83-2.13,1C518.72,133.49,519.2,133.23,519.25,131.92Zm50.32-70.38-1.9-.23c.09.42.18.84.3,1.38ZM58.28,117.25l.34-1.66-1.68-.39ZM270.77,87.54l.08-.79h-1.94l0,.51ZM223,135.07l-.76-.72-.24.18c.19.28.37.8.55.8a9.12,9.12,0,0,0,1.82-.36C223.52,134,223.52,134,223,135.07ZM503.9,66.51l0,.32a9.75,9.75,0,0,0,1.71,0c.14,0,.19-.54.31-.91ZM277.46,45.72l-1.42-.8L276,46.67Zm.5,29.65c.29,1.26.68,1.43,2.16.68Zm121,87.17.33.2c.27-.47.59-.93.81-1.42.07-.16-.11-.43-.17-.65-.21.14-.52.23-.59.41A10.09,10.09,0,0,0,399,162.54ZM285.41,29.71l-.44.49c.34.34.67.7,1,1,0,0,.35-.29.54-.45Zm-10.32,28.2,0-.53a3,3,0,0,0-1.25,0c-.19.1-.13.69-.21,1.26Zm-50,98.06.29.27.93-1.1-1.4-.53Zm333.56-44.33c-.89-.72-1.56-.58-2.19.66Zm-84.75,45.75c-1.09-1.29-1.75-.13-2.5-.24l0,.51ZM220,158.68l.36-.12a5.13,5.13,0,0,1-.27-.9,3.25,3.25,0,0,1,.07-.82l-1.13.22ZM298.21,104l.07-.51c-.58-.13-1.16-.28-1.74-.38-.1,0-.29.23-.34.38s.12.36.21.37C297,104,297.61,104,298.21,104ZM249.15,44.87l.75,1.19.79-.57C250.48,44.69,250.09,44.3,249.15,44.87Zm53.47-10.81-.11-.42-1.93.65C301.54,35.28,302.06,34.57,302.62,34.06ZM312,100.78c-.73-1.33-1.37-1.58-2.41-1Zm-2.13-36.94.33-.33L309,62.26C308.57,63.57,309,63.9,309.87,63.84ZM272,17.89l1.61-.41-.08-.3C273.05,17.39,272,15.21,272,17.89ZM51.37,82.42l.1.63,2-.52L53.43,82Zm12,25.84h2.11l-.93-1.33Zm15.92,18-.39.26-.89-1.39-.11,1.67ZM235,116.39l-2.2,1.65C234.06,118.08,234.92,118,235,116.39Zm15.78-9c-.78-.8-1.3-.66-1.91.7ZM320.45,83.6l.33.19,1.12-.68c-.68-.37-.47-.68.08-1-.32-.06-.68-.08-.78.07A10.8,10.8,0,0,0,320.45,83.6Zm-51.3-65.53-.81.06c.19.6.37,1.2.55,1.8l.5-.09C269.32,19.3,269.24,18.76,269.15,18.07Zm24.07,85.58-.17.46c.35.94,1,.57,1.67.41l.11-.41Zm12.28-20c-.37-.29-.61-.58-.72-.54a4.77,4.77,0,0,0-.91.6c.24.2.46.52.72.55S305.07,83.92,305.5,83.61Zm1.23-24.87-.41.55a9.82,9.82,0,0,0,1,.71s.3-.34.45-.53ZM204.26,137v.68h1.59a4.12,4.12,0,0,0,0-.66C205.3,137,204.78,137,204.26,137ZM219,111.41c.83.89,1.76.89,2.18,0Zm-84.21,31.11-.17.41c.43.65.91,1.18,2,.46Zm340.44-30.11,1.3-.2.08-.3-1.52-1.09Zm46.91-38.52c.72.13-.22,1.89,1.44,1.06C522.91,74.71,523.75,73.21,522.17,73.89Zm-294.81,50-.13.37,1.4,1a5,5,0,0,0,.15-1A10.87,10.87,0,0,0,227.36,123.84ZM175,113.23l-.24.25L175,115l.77-.44ZM302.86,66.8c-.66-.35-1.21-1-1.71.09l1.22.74ZM42.79,122.94c-1.39.15-1.52.39-1.23,1.93ZM62.3,104l0-.27-1.45-.37-.56.82.13.33ZM54.91,85.32c-.14,1.45,0,1.54,1.6,1.06Zm261.51,1.14a1.66,1.66,0,0,0-2.51-.49ZM202.67,143.6l-.09.41c.77-.16,1.12,1.39,2.29.18Zm103.39-34.8,0,.51,2.27.19,0-.46Zm181.18.27h2.3C488.28,108.11,488.28,108.11,487.24,109.07ZM236.55,125c1.34-.62,1.71-1.38,1-2Zm340.76,27.8.07.42c1.2.37,1.46.32,2-.56ZM295.41,35.34l-1.6.57c.14.19.25.48.44.56C294.94,36.76,295.27,36.41,295.41,35.34Zm229.77,5.38.53-.21c-.19-.52-.37-1-.59-1.54a4.38,4.38,0,0,0-.59.19C524.74,39.68,525,40.2,525.18,40.72Z"/></g></g></svg>